<?xml version="1.0" encoding="utf-8" standalone="no"?>
<!DOCTYPE svg PUBLIC "-//W3C//DTD SVG 1.1//EN"
  "http://www.w3.org/Graphics/SVG/1.1/DTD/svg11.dtd">
<svg xmlns:xlink="http://www.w3.org/1999/xlink" width="432pt" height="288pt" viewBox="0 0 432 288" xmlns="http://www.w3.org/2000/svg" version="1.1">
 <metadata>
  <rdf:RDF xmlns:dc="http://purl.org/dc/elements/1.1/" xmlns:cc="http://creativecommons.org/ns#" xmlns:rdf="http://www.w3.org/1999/02/22-rdf-syntax-ns#">
   <cc:Work>
    <dc:type rdf:resource="http://purl.org/dc/dcmitype/StillImage"/>
    <dc:date>2024-07-25T10:06:47.913688</dc:date>
    <dc:format>image/svg+xml</dc:format>
    <dc:creator>
     <cc:Agent>
      <dc:title>Matplotlib v3.7.1, https://matplotlib.org/</dc:title>
     </cc:Agent>
    </dc:creator>
   </cc:Work>
  </rdf:RDF>
 </metadata>
 <defs>
  <style type="text/css">*{stroke-linejoin: round; stroke-linecap: butt}</style>
 </defs>
 <g id="figure_1">
  <g id="patch_1">
   <path d="M 0 288 
L 432 288 
L 432 0 
L 0 0 
z
" style="fill: #ffffff"/>
  </g>
  <g id="axes_1">
   <g id="patch_2">
    <path d="M 54 252 
L 388.8 252 
L 388.8 34.56 
L 54 34.56 
z
" style="fill: #ffffff"/>
   </g>
   <g id="patch_3">
    <path d="M 69.218182 252 
L 72.231683 252 
L 72.231683 251.578237 
L 69.218182 251.578237 
z
" clip-path="url(#p0ced4e3fce)" style="fill: #1f77b4"/>
   </g>
   <g id="patch_4">
    <path d="M 72.231683 252 
L 75.245185 252 
L 75.245185 251.578237 
L 72.231683 251.578237 
z
" clip-path="url(#p0ced4e3fce)" style="fill: #1f77b4"/>
   </g>
   <g id="patch_5">
    <path d="M 75.245185 252 
L 78.258686 252 
L 78.258686 252 
L 75.245185 252 
z
" clip-path="url(#p0ced4e3fce)" style="fill: #1f77b4"/>
   </g>
   <g id="patch_6">
    <path d="M 78.258686 252 
L 81.272187 252 
L 81.272187 251.578237 
L 78.258686 251.578237 
z
" clip-path="url(#p0ced4e3fce)" style="fill: #1f77b4"/>
   </g>
   <g id="patch_7">
    <path d="M 81.272187 252 
L 84.285689 252 
L 84.285689 252 
L 81.272187 252 
z
" clip-path="url(#p0ced4e3fce)" style="fill: #1f77b4"/>
   </g>
   <g id="patch_8">
    <path d="M 84.285689 252 
L 87.29919 252 
L 87.29919 250.312947 
L 84.285689 250.312947 
z
" clip-path="url(#p0ced4e3fce)" style="fill: #1f77b4"/>
   </g>
   <g id="patch_9">
    <path d="M 87.29919 252 
L 90.312691 252 
L 90.312691 251.578237 
L 87.29919 251.578237 
z
" clip-path="url(#p0ced4e3fce)" style="fill: #1f77b4"/>
   </g>
   <g id="patch_10">
    <path d="M 90.312691 252 
L 93.326193 252 
L 93.326193 250.312947 
L 90.312691 250.312947 
z
" clip-path="url(#p0ced4e3fce)" style="fill: #1f77b4"/>
   </g>
   <g id="patch_11">
    <path d="M 93.326193 252 
L 96.339694 252 
L 96.339694 251.156474 
L 93.326193 251.156474 
z
" clip-path="url(#p0ced4e3fce)" style="fill: #1f77b4"/>
   </g>
   <g id="patch_12">
    <path d="M 96.339694 252 
L 99.353195 252 
L 99.353195 248.625895 
L 96.339694 248.625895 
z
" clip-path="url(#p0ced4e3fce)" style="fill: #1f77b4"/>
   </g>
   <g id="patch_13">
    <path d="M 99.353195 252 
L 102.366697 252 
L 102.366697 249.891184 
L 99.353195 249.891184 
z
" clip-path="url(#p0ced4e3fce)" style="fill: #1f77b4"/>
   </g>
   <g id="patch_14">
    <path d="M 102.366697 252 
L 105.380198 252 
L 105.380198 244.830026 
L 102.366697 244.830026 
z
" clip-path="url(#p0ced4e3fce)" style="fill: #1f77b4"/>
   </g>
   <g id="patch_15">
    <path d="M 105.380198 252 
L 108.393699 252 
L 108.393699 245.673553 
L 105.380198 245.673553 
z
" clip-path="url(#p0ced4e3fce)" style="fill: #1f77b4"/>
   </g>
   <g id="patch_16">
    <path d="M 108.393699 252 
L 111.407201 252 
L 111.407201 238.081816 
L 108.393699 238.081816 
z
" clip-path="url(#p0ced4e3fce)" style="fill: #1f77b4"/>
   </g>
   <g id="patch_17">
    <path d="M 111.407201 252 
L 114.420702 252 
L 114.420702 238.081816 
L 111.407201 238.081816 
z
" clip-path="url(#p0ced4e3fce)" style="fill: #1f77b4"/>
   </g>
   <g id="patch_18">
    <path d="M 114.420702 252 
L 117.434203 252 
L 117.434203 231.333605 
L 114.420702 231.333605 
z
" clip-path="url(#p0ced4e3fce)" style="fill: #1f77b4"/>
   </g>
   <g id="patch_19">
    <path d="M 117.434203 252 
L 120.447705 252 
L 120.447705 222.898342 
L 117.434203 222.898342 
z
" clip-path="url(#p0ced4e3fce)" style="fill: #1f77b4"/>
   </g>
   <g id="patch_20">
    <path d="M 120.447705 252 
L 123.461206 252 
L 123.461206 214.884841 
L 120.447705 214.884841 
z
" clip-path="url(#p0ced4e3fce)" style="fill: #1f77b4"/>
   </g>
   <g id="patch_21">
    <path d="M 123.461206 252 
L 126.474707 252 
L 126.474707 207.293104 
L 123.461206 207.293104 
z
" clip-path="url(#p0ced4e3fce)" style="fill: #1f77b4"/>
   </g>
   <g id="patch_22">
    <path d="M 126.474707 252 
L 129.488209 252 
L 129.488209 198.014315 
L 126.474707 198.014315 
z
" clip-path="url(#p0ced4e3fce)" style="fill: #1f77b4"/>
   </g>
   <g id="patch_23">
    <path d="M 129.488209 252 
L 132.50171 252 
L 132.50171 187.048473 
L 129.488209 187.048473 
z
" clip-path="url(#p0ced4e3fce)" style="fill: #1f77b4"/>
   </g>
   <g id="patch_24">
    <path d="M 132.50171 252 
L 135.515212 252 
L 135.515212 163.851498 
L 132.50171 163.851498 
z
" clip-path="url(#p0ced4e3fce)" style="fill: #1f77b4"/>
   </g>
   <g id="patch_25">
    <path d="M 135.515212 252 
L 138.528713 252 
L 138.528713 144.02863 
L 135.515212 144.02863 
z
" clip-path="url(#p0ced4e3fce)" style="fill: #1f77b4"/>
   </g>
   <g id="patch_26">
    <path d="M 138.528713 252 
L 141.542214 252 
L 141.542214 134.328077 
L 138.528713 134.328077 
z
" clip-path="url(#p0ced4e3fce)" style="fill: #1f77b4"/>
   </g>
   <g id="patch_27">
    <path d="M 141.542214 252 
L 144.555716 252 
L 144.555716 106.491708 
L 141.542214 106.491708 
z
" clip-path="url(#p0ced4e3fce)" style="fill: #1f77b4"/>
   </g>
   <g id="patch_28">
    <path d="M 144.555716 252 
L 147.569217 252 
L 147.569217 95.525866 
L 144.555716 95.525866 
z
" clip-path="url(#p0ced4e3fce)" style="fill: #1f77b4"/>
   </g>
   <g id="patch_29">
    <path d="M 147.569217 252 
L 150.582718 252 
L 150.582718 75.702997 
L 147.569217 75.702997 
z
" clip-path="url(#p0ced4e3fce)" style="fill: #1f77b4"/>
   </g>
   <g id="patch_30">
    <path d="M 150.582718 252 
L 153.59622 252 
L 153.59622 79.077102 
L 150.582718 79.077102 
z
" clip-path="url(#p0ced4e3fce)" style="fill: #1f77b4"/>
   </g>
   <g id="patch_31">
    <path d="M 153.59622 252 
L 156.609721 252 
L 156.609721 75.702997 
L 153.59622 75.702997 
z
" clip-path="url(#p0ced4e3fce)" style="fill: #1f77b4"/>
   </g>
   <g id="patch_32">
    <path d="M 156.609721 252 
L 159.623222 252 
L 159.623222 50.81897 
L 156.609721 50.81897 
z
" clip-path="url(#p0ced4e3fce)" style="fill: #1f77b4"/>
   </g>
   <g id="patch_33">
    <path d="M 159.623222 252 
L 162.636724 252 
L 162.636724 68.11126 
L 159.623222 68.11126 
z
" clip-path="url(#p0ced4e3fce)" style="fill: #1f77b4"/>
   </g>
   <g id="patch_34">
    <path d="M 162.636724 252 
L 165.650225 252 
L 165.650225 44.914286 
L 162.636724 44.914286 
z
" clip-path="url(#p0ced4e3fce)" style="fill: #1f77b4"/>
   </g>
   <g id="patch_35">
    <path d="M 165.650225 252 
L 168.663726 252 
L 168.663726 65.580681 
L 165.650225 65.580681 
z
" clip-path="url(#p0ced4e3fce)" style="fill: #1f77b4"/>
   </g>
   <g id="patch_36">
    <path d="M 168.663726 252 
L 171.677228 252 
L 171.677228 74.85947 
L 168.663726 74.85947 
z
" clip-path="url(#p0ced4e3fce)" style="fill: #1f77b4"/>
   </g>
   <g id="patch_37">
    <path d="M 171.677228 252 
L 174.690729 252 
L 174.690729 79.077102 
L 171.677228 79.077102 
z
" clip-path="url(#p0ced4e3fce)" style="fill: #1f77b4"/>
   </g>
   <g id="patch_38">
    <path d="M 174.690729 252 
L 177.70423 252 
L 177.70423 62.206576 
L 174.690729 62.206576 
z
" clip-path="url(#p0ced4e3fce)" style="fill: #1f77b4"/>
   </g>
   <g id="patch_39">
    <path d="M 177.70423 252 
L 180.717732 252 
L 180.717732 66.002444 
L 177.70423 66.002444 
z
" clip-path="url(#p0ced4e3fce)" style="fill: #1f77b4"/>
   </g>
   <g id="patch_40">
    <path d="M 180.717732 252 
L 183.731233 252 
L 183.731233 85.825313 
L 180.717732 85.825313 
z
" clip-path="url(#p0ced4e3fce)" style="fill: #1f77b4"/>
   </g>
   <g id="patch_41">
    <path d="M 183.731233 252 
L 186.744734 252 
L 186.744734 79.498865 
L 183.731233 79.498865 
z
" clip-path="url(#p0ced4e3fce)" style="fill: #1f77b4"/>
   </g>
   <g id="patch_42">
    <path d="M 186.744734 252 
L 189.758236 252 
L 189.758236 95.525866 
L 186.744734 95.525866 
z
" clip-path="url(#p0ced4e3fce)" style="fill: #1f77b4"/>
   </g>
   <g id="patch_43">
    <path d="M 189.758236 252 
L 192.771737 252 
L 192.771737 91.308234 
L 189.758236 91.308234 
z
" clip-path="url(#p0ced4e3fce)" style="fill: #1f77b4"/>
   </g>
   <g id="patch_44">
    <path d="M 192.771737 252 
L 195.785239 252 
L 195.785239 111.974629 
L 192.771737 111.974629 
z
" clip-path="url(#p0ced4e3fce)" style="fill: #1f77b4"/>
   </g>
   <g id="patch_45">
    <path d="M 195.785239 252 
L 198.79874 252 
L 198.79874 117.879313 
L 195.785239 117.879313 
z
" clip-path="url(#p0ced4e3fce)" style="fill: #1f77b4"/>
   </g>
   <g id="patch_46">
    <path d="M 198.79874 252 
L 201.812241 252 
L 201.812241 111.131103 
L 198.79874 111.131103 
z
" clip-path="url(#p0ced4e3fce)" style="fill: #1f77b4"/>
   </g>
   <g id="patch_47">
    <path d="M 201.812241 252 
L 204.825743 252 
L 204.825743 108.600524 
L 201.812241 108.600524 
z
" clip-path="url(#p0ced4e3fce)" style="fill: #1f77b4"/>
   </g>
   <g id="patch_48">
    <path d="M 204.825743 252 
L 207.839244 252 
L 207.839244 128.423392 
L 204.825743 128.423392 
z
" clip-path="url(#p0ced4e3fce)" style="fill: #1f77b4"/>
   </g>
   <g id="patch_49">
    <path d="M 207.839244 252 
L 210.852745 252 
L 210.852745 125.47105 
L 207.839244 125.47105 
z
" clip-path="url(#p0ced4e3fce)" style="fill: #1f77b4"/>
   </g>
   <g id="patch_50">
    <path d="M 210.852745 252 
L 213.866247 252 
L 213.866247 131.375735 
L 210.852745 131.375735 
z
" clip-path="url(#p0ced4e3fce)" style="fill: #1f77b4"/>
   </g>
   <g id="patch_51">
    <path d="M 213.866247 252 
L 216.879748 252 
L 216.879748 135.171603 
L 213.866247 135.171603 
z
" clip-path="url(#p0ced4e3fce)" style="fill: #1f77b4"/>
   </g>
   <g id="patch_52">
    <path d="M 216.879748 252 
L 219.893249 252 
L 219.893249 132.219261 
L 216.879748 132.219261 
z
" clip-path="url(#p0ced4e3fce)" style="fill: #1f77b4"/>
   </g>
   <g id="patch_53">
    <path d="M 219.893249 252 
L 222.906751 252 
L 222.906751 132.641024 
L 219.893249 132.641024 
z
" clip-path="url(#p0ced4e3fce)" style="fill: #1f77b4"/>
   </g>
   <g id="patch_54">
    <path d="M 222.906751 252 
L 225.920252 252 
L 225.920252 124.205761 
L 222.906751 124.205761 
z
" clip-path="url(#p0ced4e3fce)" style="fill: #1f77b4"/>
   </g>
   <g id="patch_55">
    <path d="M 225.920252 252 
L 228.933753 252 
L 228.933753 124.205761 
L 225.920252 124.205761 
z
" clip-path="url(#p0ced4e3fce)" style="fill: #1f77b4"/>
   </g>
   <g id="patch_56">
    <path d="M 228.933753 252 
L 231.947255 252 
L 231.947255 128.423392 
L 228.933753 128.423392 
z
" clip-path="url(#p0ced4e3fce)" style="fill: #1f77b4"/>
   </g>
   <g id="patch_57">
    <path d="M 231.947255 252 
L 234.960756 252 
L 234.960756 112.818155 
L 231.947255 112.818155 
z
" clip-path="url(#p0ced4e3fce)" style="fill: #1f77b4"/>
   </g>
   <g id="patch_58">
    <path d="M 234.960756 252 
L 237.974257 252 
L 237.974257 127.158103 
L 234.960756 127.158103 
z
" clip-path="url(#p0ced4e3fce)" style="fill: #1f77b4"/>
   </g>
   <g id="patch_59">
    <path d="M 237.974257 252 
L 240.987759 252 
L 240.987759 111.974629 
L 237.974257 111.974629 
z
" clip-path="url(#p0ced4e3fce)" style="fill: #1f77b4"/>
   </g>
   <g id="patch_60">
    <path d="M 240.987759 252 
L 244.00126 252 
L 244.00126 120.831656 
L 240.987759 120.831656 
z
" clip-path="url(#p0ced4e3fce)" style="fill: #1f77b4"/>
   </g>
   <g id="patch_61">
    <path d="M 244.00126 252 
L 247.014761 252 
L 247.014761 114.505208 
L 244.00126 114.505208 
z
" clip-path="url(#p0ced4e3fce)" style="fill: #1f77b4"/>
   </g>
   <g id="patch_62">
    <path d="M 247.014761 252 
L 250.028263 252 
L 250.028263 88.355892 
L 247.014761 88.355892 
z
" clip-path="url(#p0ced4e3fce)" style="fill: #1f77b4"/>
   </g>
   <g id="patch_63">
    <path d="M 250.028263 252 
L 253.041764 252 
L 253.041764 114.926971 
L 250.028263 114.926971 
z
" clip-path="url(#p0ced4e3fce)" style="fill: #1f77b4"/>
   </g>
   <g id="patch_64">
    <path d="M 253.041764 252 
L 256.055266 252 
L 256.055266 100.16526 
L 253.041764 100.16526 
z
" clip-path="url(#p0ced4e3fce)" style="fill: #1f77b4"/>
   </g>
   <g id="patch_65">
    <path d="M 256.055266 252 
L 259.068767 252 
L 259.068767 84.560023 
L 256.055266 84.560023 
z
" clip-path="url(#p0ced4e3fce)" style="fill: #1f77b4"/>
   </g>
   <g id="patch_66">
    <path d="M 259.068767 252 
L 262.082268 252 
L 262.082268 102.274076 
L 259.068767 102.274076 
z
" clip-path="url(#p0ced4e3fce)" style="fill: #1f77b4"/>
   </g>
   <g id="patch_67">
    <path d="M 262.082268 252 
L 265.09577 252 
L 265.09577 112.818155 
L 262.082268 112.818155 
z
" clip-path="url(#p0ced4e3fce)" style="fill: #1f77b4"/>
   </g>
   <g id="patch_68">
    <path d="M 265.09577 252 
L 268.109271 252 
L 268.109271 101.852313 
L 265.09577 101.852313 
z
" clip-path="url(#p0ced4e3fce)" style="fill: #1f77b4"/>
   </g>
   <g id="patch_69">
    <path d="M 268.109271 252 
L 271.122772 252 
L 271.122772 105.648182 
L 268.109271 105.648182 
z
" clip-path="url(#p0ced4e3fce)" style="fill: #1f77b4"/>
   </g>
   <g id="patch_70">
    <path d="M 271.122772 252 
L 274.136274 252 
L 274.136274 114.926971 
L 271.122772 114.926971 
z
" clip-path="url(#p0ced4e3fce)" style="fill: #1f77b4"/>
   </g>
   <g id="patch_71">
    <path d="M 274.136274 252 
L 277.149775 252 
L 277.149775 125.049287 
L 274.136274 125.049287 
z
" clip-path="url(#p0ced4e3fce)" style="fill: #1f77b4"/>
   </g>
   <g id="patch_72">
    <path d="M 277.149775 252 
L 280.163276 252 
L 280.163276 128.423392 
L 277.149775 128.423392 
z
" clip-path="url(#p0ced4e3fce)" style="fill: #1f77b4"/>
   </g>
   <g id="patch_73">
    <path d="M 280.163276 252 
L 283.176778 252 
L 283.176778 148.668024 
L 280.163276 148.668024 
z
" clip-path="url(#p0ced4e3fce)" style="fill: #1f77b4"/>
   </g>
   <g id="patch_74">
    <path d="M 283.176778 252 
L 286.190279 252 
L 286.190279 144.02863 
L 283.176778 144.02863 
z
" clip-path="url(#p0ced4e3fce)" style="fill: #1f77b4"/>
   </g>
   <g id="patch_75">
    <path d="M 286.190279 252 
L 289.20378 252 
L 289.20378 166.803841 
L 286.190279 166.803841 
z
" clip-path="url(#p0ced4e3fce)" style="fill: #1f77b4"/>
   </g>
   <g id="patch_76">
    <path d="M 289.20378 252 
L 292.217282 252 
L 292.217282 174.817341 
L 289.20378 174.817341 
z
" clip-path="url(#p0ced4e3fce)" style="fill: #1f77b4"/>
   </g>
   <g id="patch_77">
    <path d="M 292.217282 252 
L 295.230783 252 
L 295.230783 166.803841 
L 292.217282 166.803841 
z
" clip-path="url(#p0ced4e3fce)" style="fill: #1f77b4"/>
   </g>
   <g id="patch_78">
    <path d="M 295.230783 252 
L 298.244284 252 
L 298.244284 184.939657 
L 295.230783 184.939657 
z
" clip-path="url(#p0ced4e3fce)" style="fill: #1f77b4"/>
   </g>
   <g id="patch_79">
    <path d="M 298.244284 252 
L 301.257786 252 
L 301.257786 190.844341 
L 298.244284 190.844341 
z
" clip-path="url(#p0ced4e3fce)" style="fill: #1f77b4"/>
   </g>
   <g id="patch_80">
    <path d="M 301.257786 252 
L 304.271287 252 
L 304.271287 195.061973 
L 301.257786 195.061973 
z
" clip-path="url(#p0ced4e3fce)" style="fill: #1f77b4"/>
   </g>
   <g id="patch_81">
    <path d="M 304.271287 252 
L 307.284788 252 
L 307.284788 212.354262 
L 304.271287 212.354262 
z
" clip-path="url(#p0ced4e3fce)" style="fill: #1f77b4"/>
   </g>
   <g id="patch_82">
    <path d="M 307.284788 252 
L 310.29829 252 
L 310.29829 214.884841 
L 307.284788 214.884841 
z
" clip-path="url(#p0ced4e3fce)" style="fill: #1f77b4"/>
   </g>
   <g id="patch_83">
    <path d="M 310.29829 252 
L 313.311791 252 
L 313.311791 219.524236 
L 310.29829 219.524236 
z
" clip-path="url(#p0ced4e3fce)" style="fill: #1f77b4"/>
   </g>
   <g id="patch_84">
    <path d="M 313.311791 252 
L 316.325293 252 
L 316.325293 222.054815 
L 313.311791 222.054815 
z
" clip-path="url(#p0ced4e3fce)" style="fill: #1f77b4"/>
   </g>
   <g id="patch_85">
    <path d="M 316.325293 252 
L 319.338794 252 
L 319.338794 228.381263 
L 316.325293 228.381263 
z
" clip-path="url(#p0ced4e3fce)" style="fill: #1f77b4"/>
   </g>
   <g id="patch_86">
    <path d="M 319.338794 252 
L 322.352295 252 
L 322.352295 232.177131 
L 319.338794 232.177131 
z
" clip-path="url(#p0ced4e3fce)" style="fill: #1f77b4"/>
   </g>
   <g id="patch_87">
    <path d="M 322.352295 252 
L 325.365797 252 
L 325.365797 236.816526 
L 322.352295 236.816526 
z
" clip-path="url(#p0ced4e3fce)" style="fill: #1f77b4"/>
   </g>
   <g id="patch_88">
    <path d="M 325.365797 252 
L 328.379298 252 
L 328.379298 236.394763 
L 325.365797 236.394763 
z
" clip-path="url(#p0ced4e3fce)" style="fill: #1f77b4"/>
   </g>
   <g id="patch_89">
    <path d="M 328.379298 252 
L 331.392799 252 
L 331.392799 244.408263 
L 328.379298 244.408263 
z
" clip-path="url(#p0ced4e3fce)" style="fill: #1f77b4"/>
   </g>
   <g id="patch_90">
    <path d="M 331.392799 252 
L 334.406301 252 
L 334.406301 244.408263 
L 331.392799 244.408263 
z
" clip-path="url(#p0ced4e3fce)" style="fill: #1f77b4"/>
   </g>
   <g id="patch_91">
    <path d="M 334.406301 252 
L 337.419802 252 
L 337.419802 249.469421 
L 334.406301 249.469421 
z
" clip-path="url(#p0ced4e3fce)" style="fill: #1f77b4"/>
   </g>
   <g id="patch_92">
    <path d="M 337.419802 252 
L 340.433303 252 
L 340.433303 246.517079 
L 337.419802 246.517079 
z
" clip-path="url(#p0ced4e3fce)" style="fill: #1f77b4"/>
   </g>
   <g id="patch_93">
    <path d="M 340.433303 252 
L 343.446805 252 
L 343.446805 247.360605 
L 340.433303 247.360605 
z
" clip-path="url(#p0ced4e3fce)" style="fill: #1f77b4"/>
   </g>
   <g id="patch_94">
    <path d="M 343.446805 252 
L 346.460306 252 
L 346.460306 248.204132 
L 343.446805 248.204132 
z
" clip-path="url(#p0ced4e3fce)" style="fill: #1f77b4"/>
   </g>
   <g id="patch_95">
    <path d="M 346.460306 252 
L 349.473807 252 
L 349.473807 250.312947 
L 346.460306 250.312947 
z
" clip-path="url(#p0ced4e3fce)" style="fill: #1f77b4"/>
   </g>
   <g id="patch_96">
    <path d="M 349.473807 252 
L 352.487309 252 
L 352.487309 247.782368 
L 349.473807 247.782368 
z
" clip-path="url(#p0ced4e3fce)" style="fill: #1f77b4"/>
   </g>
   <g id="patch_97">
    <path d="M 352.487309 252 
L 355.50081 252 
L 355.50081 250.312947 
L 352.487309 250.312947 
z
" clip-path="url(#p0ced4e3fce)" style="fill: #1f77b4"/>
   </g>
   <g id="patch_98">
    <path d="M 355.50081 252 
L 358.514311 252 
L 358.514311 250.734711 
L 355.50081 250.734711 
z
" clip-path="url(#p0ced4e3fce)" style="fill: #1f77b4"/>
   </g>
   <g id="patch_99">
    <path d="M 358.514311 252 
L 361.527813 252 
L 361.527813 252 
L 358.514311 252 
z
" clip-path="url(#p0ced4e3fce)" style="fill: #1f77b4"/>
   </g>
   <g id="patch_100">
    <path d="M 361.527813 252 
L 364.541314 252 
L 364.541314 251.156474 
L 361.527813 251.156474 
z
" clip-path="url(#p0ced4e3fce)" style="fill: #1f77b4"/>
   </g>
   <g id="patch_101">
    <path d="M 364.541314 252 
L 367.554815 252 
L 367.554815 251.578237 
L 364.541314 251.578237 
z
" clip-path="url(#p0ced4e3fce)" style="fill: #1f77b4"/>
   </g>
   <g id="patch_102">
    <path d="M 367.554815 252 
L 370.568317 252 
L 370.568317 251.578237 
L 367.554815 251.578237 
z
" clip-path="url(#p0ced4e3fce)" style="fill: #1f77b4"/>
   </g>
   <g id="patch_103">
    <path d="M 370.568317 252 
L 373.581818 252 
L 373.581818 250.734711 
L 370.568317 250.734711 
z
" clip-path="url(#p0ced4e3fce)" style="fill: #1f77b4"/>
   </g>
   <g id="matplotlib.axis_1">
    <g id="xtick_1">
     <g id="line2d_1">
      <path d="M 73.460306 252 
L 73.460306 34.56 
" clip-path="url(#p0ced4e3fce)" style="fill: none; stroke: #b0b0b0; stroke-width: 0.8; stroke-linecap: square"/>
     </g>
     <g id="line2d_2">
      <defs>
       <path id="m4724cac8d9" d="M 0 0 
L 0 3.5 
" style="stroke: #000000; stroke-width: 0.8"/>
      </defs>
      <g>
       <use xlink:href="#m4724cac8d9" x="73.460306" y="252" style="stroke: #000000; stroke-width: 0.8"/>
      </g>
     </g>
     <g id="text_1">
      <!-- −2 -->
      <g transform="translate(66.089212 266.598437) scale(0.1 -0.1)">
       <defs>
        <path id="DejaVuSans-2212" d="M 678 2272 
L 4684 2272 
L 4684 1741 
L 678 1741 
L 678 2272 
z
" transform="scale(0.015625)"/>
        <path id="DejaVuSans-32" d="M 1228 531 
L 3431 531 
L 3431 0 
L 469 0 
L 469 531 
Q 828 903 1448 1529 
Q 2069 2156 2228 2338 
Q 2531 2678 2651 2914 
Q 2772 3150 2772 3378 
Q 2772 3750 2511 3984 
Q 2250 4219 1831 4219 
Q 1534 4219 1204 4116 
Q 875 4013 500 3803 
L 500 4441 
Q 881 4594 1212 4672 
Q 1544 4750 1819 4750 
Q 2544 4750 2975 4387 
Q 3406 4025 3406 3419 
Q 3406 3131 3298 2873 
Q 3191 2616 2906 2266 
Q 2828 2175 2409 1742 
Q 1991 1309 1228 531 
z
" transform="scale(0.015625)"/>
       </defs>
       <use xlink:href="#DejaVuSans-2212"/>
       <use xlink:href="#DejaVuSans-32" x="83.789062"/>
      </g>
     </g>
    </g>
    <g id="xtick_2">
     <g id="line2d_3">
      <path d="M 115.422963 252 
L 115.422963 34.56 
" clip-path="url(#p0ced4e3fce)" style="fill: none; stroke: #b0b0b0; stroke-width: 0.8; stroke-linecap: square"/>
     </g>
     <g id="line2d_4">
      <g>
       <use xlink:href="#m4724cac8d9" x="115.422963" y="252" style="stroke: #000000; stroke-width: 0.8"/>
      </g>
     </g>
     <g id="text_2">
      <!-- 0 -->
      <g transform="translate(112.241713 266.598437) scale(0.1 -0.1)">
       <defs>
        <path id="DejaVuSans-30" d="M 2034 4250 
Q 1547 4250 1301 3770 
Q 1056 3291 1056 2328 
Q 1056 1369 1301 889 
Q 1547 409 2034 409 
Q 2525 409 2770 889 
Q 3016 1369 3016 2328 
Q 3016 3291 2770 3770 
Q 2525 4250 2034 4250 
z
M 2034 4750 
Q 2819 4750 3233 4129 
Q 3647 3509 3647 2328 
Q 3647 1150 3233 529 
Q 2819 -91 2034 -91 
Q 1250 -91 836 529 
Q 422 1150 422 2328 
Q 422 3509 836 4129 
Q 1250 4750 2034 4750 
z
" transform="scale(0.015625)"/>
       </defs>
       <use xlink:href="#DejaVuSans-30"/>
      </g>
     </g>
    </g>
    <g id="xtick_3">
     <g id="line2d_5">
      <path d="M 157.38562 252 
L 157.38562 34.56 
" clip-path="url(#p0ced4e3fce)" style="fill: none; stroke: #b0b0b0; stroke-width: 0.8; stroke-linecap: square"/>
     </g>
     <g id="line2d_6">
      <g>
       <use xlink:href="#m4724cac8d9" x="157.38562" y="252" style="stroke: #000000; stroke-width: 0.8"/>
      </g>
     </g>
     <g id="text_3">
      <!-- 2 -->
      <g transform="translate(154.20437 266.598437) scale(0.1 -0.1)">
       <use xlink:href="#DejaVuSans-32"/>
      </g>
     </g>
    </g>
    <g id="xtick_4">
     <g id="line2d_7">
      <path d="M 199.348278 252 
L 199.348278 34.56 
" clip-path="url(#p0ced4e3fce)" style="fill: none; stroke: #b0b0b0; stroke-width: 0.8; stroke-linecap: square"/>
     </g>
     <g id="line2d_8">
      <g>
       <use xlink:href="#m4724cac8d9" x="199.348278" y="252" style="stroke: #000000; stroke-width: 0.8"/>
      </g>
     </g>
     <g id="text_4">
      <!-- 4 -->
      <g transform="translate(196.167028 266.598437) scale(0.1 -0.1)">
       <defs>
        <path id="DejaVuSans-34" d="M 2419 4116 
L 825 1625 
L 2419 1625 
L 2419 4116 
z
M 2253 4666 
L 3047 4666 
L 3047 1625 
L 3713 1625 
L 3713 1100 
L 3047 1100 
L 3047 0 
L 2419 0 
L 2419 1100 
L 313 1100 
L 313 1709 
L 2253 4666 
z
" transform="scale(0.015625)"/>
       </defs>
       <use xlink:href="#DejaVuSans-34"/>
      </g>
     </g>
    </g>
    <g id="xtick_5">
     <g id="line2d_9">
      <path d="M 241.310935 252 
L 241.310935 34.56 
" clip-path="url(#p0ced4e3fce)" style="fill: none; stroke: #b0b0b0; stroke-width: 0.8; stroke-linecap: square"/>
     </g>
     <g id="line2d_10">
      <g>
       <use xlink:href="#m4724cac8d9" x="241.310935" y="252" style="stroke: #000000; stroke-width: 0.8"/>
      </g>
     </g>
     <g id="text_5">
      <!-- 6 -->
      <g transform="translate(238.129685 266.598437) scale(0.1 -0.1)">
       <defs>
        <path id="DejaVuSans-36" d="M 2113 2584 
Q 1688 2584 1439 2293 
Q 1191 2003 1191 1497 
Q 1191 994 1439 701 
Q 1688 409 2113 409 
Q 2538 409 2786 701 
Q 3034 994 3034 1497 
Q 3034 2003 2786 2293 
Q 2538 2584 2113 2584 
z
M 3366 4563 
L 3366 3988 
Q 3128 4100 2886 4159 
Q 2644 4219 2406 4219 
Q 1781 4219 1451 3797 
Q 1122 3375 1075 2522 
Q 1259 2794 1537 2939 
Q 1816 3084 2150 3084 
Q 2853 3084 3261 2657 
Q 3669 2231 3669 1497 
Q 3669 778 3244 343 
Q 2819 -91 2113 -91 
Q 1303 -91 875 529 
Q 447 1150 447 2328 
Q 447 3434 972 4092 
Q 1497 4750 2381 4750 
Q 2619 4750 2861 4703 
Q 3103 4656 3366 4563 
z
" transform="scale(0.015625)"/>
       </defs>
       <use xlink:href="#DejaVuSans-36"/>
      </g>
     </g>
    </g>
    <g id="xtick_6">
     <g id="line2d_11">
      <path d="M 283.273593 252 
L 283.273593 34.56 
" clip-path="url(#p0ced4e3fce)" style="fill: none; stroke: #b0b0b0; stroke-width: 0.8; stroke-linecap: square"/>
     </g>
     <g id="line2d_12">
      <g>
       <use xlink:href="#m4724cac8d9" x="283.273593" y="252" style="stroke: #000000; stroke-width: 0.8"/>
      </g>
     </g>
     <g id="text_6">
      <!-- 8 -->
      <g transform="translate(280.092343 266.598437) scale(0.1 -0.1)">
       <defs>
        <path id="DejaVuSans-38" d="M 2034 2216 
Q 1584 2216 1326 1975 
Q 1069 1734 1069 1313 
Q 1069 891 1326 650 
Q 1584 409 2034 409 
Q 2484 409 2743 651 
Q 3003 894 3003 1313 
Q 3003 1734 2745 1975 
Q 2488 2216 2034 2216 
z
M 1403 2484 
Q 997 2584 770 2862 
Q 544 3141 544 3541 
Q 544 4100 942 4425 
Q 1341 4750 2034 4750 
Q 2731 4750 3128 4425 
Q 3525 4100 3525 3541 
Q 3525 3141 3298 2862 
Q 3072 2584 2669 2484 
Q 3125 2378 3379 2068 
Q 3634 1759 3634 1313 
Q 3634 634 3220 271 
Q 2806 -91 2034 -91 
Q 1263 -91 848 271 
Q 434 634 434 1313 
Q 434 1759 690 2068 
Q 947 2378 1403 2484 
z
M 1172 3481 
Q 1172 3119 1398 2916 
Q 1625 2713 2034 2713 
Q 2441 2713 2670 2916 
Q 2900 3119 2900 3481 
Q 2900 3844 2670 4047 
Q 2441 4250 2034 4250 
Q 1625 4250 1398 4047 
Q 1172 3844 1172 3481 
z
" transform="scale(0.015625)"/>
       </defs>
       <use xlink:href="#DejaVuSans-38"/>
      </g>
     </g>
    </g>
    <g id="xtick_7">
     <g id="line2d_13">
      <path d="M 325.23625 252 
L 325.23625 34.56 
" clip-path="url(#p0ced4e3fce)" style="fill: none; stroke: #b0b0b0; stroke-width: 0.8; stroke-linecap: square"/>
     </g>
     <g id="line2d_14">
      <g>
       <use xlink:href="#m4724cac8d9" x="325.23625" y="252" style="stroke: #000000; stroke-width: 0.8"/>
      </g>
     </g>
     <g id="text_7">
      <!-- 10 -->
      <g transform="translate(318.87375 266.598437) scale(0.1 -0.1)">
       <defs>
        <path id="DejaVuSans-31" d="M 794 531 
L 1825 531 
L 1825 4091 
L 703 3866 
L 703 4441 
L 1819 4666 
L 2450 4666 
L 2450 531 
L 3481 531 
L 3481 0 
L 794 0 
L 794 531 
z
" transform="scale(0.015625)"/>
       </defs>
       <use xlink:href="#DejaVuSans-31"/>
       <use xlink:href="#DejaVuSans-30" x="63.623047"/>
      </g>
     </g>
    </g>
    <g id="xtick_8">
     <g id="line2d_15">
      <path d="M 367.198908 252 
L 367.198908 34.56 
" clip-path="url(#p0ced4e3fce)" style="fill: none; stroke: #b0b0b0; stroke-width: 0.8; stroke-linecap: square"/>
     </g>
     <g id="line2d_16">
      <g>
       <use xlink:href="#m4724cac8d9" x="367.198908" y="252" style="stroke: #000000; stroke-width: 0.8"/>
      </g>
     </g>
     <g id="text_8">
      <!-- 12 -->
      <g transform="translate(360.836408 266.598437) scale(0.1 -0.1)">
       <use xlink:href="#DejaVuSans-31"/>
       <use xlink:href="#DejaVuSans-32" x="63.623047"/>
      </g>
     </g>
    </g>
   </g>
   <g id="matplotlib.axis_2">
    <g id="ytick_1">
     <g id="line2d_17">
      <path d="M 54 252 
L 388.8 252 
" clip-path="url(#p0ced4e3fce)" style="fill: none; stroke: #b0b0b0; stroke-width: 0.8; stroke-linecap: square"/>
     </g>
     <g id="line2d_18">
      <defs>
       <path id="m8682f80494" d="M 0 0 
L -3.5 0 
" style="stroke: #000000; stroke-width: 0.8"/>
      </defs>
      <g>
       <use xlink:href="#m8682f80494" x="54" y="252" style="stroke: #000000; stroke-width: 0.8"/>
      </g>
     </g>
     <g id="text_9">
      <!-- 0 -->
      <g transform="translate(40.6375 255.799219) scale(0.1 -0.1)">
       <use xlink:href="#DejaVuSans-30"/>
      </g>
     </g>
    </g>
    <g id="ytick_2">
     <g id="line2d_19">
      <path d="M 54 209.823683 
L 388.8 209.823683 
" clip-path="url(#p0ced4e3fce)" style="fill: none; stroke: #b0b0b0; stroke-width: 0.8; stroke-linecap: square"/>
     </g>
     <g id="line2d_20">
      <g>
       <use xlink:href="#m8682f80494" x="54" y="209.823683" style="stroke: #000000; stroke-width: 0.8"/>
      </g>
     </g>
     <g id="text_10">
      <!-- 100 -->
      <g transform="translate(27.9125 213.622902) scale(0.1 -0.1)">
       <use xlink:href="#DejaVuSans-31"/>
       <use xlink:href="#DejaVuSans-30" x="63.623047"/>
       <use xlink:href="#DejaVuSans-30" x="127.246094"/>
      </g>
     </g>
    </g>
    <g id="ytick_3">
     <g id="line2d_21">
      <path d="M 54 167.647367 
L 388.8 167.647367 
" clip-path="url(#p0ced4e3fce)" style="fill: none; stroke: #b0b0b0; stroke-width: 0.8; stroke-linecap: square"/>
     </g>
     <g id="line2d_22">
      <g>
       <use xlink:href="#m8682f80494" x="54" y="167.647367" style="stroke: #000000; stroke-width: 0.8"/>
      </g>
     </g>
     <g id="text_11">
      <!-- 200 -->
      <g transform="translate(27.9125 171.446586) scale(0.1 -0.1)">
       <use xlink:href="#DejaVuSans-32"/>
       <use xlink:href="#DejaVuSans-30" x="63.623047"/>
       <use xlink:href="#DejaVuSans-30" x="127.246094"/>
      </g>
     </g>
    </g>
    <g id="ytick_4">
     <g id="line2d_23">
      <path d="M 54 125.47105 
L 388.8 125.47105 
" clip-path="url(#p0ced4e3fce)" style="fill: none; stroke: #b0b0b0; stroke-width: 0.8; stroke-linecap: square"/>
     </g>
     <g id="line2d_24">
      <g>
       <use xlink:href="#m8682f80494" x="54" y="125.47105" style="stroke: #000000; stroke-width: 0.8"/>
      </g>
     </g>
     <g id="text_12">
      <!-- 300 -->
      <g transform="translate(27.9125 129.270269) scale(0.1 -0.1)">
       <defs>
        <path id="DejaVuSans-33" d="M 2597 2516 
Q 3050 2419 3304 2112 
Q 3559 1806 3559 1356 
Q 3559 666 3084 287 
Q 2609 -91 1734 -91 
Q 1441 -91 1130 -33 
Q 819 25 488 141 
L 488 750 
Q 750 597 1062 519 
Q 1375 441 1716 441 
Q 2309 441 2620 675 
Q 2931 909 2931 1356 
Q 2931 1769 2642 2001 
Q 2353 2234 1838 2234 
L 1294 2234 
L 1294 2753 
L 1863 2753 
Q 2328 2753 2575 2939 
Q 2822 3125 2822 3475 
Q 2822 3834 2567 4026 
Q 2313 4219 1838 4219 
Q 1578 4219 1281 4162 
Q 984 4106 628 3988 
L 628 4550 
Q 988 4650 1302 4700 
Q 1616 4750 1894 4750 
Q 2613 4750 3031 4423 
Q 3450 4097 3450 3541 
Q 3450 3153 3228 2886 
Q 3006 2619 2597 2516 
z
" transform="scale(0.015625)"/>
       </defs>
       <use xlink:href="#DejaVuSans-33"/>
       <use xlink:href="#DejaVuSans-30" x="63.623047"/>
       <use xlink:href="#DejaVuSans-30" x="127.246094"/>
      </g>
     </g>
    </g>
    <g id="ytick_5">
     <g id="line2d_25">
      <path d="M 54 83.294734 
L 388.8 83.294734 
" clip-path="url(#p0ced4e3fce)" style="fill: none; stroke: #b0b0b0; stroke-width: 0.8; stroke-linecap: square"/>
     </g>
     <g id="line2d_26">
      <g>
       <use xlink:href="#m8682f80494" x="54" y="83.294734" style="stroke: #000000; stroke-width: 0.8"/>
      </g>
     </g>
     <g id="text_13">
      <!-- 400 -->
      <g transform="translate(27.9125 87.093953) scale(0.1 -0.1)">
       <use xlink:href="#DejaVuSans-34"/>
       <use xlink:href="#DejaVuSans-30" x="63.623047"/>
       <use xlink:href="#DejaVuSans-30" x="127.246094"/>
      </g>
     </g>
    </g>
    <g id="ytick_6">
     <g id="line2d_27">
      <path d="M 54 41.118417 
L 388.8 41.118417 
" clip-path="url(#p0ced4e3fce)" style="fill: none; stroke: #b0b0b0; stroke-width: 0.8; stroke-linecap: square"/>
     </g>
     <g id="line2d_28">
      <g>
       <use xlink:href="#m8682f80494" x="54" y="41.118417" style="stroke: #000000; stroke-width: 0.8"/>
      </g>
     </g>
     <g id="text_14">
      <!-- 500 -->
      <g transform="translate(27.9125 44.917636) scale(0.1 -0.1)">
       <defs>
        <path id="DejaVuSans-35" d="M 691 4666 
L 3169 4666 
L 3169 4134 
L 1269 4134 
L 1269 2991 
Q 1406 3038 1543 3061 
Q 1681 3084 1819 3084 
Q 2600 3084 3056 2656 
Q 3513 2228 3513 1497 
Q 3513 744 3044 326 
Q 2575 -91 1722 -91 
Q 1428 -91 1123 -41 
Q 819 9 494 109 
L 494 744 
Q 775 591 1075 516 
Q 1375 441 1709 441 
Q 2250 441 2565 725 
Q 2881 1009 2881 1497 
Q 2881 1984 2565 2268 
Q 2250 2553 1709 2553 
Q 1456 2553 1204 2497 
Q 953 2441 691 2322 
L 691 4666 
z
" transform="scale(0.015625)"/>
       </defs>
       <use xlink:href="#DejaVuSans-35"/>
       <use xlink:href="#DejaVuSans-30" x="63.623047"/>
       <use xlink:href="#DejaVuSans-30" x="127.246094"/>
      </g>
     </g>
    </g>
   </g>
   <g id="line2d_29">
    <path d="M 222.706869 252 
L 222.706869 209.823683 
" clip-path="url(#p0ced4e3fce)" style="fill: none; stroke: #ff0000; stroke-width: 1.5; stroke-linecap: square"/>
   </g>
   <g id="patch_104">
    <path d="M 54 252 
L 54 34.56 
" style="fill: none; stroke: #000000; stroke-width: 0.8; stroke-linejoin: miter; stroke-linecap: square"/>
   </g>
   <g id="patch_105">
    <path d="M 388.8 252 
L 388.8 34.56 
" style="fill: none; stroke: #000000; stroke-width: 0.8; stroke-linejoin: miter; stroke-linecap: square"/>
   </g>
   <g id="patch_106">
    <path d="M 54 252 
L 388.8 252 
" style="fill: none; stroke: #000000; stroke-width: 0.8; stroke-linejoin: miter; stroke-linecap: square"/>
   </g>
   <g id="patch_107">
    <path d="M 54 34.56 
L 388.8 34.56 
" style="fill: none; stroke: #000000; stroke-width: 0.8; stroke-linejoin: miter; stroke-linecap: square"/>
   </g>
   <g id="text_15">
    <!-- Carlyle Tactical Private Credit Fund -->
    <g transform="translate(117.055313 28.56) scale(0.12 -0.12)">
     <defs>
      <path id="DejaVuSans-43" d="M 4122 4306 
L 4122 3641 
Q 3803 3938 3442 4084 
Q 3081 4231 2675 4231 
Q 1875 4231 1450 3742 
Q 1025 3253 1025 2328 
Q 1025 1406 1450 917 
Q 1875 428 2675 428 
Q 3081 428 3442 575 
Q 3803 722 4122 1019 
L 4122 359 
Q 3791 134 3420 21 
Q 3050 -91 2638 -91 
Q 1578 -91 968 557 
Q 359 1206 359 2328 
Q 359 3453 968 4101 
Q 1578 4750 2638 4750 
Q 3056 4750 3426 4639 
Q 3797 4528 4122 4306 
z
" transform="scale(0.015625)"/>
      <path id="DejaVuSans-61" d="M 2194 1759 
Q 1497 1759 1228 1600 
Q 959 1441 959 1056 
Q 959 750 1161 570 
Q 1363 391 1709 391 
Q 2188 391 2477 730 
Q 2766 1069 2766 1631 
L 2766 1759 
L 2194 1759 
z
M 3341 1997 
L 3341 0 
L 2766 0 
L 2766 531 
Q 2569 213 2275 61 
Q 1981 -91 1556 -91 
Q 1019 -91 701 211 
Q 384 513 384 1019 
Q 384 1609 779 1909 
Q 1175 2209 1959 2209 
L 2766 2209 
L 2766 2266 
Q 2766 2663 2505 2880 
Q 2244 3097 1772 3097 
Q 1472 3097 1187 3025 
Q 903 2953 641 2809 
L 641 3341 
Q 956 3463 1253 3523 
Q 1550 3584 1831 3584 
Q 2591 3584 2966 3190 
Q 3341 2797 3341 1997 
z
" transform="scale(0.015625)"/>
      <path id="DejaVuSans-72" d="M 2631 2963 
Q 2534 3019 2420 3045 
Q 2306 3072 2169 3072 
Q 1681 3072 1420 2755 
Q 1159 2438 1159 1844 
L 1159 0 
L 581 0 
L 581 3500 
L 1159 3500 
L 1159 2956 
Q 1341 3275 1631 3429 
Q 1922 3584 2338 3584 
Q 2397 3584 2469 3576 
Q 2541 3569 2628 3553 
L 2631 2963 
z
" transform="scale(0.015625)"/>
      <path id="DejaVuSans-6c" d="M 603 4863 
L 1178 4863 
L 1178 0 
L 603 0 
L 603 4863 
z
" transform="scale(0.015625)"/>
      <path id="DejaVuSans-79" d="M 2059 -325 
Q 1816 -950 1584 -1140 
Q 1353 -1331 966 -1331 
L 506 -1331 
L 506 -850 
L 844 -850 
Q 1081 -850 1212 -737 
Q 1344 -625 1503 -206 
L 1606 56 
L 191 3500 
L 800 3500 
L 1894 763 
L 2988 3500 
L 3597 3500 
L 2059 -325 
z
" transform="scale(0.015625)"/>
      <path id="DejaVuSans-65" d="M 3597 1894 
L 3597 1613 
L 953 1613 
Q 991 1019 1311 708 
Q 1631 397 2203 397 
Q 2534 397 2845 478 
Q 3156 559 3463 722 
L 3463 178 
Q 3153 47 2828 -22 
Q 2503 -91 2169 -91 
Q 1331 -91 842 396 
Q 353 884 353 1716 
Q 353 2575 817 3079 
Q 1281 3584 2069 3584 
Q 2775 3584 3186 3129 
Q 3597 2675 3597 1894 
z
M 3022 2063 
Q 3016 2534 2758 2815 
Q 2500 3097 2075 3097 
Q 1594 3097 1305 2825 
Q 1016 2553 972 2059 
L 3022 2063 
z
" transform="scale(0.015625)"/>
      <path id="DejaVuSans-20" transform="scale(0.015625)"/>
      <path id="DejaVuSans-54" d="M -19 4666 
L 3928 4666 
L 3928 4134 
L 2272 4134 
L 2272 0 
L 1638 0 
L 1638 4134 
L -19 4134 
L -19 4666 
z
" transform="scale(0.015625)"/>
      <path id="DejaVuSans-63" d="M 3122 3366 
L 3122 2828 
Q 2878 2963 2633 3030 
Q 2388 3097 2138 3097 
Q 1578 3097 1268 2742 
Q 959 2388 959 1747 
Q 959 1106 1268 751 
Q 1578 397 2138 397 
Q 2388 397 2633 464 
Q 2878 531 3122 666 
L 3122 134 
Q 2881 22 2623 -34 
Q 2366 -91 2075 -91 
Q 1284 -91 818 406 
Q 353 903 353 1747 
Q 353 2603 823 3093 
Q 1294 3584 2113 3584 
Q 2378 3584 2631 3529 
Q 2884 3475 3122 3366 
z
" transform="scale(0.015625)"/>
      <path id="DejaVuSans-74" d="M 1172 4494 
L 1172 3500 
L 2356 3500 
L 2356 3053 
L 1172 3053 
L 1172 1153 
Q 1172 725 1289 603 
Q 1406 481 1766 481 
L 2356 481 
L 2356 0 
L 1766 0 
Q 1100 0 847 248 
Q 594 497 594 1153 
L 594 3053 
L 172 3053 
L 172 3500 
L 594 3500 
L 594 4494 
L 1172 4494 
z
" transform="scale(0.015625)"/>
      <path id="DejaVuSans-69" d="M 603 3500 
L 1178 3500 
L 1178 0 
L 603 0 
L 603 3500 
z
M 603 4863 
L 1178 4863 
L 1178 4134 
L 603 4134 
L 603 4863 
z
" transform="scale(0.015625)"/>
      <path id="DejaVuSans-50" d="M 1259 4147 
L 1259 2394 
L 2053 2394 
Q 2494 2394 2734 2622 
Q 2975 2850 2975 3272 
Q 2975 3691 2734 3919 
Q 2494 4147 2053 4147 
L 1259 4147 
z
M 628 4666 
L 2053 4666 
Q 2838 4666 3239 4311 
Q 3641 3956 3641 3272 
Q 3641 2581 3239 2228 
Q 2838 1875 2053 1875 
L 1259 1875 
L 1259 0 
L 628 0 
L 628 4666 
z
" transform="scale(0.015625)"/>
      <path id="DejaVuSans-76" d="M 191 3500 
L 800 3500 
L 1894 563 
L 2988 3500 
L 3597 3500 
L 2284 0 
L 1503 0 
L 191 3500 
z
" transform="scale(0.015625)"/>
      <path id="DejaVuSans-64" d="M 2906 2969 
L 2906 4863 
L 3481 4863 
L 3481 0 
L 2906 0 
L 2906 525 
Q 2725 213 2448 61 
Q 2172 -91 1784 -91 
Q 1150 -91 751 415 
Q 353 922 353 1747 
Q 353 2572 751 3078 
Q 1150 3584 1784 3584 
Q 2172 3584 2448 3432 
Q 2725 3281 2906 2969 
z
M 947 1747 
Q 947 1113 1208 752 
Q 1469 391 1925 391 
Q 2381 391 2643 752 
Q 2906 1113 2906 1747 
Q 2906 2381 2643 2742 
Q 2381 3103 1925 3103 
Q 1469 3103 1208 2742 
Q 947 2381 947 1747 
z
" transform="scale(0.015625)"/>
      <path id="DejaVuSans-46" d="M 628 4666 
L 3309 4666 
L 3309 4134 
L 1259 4134 
L 1259 2759 
L 3109 2759 
L 3109 2228 
L 1259 2228 
L 1259 0 
L 628 0 
L 628 4666 
z
" transform="scale(0.015625)"/>
      <path id="DejaVuSans-75" d="M 544 1381 
L 544 3500 
L 1119 3500 
L 1119 1403 
Q 1119 906 1312 657 
Q 1506 409 1894 409 
Q 2359 409 2629 706 
Q 2900 1003 2900 1516 
L 2900 3500 
L 3475 3500 
L 3475 0 
L 2900 0 
L 2900 538 
Q 2691 219 2414 64 
Q 2138 -91 1772 -91 
Q 1169 -91 856 284 
Q 544 659 544 1381 
z
M 1991 3584 
L 1991 3584 
z
" transform="scale(0.015625)"/>
      <path id="DejaVuSans-6e" d="M 3513 2113 
L 3513 0 
L 2938 0 
L 2938 2094 
Q 2938 2591 2744 2837 
Q 2550 3084 2163 3084 
Q 1697 3084 1428 2787 
Q 1159 2491 1159 1978 
L 1159 0 
L 581 0 
L 581 3500 
L 1159 3500 
L 1159 2956 
Q 1366 3272 1645 3428 
Q 1925 3584 2291 3584 
Q 2894 3584 3203 3211 
Q 3513 2838 3513 2113 
z
" transform="scale(0.015625)"/>
     </defs>
     <use xlink:href="#DejaVuSans-43"/>
     <use xlink:href="#DejaVuSans-61" x="69.824219"/>
     <use xlink:href="#DejaVuSans-72" x="131.103516"/>
     <use xlink:href="#DejaVuSans-6c" x="172.216797"/>
     <use xlink:href="#DejaVuSans-79" x="200"/>
     <use xlink:href="#DejaVuSans-6c" x="259.179688"/>
     <use xlink:href="#DejaVuSans-65" x="286.962891"/>
     <use xlink:href="#DejaVuSans-20" x="348.486328"/>
     <use xlink:href="#DejaVuSans-54" x="380.273438"/>
     <use xlink:href="#DejaVuSans-61" x="424.857422"/>
     <use xlink:href="#DejaVuSans-63" x="486.136719"/>
     <use xlink:href="#DejaVuSans-74" x="541.117188"/>
     <use xlink:href="#DejaVuSans-69" x="580.326172"/>
     <use xlink:href="#DejaVuSans-63" x="608.109375"/>
     <use xlink:href="#DejaVuSans-61" x="663.089844"/>
     <use xlink:href="#DejaVuSans-6c" x="724.369141"/>
     <use xlink:href="#DejaVuSans-20" x="752.152344"/>
     <use xlink:href="#DejaVuSans-50" x="783.939453"/>
     <use xlink:href="#DejaVuSans-72" x="842.492188"/>
     <use xlink:href="#DejaVuSans-69" x="883.605469"/>
     <use xlink:href="#DejaVuSans-76" x="911.388672"/>
     <use xlink:href="#DejaVuSans-61" x="970.568359"/>
     <use xlink:href="#DejaVuSans-74" x="1031.847656"/>
     <use xlink:href="#DejaVuSans-65" x="1071.056641"/>
     <use xlink:href="#DejaVuSans-20" x="1132.580078"/>
     <use xlink:href="#DejaVuSans-43" x="1164.367188"/>
     <use xlink:href="#DejaVuSans-72" x="1234.191406"/>
     <use xlink:href="#DejaVuSans-65" x="1273.054688"/>
     <use xlink:href="#DejaVuSans-64" x="1334.578125"/>
     <use xlink:href="#DejaVuSans-69" x="1398.054688"/>
     <use xlink:href="#DejaVuSans-74" x="1425.837891"/>
     <use xlink:href="#DejaVuSans-20" x="1465.046875"/>
     <use xlink:href="#DejaVuSans-46" x="1496.833984"/>
     <use xlink:href="#DejaVuSans-75" x="1548.853516"/>
     <use xlink:href="#DejaVuSans-6e" x="1612.232422"/>
     <use xlink:href="#DejaVuSans-64" x="1675.611328"/>
    </g>
   </g>
   <g id="legend_1">
    <g id="patch_108">
     <path d="M 272.604688 57.238125 
L 381.8 57.238125 
Q 383.8 57.238125 383.8 55.238125 
L 383.8 41.56 
Q 383.8 39.56 381.8 39.56 
L 272.604688 39.56 
Q 270.604688 39.56 270.604688 41.56 
L 270.604688 55.238125 
Q 270.604688 57.238125 272.604688 57.238125 
z
" style="fill: #ffffff; opacity: 0.8; stroke: #cccccc; stroke-linejoin: miter"/>
    </g>
    <g id="line2d_30">
     <path d="M 274.604688 47.658437 
L 284.604688 47.658437 
L 294.604688 47.658437 
" style="fill: none; stroke: #ff0000; stroke-width: 1.5; stroke-linecap: square"/>
    </g>
    <g id="text_16">
     <!-- historical mean -->
     <g transform="translate(302.604688 51.158437) scale(0.1 -0.1)">
      <defs>
       <path id="DejaVuSans-68" d="M 3513 2113 
L 3513 0 
L 2938 0 
L 2938 2094 
Q 2938 2591 2744 2837 
Q 2550 3084 2163 3084 
Q 1697 3084 1428 2787 
Q 1159 2491 1159 1978 
L 1159 0 
L 581 0 
L 581 4863 
L 1159 4863 
L 1159 2956 
Q 1366 3272 1645 3428 
Q 1925 3584 2291 3584 
Q 2894 3584 3203 3211 
Q 3513 2838 3513 2113 
z
" transform="scale(0.015625)"/>
       <path id="DejaVuSans-73" d="M 2834 3397 
L 2834 2853 
Q 2591 2978 2328 3040 
Q 2066 3103 1784 3103 
Q 1356 3103 1142 2972 
Q 928 2841 928 2578 
Q 928 2378 1081 2264 
Q 1234 2150 1697 2047 
L 1894 2003 
Q 2506 1872 2764 1633 
Q 3022 1394 3022 966 
Q 3022 478 2636 193 
Q 2250 -91 1575 -91 
Q 1294 -91 989 -36 
Q 684 19 347 128 
L 347 722 
Q 666 556 975 473 
Q 1284 391 1588 391 
Q 1994 391 2212 530 
Q 2431 669 2431 922 
Q 2431 1156 2273 1281 
Q 2116 1406 1581 1522 
L 1381 1569 
Q 847 1681 609 1914 
Q 372 2147 372 2553 
Q 372 3047 722 3315 
Q 1072 3584 1716 3584 
Q 2034 3584 2315 3537 
Q 2597 3491 2834 3397 
z
" transform="scale(0.015625)"/>
       <path id="DejaVuSans-6f" d="M 1959 3097 
Q 1497 3097 1228 2736 
Q 959 2375 959 1747 
Q 959 1119 1226 758 
Q 1494 397 1959 397 
Q 2419 397 2687 759 
Q 2956 1122 2956 1747 
Q 2956 2369 2687 2733 
Q 2419 3097 1959 3097 
z
M 1959 3584 
Q 2709 3584 3137 3096 
Q 3566 2609 3566 1747 
Q 3566 888 3137 398 
Q 2709 -91 1959 -91 
Q 1206 -91 779 398 
Q 353 888 353 1747 
Q 353 2609 779 3096 
Q 1206 3584 1959 3584 
z
" transform="scale(0.015625)"/>
       <path id="DejaVuSans-6d" d="M 3328 2828 
Q 3544 3216 3844 3400 
Q 4144 3584 4550 3584 
Q 5097 3584 5394 3201 
Q 5691 2819 5691 2113 
L 5691 0 
L 5113 0 
L 5113 2094 
Q 5113 2597 4934 2840 
Q 4756 3084 4391 3084 
Q 3944 3084 3684 2787 
Q 3425 2491 3425 1978 
L 3425 0 
L 2847 0 
L 2847 2094 
Q 2847 2600 2669 2842 
Q 2491 3084 2119 3084 
Q 1678 3084 1418 2786 
Q 1159 2488 1159 1978 
L 1159 0 
L 581 0 
L 581 3500 
L 1159 3500 
L 1159 2956 
Q 1356 3278 1631 3431 
Q 1906 3584 2284 3584 
Q 2666 3584 2933 3390 
Q 3200 3197 3328 2828 
z
" transform="scale(0.015625)"/>
      </defs>
      <use xlink:href="#DejaVuSans-68"/>
      <use xlink:href="#DejaVuSans-69" x="63.378906"/>
      <use xlink:href="#DejaVuSans-73" x="91.162109"/>
      <use xlink:href="#DejaVuSans-74" x="143.261719"/>
      <use xlink:href="#DejaVuSans-6f" x="182.470703"/>
      <use xlink:href="#DejaVuSans-72" x="243.652344"/>
      <use xlink:href="#DejaVuSans-69" x="284.765625"/>
      <use xlink:href="#DejaVuSans-63" x="312.548828"/>
      <use xlink:href="#DejaVuSans-61" x="367.529297"/>
      <use xlink:href="#DejaVuSans-6c" x="428.808594"/>
      <use xlink:href="#DejaVuSans-20" x="456.591797"/>
      <use xlink:href="#DejaVuSans-6d" x="488.378906"/>
      <use xlink:href="#DejaVuSans-65" x="585.791016"/>
      <use xlink:href="#DejaVuSans-61" x="647.314453"/>
      <use xlink:href="#DejaVuSans-6e" x="708.59375"/>
     </g>
    </g>
   </g>
  </g>
 </g>
 <defs>
  <clipPath id="p0ced4e3fce">
   <rect x="54" y="34.56" width="334.8" height="217.44"/>
  </clipPath>
 </defs>
</svg>
