<?xml version="1.0" encoding="utf-8" standalone="no"?>
<!DOCTYPE svg PUBLIC "-//W3C//DTD SVG 1.1//EN"
  "http://www.w3.org/Graphics/SVG/1.1/DTD/svg11.dtd">
<svg xmlns:xlink="http://www.w3.org/1999/xlink" width="432pt" height="288pt" viewBox="0 0 432 288" xmlns="http://www.w3.org/2000/svg" version="1.1">
 <metadata>
  <rdf:RDF xmlns:dc="http://purl.org/dc/elements/1.1/" xmlns:cc="http://creativecommons.org/ns#" xmlns:rdf="http://www.w3.org/1999/02/22-rdf-syntax-ns#">
   <cc:Work>
    <dc:type rdf:resource="http://purl.org/dc/dcmitype/StillImage"/>
    <dc:date>2024-07-25T10:06:48.338255</dc:date>
    <dc:format>image/svg+xml</dc:format>
    <dc:creator>
     <cc:Agent>
      <dc:title>Matplotlib v3.7.1, https://matplotlib.org/</dc:title>
     </cc:Agent>
    </dc:creator>
   </cc:Work>
  </rdf:RDF>
 </metadata>
 <defs>
  <style type="text/css">*{stroke-linejoin: round; stroke-linecap: butt}</style>
 </defs>
 <g id="figure_1">
  <g id="patch_1">
   <path d="M 0 288 
L 432 288 
L 432 0 
L 0 0 
z
" style="fill: #ffffff"/>
  </g>
  <g id="axes_1">
   <g id="patch_2">
    <path d="M 54 252 
L 388.8 252 
L 388.8 34.56 
L 54 34.56 
z
" style="fill: #ffffff"/>
   </g>
   <g id="patch_3">
    <path d="M 69.218182 252 
L 72.231683 252 
L 72.231683 251.958912 
L 69.218182 251.958912 
z
" clip-path="url(#pa86cd18381)" style="fill: #1f77b4"/>
   </g>
   <g id="patch_4">
    <path d="M 72.231683 252 
L 75.245185 252 
L 75.245185 252 
L 72.231683 252 
z
" clip-path="url(#pa86cd18381)" style="fill: #1f77b4"/>
   </g>
   <g id="patch_5">
    <path d="M 75.245185 252 
L 78.258686 252 
L 78.258686 252 
L 75.245185 252 
z
" clip-path="url(#pa86cd18381)" style="fill: #1f77b4"/>
   </g>
   <g id="patch_6">
    <path d="M 78.258686 252 
L 81.272187 252 
L 81.272187 252 
L 78.258686 252 
z
" clip-path="url(#pa86cd18381)" style="fill: #1f77b4"/>
   </g>
   <g id="patch_7">
    <path d="M 81.272187 252 
L 84.285689 252 
L 84.285689 252 
L 81.272187 252 
z
" clip-path="url(#pa86cd18381)" style="fill: #1f77b4"/>
   </g>
   <g id="patch_8">
    <path d="M 84.285689 252 
L 87.29919 252 
L 87.29919 252 
L 84.285689 252 
z
" clip-path="url(#pa86cd18381)" style="fill: #1f77b4"/>
   </g>
   <g id="patch_9">
    <path d="M 87.29919 252 
L 90.312691 252 
L 90.312691 252 
L 87.29919 252 
z
" clip-path="url(#pa86cd18381)" style="fill: #1f77b4"/>
   </g>
   <g id="patch_10">
    <path d="M 90.312691 252 
L 93.326193 252 
L 93.326193 252 
L 90.312691 252 
z
" clip-path="url(#pa86cd18381)" style="fill: #1f77b4"/>
   </g>
   <g id="patch_11">
    <path d="M 93.326193 252 
L 96.339694 252 
L 96.339694 252 
L 93.326193 252 
z
" clip-path="url(#pa86cd18381)" style="fill: #1f77b4"/>
   </g>
   <g id="patch_12">
    <path d="M 96.339694 252 
L 99.353195 252 
L 99.353195 252 
L 96.339694 252 
z
" clip-path="url(#pa86cd18381)" style="fill: #1f77b4"/>
   </g>
   <g id="patch_13">
    <path d="M 99.353195 252 
L 102.366697 252 
L 102.366697 252 
L 99.353195 252 
z
" clip-path="url(#pa86cd18381)" style="fill: #1f77b4"/>
   </g>
   <g id="patch_14">
    <path d="M 102.366697 252 
L 105.380198 252 
L 105.380198 251.958912 
L 102.366697 251.958912 
z
" clip-path="url(#pa86cd18381)" style="fill: #1f77b4"/>
   </g>
   <g id="patch_15">
    <path d="M 105.380198 252 
L 108.393699 252 
L 108.393699 252 
L 105.380198 252 
z
" clip-path="url(#pa86cd18381)" style="fill: #1f77b4"/>
   </g>
   <g id="patch_16">
    <path d="M 108.393699 252 
L 111.407201 252 
L 111.407201 251.958912 
L 108.393699 251.958912 
z
" clip-path="url(#pa86cd18381)" style="fill: #1f77b4"/>
   </g>
   <g id="patch_17">
    <path d="M 111.407201 252 
L 114.420702 252 
L 114.420702 252 
L 111.407201 252 
z
" clip-path="url(#pa86cd18381)" style="fill: #1f77b4"/>
   </g>
   <g id="patch_18">
    <path d="M 114.420702 252 
L 117.434203 252 
L 117.434203 252 
L 114.420702 252 
z
" clip-path="url(#pa86cd18381)" style="fill: #1f77b4"/>
   </g>
   <g id="patch_19">
    <path d="M 117.434203 252 
L 120.447705 252 
L 120.447705 251.958912 
L 117.434203 251.958912 
z
" clip-path="url(#pa86cd18381)" style="fill: #1f77b4"/>
   </g>
   <g id="patch_20">
    <path d="M 120.447705 252 
L 123.461206 252 
L 123.461206 251.958912 
L 120.447705 251.958912 
z
" clip-path="url(#pa86cd18381)" style="fill: #1f77b4"/>
   </g>
   <g id="patch_21">
    <path d="M 123.461206 252 
L 126.474707 252 
L 126.474707 251.917823 
L 123.461206 251.917823 
z
" clip-path="url(#pa86cd18381)" style="fill: #1f77b4"/>
   </g>
   <g id="patch_22">
    <path d="M 126.474707 252 
L 129.488209 252 
L 129.488209 251.917823 
L 126.474707 251.917823 
z
" clip-path="url(#pa86cd18381)" style="fill: #1f77b4"/>
   </g>
   <g id="patch_23">
    <path d="M 129.488209 252 
L 132.50171 252 
L 132.50171 251.917823 
L 129.488209 251.917823 
z
" clip-path="url(#pa86cd18381)" style="fill: #1f77b4"/>
   </g>
   <g id="patch_24">
    <path d="M 132.50171 252 
L 135.515212 252 
L 135.515212 252 
L 132.50171 252 
z
" clip-path="url(#pa86cd18381)" style="fill: #1f77b4"/>
   </g>
   <g id="patch_25">
    <path d="M 135.515212 252 
L 138.528713 252 
L 138.528713 251.794558 
L 135.515212 251.794558 
z
" clip-path="url(#pa86cd18381)" style="fill: #1f77b4"/>
   </g>
   <g id="patch_26">
    <path d="M 138.528713 252 
L 141.542214 252 
L 141.542214 251.712381 
L 138.528713 251.712381 
z
" clip-path="url(#pa86cd18381)" style="fill: #1f77b4"/>
   </g>
   <g id="patch_27">
    <path d="M 141.542214 252 
L 144.555716 252 
L 144.555716 251.753469 
L 141.542214 251.753469 
z
" clip-path="url(#pa86cd18381)" style="fill: #1f77b4"/>
   </g>
   <g id="patch_28">
    <path d="M 144.555716 252 
L 147.569217 252 
L 147.569217 251.712381 
L 144.555716 251.712381 
z
" clip-path="url(#pa86cd18381)" style="fill: #1f77b4"/>
   </g>
   <g id="patch_29">
    <path d="M 147.569217 252 
L 150.582718 252 
L 150.582718 251.876735 
L 147.569217 251.876735 
z
" clip-path="url(#pa86cd18381)" style="fill: #1f77b4"/>
   </g>
   <g id="patch_30">
    <path d="M 150.582718 252 
L 153.59622 252 
L 153.59622 251.671293 
L 150.582718 251.671293 
z
" clip-path="url(#pa86cd18381)" style="fill: #1f77b4"/>
   </g>
   <g id="patch_31">
    <path d="M 153.59622 252 
L 156.609721 252 
L 156.609721 251.137143 
L 153.59622 251.137143 
z
" clip-path="url(#pa86cd18381)" style="fill: #1f77b4"/>
   </g>
   <g id="patch_32">
    <path d="M 156.609721 252 
L 159.623222 252 
L 159.623222 251.301497 
L 156.609721 251.301497 
z
" clip-path="url(#pa86cd18381)" style="fill: #1f77b4"/>
   </g>
   <g id="patch_33">
    <path d="M 159.623222 252 
L 162.636724 252 
L 162.636724 251.342585 
L 159.623222 251.342585 
z
" clip-path="url(#pa86cd18381)" style="fill: #1f77b4"/>
   </g>
   <g id="patch_34">
    <path d="M 162.636724 252 
L 165.650225 252 
L 165.650225 250.479728 
L 162.636724 250.479728 
z
" clip-path="url(#pa86cd18381)" style="fill: #1f77b4"/>
   </g>
   <g id="patch_35">
    <path d="M 165.650225 252 
L 168.663726 252 
L 168.663726 250.315374 
L 165.650225 250.315374 
z
" clip-path="url(#pa86cd18381)" style="fill: #1f77b4"/>
   </g>
   <g id="patch_36">
    <path d="M 168.663726 252 
L 171.677228 252 
L 171.677228 249.411429 
L 168.663726 249.411429 
z
" clip-path="url(#pa86cd18381)" style="fill: #1f77b4"/>
   </g>
   <g id="patch_37">
    <path d="M 171.677228 252 
L 174.690729 252 
L 174.690729 249.041633 
L 171.677228 249.041633 
z
" clip-path="url(#pa86cd18381)" style="fill: #1f77b4"/>
   </g>
   <g id="patch_38">
    <path d="M 174.690729 252 
L 177.70423 252 
L 177.70423 247.357007 
L 174.690729 247.357007 
z
" clip-path="url(#pa86cd18381)" style="fill: #1f77b4"/>
   </g>
   <g id="patch_39">
    <path d="M 177.70423 252 
L 180.717732 252 
L 180.717732 245.138231 
L 177.70423 245.138231 
z
" clip-path="url(#pa86cd18381)" style="fill: #1f77b4"/>
   </g>
   <g id="patch_40">
    <path d="M 180.717732 252 
L 183.731233 252 
L 183.731233 243.987755 
L 180.717732 243.987755 
z
" clip-path="url(#pa86cd18381)" style="fill: #1f77b4"/>
   </g>
   <g id="patch_41">
    <path d="M 183.731233 252 
L 186.744734 252 
L 186.744734 240.002177 
L 183.731233 240.002177 
z
" clip-path="url(#pa86cd18381)" style="fill: #1f77b4"/>
   </g>
   <g id="patch_42">
    <path d="M 186.744734 252 
L 189.758236 252 
L 189.758236 234.41415 
L 186.744734 234.41415 
z
" clip-path="url(#pa86cd18381)" style="fill: #1f77b4"/>
   </g>
   <g id="patch_43">
    <path d="M 189.758236 252 
L 192.771737 252 
L 192.771737 225.004898 
L 189.758236 225.004898 
z
" clip-path="url(#pa86cd18381)" style="fill: #1f77b4"/>
   </g>
   <g id="patch_44">
    <path d="M 192.771737 252 
L 195.785239 252 
L 195.785239 212.59619 
L 192.771737 212.59619 
z
" clip-path="url(#pa86cd18381)" style="fill: #1f77b4"/>
   </g>
   <g id="patch_45">
    <path d="M 195.785239 252 
L 198.79874 252 
L 198.79874 198.215238 
L 195.785239 198.215238 
z
" clip-path="url(#pa86cd18381)" style="fill: #1f77b4"/>
   </g>
   <g id="patch_46">
    <path d="M 198.79874 252 
L 201.812241 252 
L 201.812241 179.643265 
L 198.79874 179.643265 
z
" clip-path="url(#pa86cd18381)" style="fill: #1f77b4"/>
   </g>
   <g id="patch_47">
    <path d="M 201.812241 252 
L 204.825743 252 
L 204.825743 156.387211 
L 201.812241 156.387211 
z
" clip-path="url(#pa86cd18381)" style="fill: #1f77b4"/>
   </g>
   <g id="patch_48">
    <path d="M 204.825743 252 
L 207.839244 252 
L 207.839244 136.336054 
L 204.825743 136.336054 
z
" clip-path="url(#pa86cd18381)" style="fill: #1f77b4"/>
   </g>
   <g id="patch_49">
    <path d="M 207.839244 252 
L 210.852745 252 
L 210.852745 106.012789 
L 207.839244 106.012789 
z
" clip-path="url(#pa86cd18381)" style="fill: #1f77b4"/>
   </g>
   <g id="patch_50">
    <path d="M 210.852745 252 
L 213.866247 252 
L 213.866247 78.401361 
L 210.852745 78.401361 
z
" clip-path="url(#pa86cd18381)" style="fill: #1f77b4"/>
   </g>
   <g id="patch_51">
    <path d="M 213.866247 252 
L 216.879748 252 
L 216.879748 48.899864 
L 213.866247 48.899864 
z
" clip-path="url(#pa86cd18381)" style="fill: #1f77b4"/>
   </g>
   <g id="patch_52">
    <path d="M 216.879748 252 
L 219.893249 252 
L 219.893249 44.914286 
L 216.879748 44.914286 
z
" clip-path="url(#pa86cd18381)" style="fill: #1f77b4"/>
   </g>
   <g id="patch_53">
    <path d="M 219.893249 252 
L 222.906751 252 
L 222.906751 61.965986 
L 219.893249 61.965986 
z
" clip-path="url(#pa86cd18381)" style="fill: #1f77b4"/>
   </g>
   <g id="patch_54">
    <path d="M 222.906751 252 
L 225.920252 252 
L 225.920252 96.069388 
L 222.906751 96.069388 
z
" clip-path="url(#pa86cd18381)" style="fill: #1f77b4"/>
   </g>
   <g id="patch_55">
    <path d="M 225.920252 252 
L 228.933753 252 
L 228.933753 138.102857 
L 225.920252 138.102857 
z
" clip-path="url(#pa86cd18381)" style="fill: #1f77b4"/>
   </g>
   <g id="patch_56">
    <path d="M 228.933753 252 
L 231.947255 252 
L 231.947255 173.685442 
L 228.933753 173.685442 
z
" clip-path="url(#pa86cd18381)" style="fill: #1f77b4"/>
   </g>
   <g id="patch_57">
    <path d="M 231.947255 252 
L 234.960756 252 
L 234.960756 196.448435 
L 231.947255 196.448435 
z
" clip-path="url(#pa86cd18381)" style="fill: #1f77b4"/>
   </g>
   <g id="patch_58">
    <path d="M 234.960756 252 
L 237.974257 252 
L 237.974257 214.034286 
L 234.960756 214.034286 
z
" clip-path="url(#pa86cd18381)" style="fill: #1f77b4"/>
   </g>
   <g id="patch_59">
    <path d="M 237.974257 252 
L 240.987759 252 
L 240.987759 221.635646 
L 237.974257 221.635646 
z
" clip-path="url(#pa86cd18381)" style="fill: #1f77b4"/>
   </g>
   <g id="patch_60">
    <path d="M 240.987759 252 
L 244.00126 252 
L 244.00126 230.921633 
L 240.987759 230.921633 
z
" clip-path="url(#pa86cd18381)" style="fill: #1f77b4"/>
   </g>
   <g id="patch_61">
    <path d="M 244.00126 252 
L 247.014761 252 
L 247.014761 234.989388 
L 244.00126 234.989388 
z
" clip-path="url(#pa86cd18381)" style="fill: #1f77b4"/>
   </g>
   <g id="patch_62">
    <path d="M 247.014761 252 
L 250.028263 252 
L 250.028263 239.509116 
L 247.014761 239.509116 
z
" clip-path="url(#pa86cd18381)" style="fill: #1f77b4"/>
   </g>
   <g id="patch_63">
    <path d="M 250.028263 252 
L 253.041764 252 
L 253.041764 241.029388 
L 250.028263 241.029388 
z
" clip-path="url(#pa86cd18381)" style="fill: #1f77b4"/>
   </g>
   <g id="patch_64">
    <path d="M 253.041764 252 
L 256.055266 252 
L 256.055266 243.576871 
L 253.041764 243.576871 
z
" clip-path="url(#pa86cd18381)" style="fill: #1f77b4"/>
   </g>
   <g id="patch_65">
    <path d="M 256.055266 252 
L 259.068767 252 
L 259.068767 244.686259 
L 256.055266 244.686259 
z
" clip-path="url(#pa86cd18381)" style="fill: #1f77b4"/>
   </g>
   <g id="patch_66">
    <path d="M 259.068767 252 
L 262.082268 252 
L 262.082268 245.754558 
L 259.068767 245.754558 
z
" clip-path="url(#pa86cd18381)" style="fill: #1f77b4"/>
   </g>
   <g id="patch_67">
    <path d="M 262.082268 252 
L 265.09577 252 
L 265.09577 246.042177 
L 262.082268 246.042177 
z
" clip-path="url(#pa86cd18381)" style="fill: #1f77b4"/>
   </g>
   <g id="patch_68">
    <path d="M 265.09577 252 
L 268.109271 252 
L 268.109271 247.069388 
L 265.09577 247.069388 
z
" clip-path="url(#pa86cd18381)" style="fill: #1f77b4"/>
   </g>
   <g id="patch_69">
    <path d="M 268.109271 252 
L 271.122772 252 
L 271.122772 247.480272 
L 268.109271 247.480272 
z
" clip-path="url(#pa86cd18381)" style="fill: #1f77b4"/>
   </g>
   <g id="patch_70">
    <path d="M 271.122772 252 
L 274.136274 252 
L 274.136274 248.302041 
L 271.122772 248.302041 
z
" clip-path="url(#pa86cd18381)" style="fill: #1f77b4"/>
   </g>
   <g id="patch_71">
    <path d="M 274.136274 252 
L 277.149775 252 
L 277.149775 248.795102 
L 274.136274 248.795102 
z
" clip-path="url(#pa86cd18381)" style="fill: #1f77b4"/>
   </g>
   <g id="patch_72">
    <path d="M 277.149775 252 
L 280.163276 252 
L 280.163276 249.041633 
L 277.149775 249.041633 
z
" clip-path="url(#pa86cd18381)" style="fill: #1f77b4"/>
   </g>
   <g id="patch_73">
    <path d="M 280.163276 252 
L 283.176778 252 
L 283.176778 249.781224 
L 280.163276 249.781224 
z
" clip-path="url(#pa86cd18381)" style="fill: #1f77b4"/>
   </g>
   <g id="patch_74">
    <path d="M 283.176778 252 
L 286.190279 252 
L 286.190279 250.315374 
L 283.176778 250.315374 
z
" clip-path="url(#pa86cd18381)" style="fill: #1f77b4"/>
   </g>
   <g id="patch_75">
    <path d="M 286.190279 252 
L 289.20378 252 
L 289.20378 250.356463 
L 286.190279 250.356463 
z
" clip-path="url(#pa86cd18381)" style="fill: #1f77b4"/>
   </g>
   <g id="patch_76">
    <path d="M 289.20378 252 
L 292.217282 252 
L 292.217282 250.890612 
L 289.20378 250.890612 
z
" clip-path="url(#pa86cd18381)" style="fill: #1f77b4"/>
   </g>
   <g id="patch_77">
    <path d="M 292.217282 252 
L 295.230783 252 
L 295.230783 251.013878 
L 292.217282 251.013878 
z
" clip-path="url(#pa86cd18381)" style="fill: #1f77b4"/>
   </g>
   <g id="patch_78">
    <path d="M 295.230783 252 
L 298.244284 252 
L 298.244284 251.383673 
L 295.230783 251.383673 
z
" clip-path="url(#pa86cd18381)" style="fill: #1f77b4"/>
   </g>
   <g id="patch_79">
    <path d="M 298.244284 252 
L 301.257786 252 
L 301.257786 251.21932 
L 298.244284 251.21932 
z
" clip-path="url(#pa86cd18381)" style="fill: #1f77b4"/>
   </g>
   <g id="patch_80">
    <path d="M 301.257786 252 
L 304.271287 252 
L 304.271287 251.46585 
L 301.257786 251.46585 
z
" clip-path="url(#pa86cd18381)" style="fill: #1f77b4"/>
   </g>
   <g id="patch_81">
    <path d="M 304.271287 252 
L 307.284788 252 
L 307.284788 251.383673 
L 304.271287 251.383673 
z
" clip-path="url(#pa86cd18381)" style="fill: #1f77b4"/>
   </g>
   <g id="patch_82">
    <path d="M 307.284788 252 
L 310.29829 252 
L 310.29829 251.548027 
L 307.284788 251.548027 
z
" clip-path="url(#pa86cd18381)" style="fill: #1f77b4"/>
   </g>
   <g id="patch_83">
    <path d="M 310.29829 252 
L 313.311791 252 
L 313.311791 251.46585 
L 310.29829 251.46585 
z
" clip-path="url(#pa86cd18381)" style="fill: #1f77b4"/>
   </g>
   <g id="patch_84">
    <path d="M 313.311791 252 
L 316.325293 252 
L 316.325293 251.589116 
L 313.311791 251.589116 
z
" clip-path="url(#pa86cd18381)" style="fill: #1f77b4"/>
   </g>
   <g id="patch_85">
    <path d="M 316.325293 252 
L 319.338794 252 
L 319.338794 251.712381 
L 316.325293 251.712381 
z
" clip-path="url(#pa86cd18381)" style="fill: #1f77b4"/>
   </g>
   <g id="patch_86">
    <path d="M 319.338794 252 
L 322.352295 252 
L 322.352295 251.548027 
L 319.338794 251.548027 
z
" clip-path="url(#pa86cd18381)" style="fill: #1f77b4"/>
   </g>
   <g id="patch_87">
    <path d="M 322.352295 252 
L 325.365797 252 
L 325.365797 251.835646 
L 322.352295 251.835646 
z
" clip-path="url(#pa86cd18381)" style="fill: #1f77b4"/>
   </g>
   <g id="patch_88">
    <path d="M 325.365797 252 
L 328.379298 252 
L 328.379298 251.958912 
L 325.365797 251.958912 
z
" clip-path="url(#pa86cd18381)" style="fill: #1f77b4"/>
   </g>
   <g id="patch_89">
    <path d="M 328.379298 252 
L 331.392799 252 
L 331.392799 251.876735 
L 328.379298 251.876735 
z
" clip-path="url(#pa86cd18381)" style="fill: #1f77b4"/>
   </g>
   <g id="patch_90">
    <path d="M 331.392799 252 
L 334.406301 252 
L 334.406301 251.958912 
L 331.392799 251.958912 
z
" clip-path="url(#pa86cd18381)" style="fill: #1f77b4"/>
   </g>
   <g id="patch_91">
    <path d="M 334.406301 252 
L 337.419802 252 
L 337.419802 251.876735 
L 334.406301 251.876735 
z
" clip-path="url(#pa86cd18381)" style="fill: #1f77b4"/>
   </g>
   <g id="patch_92">
    <path d="M 337.419802 252 
L 340.433303 252 
L 340.433303 251.917823 
L 337.419802 251.917823 
z
" clip-path="url(#pa86cd18381)" style="fill: #1f77b4"/>
   </g>
   <g id="patch_93">
    <path d="M 340.433303 252 
L 343.446805 252 
L 343.446805 251.958912 
L 340.433303 251.958912 
z
" clip-path="url(#pa86cd18381)" style="fill: #1f77b4"/>
   </g>
   <g id="patch_94">
    <path d="M 343.446805 252 
L 346.460306 252 
L 346.460306 252 
L 343.446805 252 
z
" clip-path="url(#pa86cd18381)" style="fill: #1f77b4"/>
   </g>
   <g id="patch_95">
    <path d="M 346.460306 252 
L 349.473807 252 
L 349.473807 251.917823 
L 346.460306 251.917823 
z
" clip-path="url(#pa86cd18381)" style="fill: #1f77b4"/>
   </g>
   <g id="patch_96">
    <path d="M 349.473807 252 
L 352.487309 252 
L 352.487309 251.958912 
L 349.473807 251.958912 
z
" clip-path="url(#pa86cd18381)" style="fill: #1f77b4"/>
   </g>
   <g id="patch_97">
    <path d="M 352.487309 252 
L 355.50081 252 
L 355.50081 252 
L 352.487309 252 
z
" clip-path="url(#pa86cd18381)" style="fill: #1f77b4"/>
   </g>
   <g id="patch_98">
    <path d="M 355.50081 252 
L 358.514311 252 
L 358.514311 252 
L 355.50081 252 
z
" clip-path="url(#pa86cd18381)" style="fill: #1f77b4"/>
   </g>
   <g id="patch_99">
    <path d="M 358.514311 252 
L 361.527813 252 
L 361.527813 252 
L 358.514311 252 
z
" clip-path="url(#pa86cd18381)" style="fill: #1f77b4"/>
   </g>
   <g id="patch_100">
    <path d="M 361.527813 252 
L 364.541314 252 
L 364.541314 252 
L 361.527813 252 
z
" clip-path="url(#pa86cd18381)" style="fill: #1f77b4"/>
   </g>
   <g id="patch_101">
    <path d="M 364.541314 252 
L 367.554815 252 
L 367.554815 252 
L 364.541314 252 
z
" clip-path="url(#pa86cd18381)" style="fill: #1f77b4"/>
   </g>
   <g id="patch_102">
    <path d="M 367.554815 252 
L 370.568317 252 
L 370.568317 252 
L 367.554815 252 
z
" clip-path="url(#pa86cd18381)" style="fill: #1f77b4"/>
   </g>
   <g id="patch_103">
    <path d="M 370.568317 252 
L 373.581818 252 
L 373.581818 251.958912 
L 370.568317 251.958912 
z
" clip-path="url(#pa86cd18381)" style="fill: #1f77b4"/>
   </g>
   <g id="matplotlib.axis_1">
    <g id="xtick_1">
     <g id="line2d_1">
      <path d="M 81.474783 252 
L 81.474783 34.56 
" clip-path="url(#pa86cd18381)" style="fill: none; stroke: #b0b0b0; stroke-width: 0.8; stroke-linecap: square"/>
     </g>
     <g id="line2d_2">
      <defs>
       <path id="m70ad885956" d="M 0 0 
L 0 3.5 
" style="stroke: #000000; stroke-width: 0.8"/>
      </defs>
      <g>
       <use xlink:href="#m70ad885956" x="81.474783" y="252" style="stroke: #000000; stroke-width: 0.8"/>
      </g>
     </g>
     <g id="text_1">
      <!-- −10 -->
      <g transform="translate(70.922439 266.598437) scale(0.1 -0.1)">
       <defs>
        <path id="DejaVuSans-2212" d="M 678 2272 
L 4684 2272 
L 4684 1741 
L 678 1741 
L 678 2272 
z
" transform="scale(0.015625)"/>
        <path id="DejaVuSans-31" d="M 794 531 
L 1825 531 
L 1825 4091 
L 703 3866 
L 703 4441 
L 1819 4666 
L 2450 4666 
L 2450 531 
L 3481 531 
L 3481 0 
L 794 0 
L 794 531 
z
" transform="scale(0.015625)"/>
        <path id="DejaVuSans-30" d="M 2034 4250 
Q 1547 4250 1301 3770 
Q 1056 3291 1056 2328 
Q 1056 1369 1301 889 
Q 1547 409 2034 409 
Q 2525 409 2770 889 
Q 3016 1369 3016 2328 
Q 3016 3291 2770 3770 
Q 2525 4250 2034 4250 
z
M 2034 4750 
Q 2819 4750 3233 4129 
Q 3647 3509 3647 2328 
Q 3647 1150 3233 529 
Q 2819 -91 2034 -91 
Q 1250 -91 836 529 
Q 422 1150 422 2328 
Q 422 3509 836 4129 
Q 1250 4750 2034 4750 
z
" transform="scale(0.015625)"/>
       </defs>
       <use xlink:href="#DejaVuSans-2212"/>
       <use xlink:href="#DejaVuSans-31" x="83.789062"/>
       <use xlink:href="#DejaVuSans-30" x="147.412109"/>
      </g>
     </g>
    </g>
    <g id="xtick_2">
     <g id="line2d_3">
      <path d="M 145.404401 252 
L 145.404401 34.56 
" clip-path="url(#pa86cd18381)" style="fill: none; stroke: #b0b0b0; stroke-width: 0.8; stroke-linecap: square"/>
     </g>
     <g id="line2d_4">
      <g>
       <use xlink:href="#m70ad885956" x="145.404401" y="252" style="stroke: #000000; stroke-width: 0.8"/>
      </g>
     </g>
     <g id="text_2">
      <!-- −5 -->
      <g transform="translate(138.033308 266.598437) scale(0.1 -0.1)">
       <defs>
        <path id="DejaVuSans-35" d="M 691 4666 
L 3169 4666 
L 3169 4134 
L 1269 4134 
L 1269 2991 
Q 1406 3038 1543 3061 
Q 1681 3084 1819 3084 
Q 2600 3084 3056 2656 
Q 3513 2228 3513 1497 
Q 3513 744 3044 326 
Q 2575 -91 1722 -91 
Q 1428 -91 1123 -41 
Q 819 9 494 109 
L 494 744 
Q 775 591 1075 516 
Q 1375 441 1709 441 
Q 2250 441 2565 725 
Q 2881 1009 2881 1497 
Q 2881 1984 2565 2268 
Q 2250 2553 1709 2553 
Q 1456 2553 1204 2497 
Q 953 2441 691 2322 
L 691 4666 
z
" transform="scale(0.015625)"/>
       </defs>
       <use xlink:href="#DejaVuSans-2212"/>
       <use xlink:href="#DejaVuSans-35" x="83.789062"/>
      </g>
     </g>
    </g>
    <g id="xtick_3">
     <g id="line2d_5">
      <path d="M 209.33402 252 
L 209.33402 34.56 
" clip-path="url(#pa86cd18381)" style="fill: none; stroke: #b0b0b0; stroke-width: 0.8; stroke-linecap: square"/>
     </g>
     <g id="line2d_6">
      <g>
       <use xlink:href="#m70ad885956" x="209.33402" y="252" style="stroke: #000000; stroke-width: 0.8"/>
      </g>
     </g>
     <g id="text_3">
      <!-- 0 -->
      <g transform="translate(206.15277 266.598437) scale(0.1 -0.1)">
       <use xlink:href="#DejaVuSans-30"/>
      </g>
     </g>
    </g>
    <g id="xtick_4">
     <g id="line2d_7">
      <path d="M 273.263638 252 
L 273.263638 34.56 
" clip-path="url(#pa86cd18381)" style="fill: none; stroke: #b0b0b0; stroke-width: 0.8; stroke-linecap: square"/>
     </g>
     <g id="line2d_8">
      <g>
       <use xlink:href="#m70ad885956" x="273.263638" y="252" style="stroke: #000000; stroke-width: 0.8"/>
      </g>
     </g>
     <g id="text_4">
      <!-- 5 -->
      <g transform="translate(270.082388 266.598437) scale(0.1 -0.1)">
       <use xlink:href="#DejaVuSans-35"/>
      </g>
     </g>
    </g>
    <g id="xtick_5">
     <g id="line2d_9">
      <path d="M 337.193256 252 
L 337.193256 34.56 
" clip-path="url(#pa86cd18381)" style="fill: none; stroke: #b0b0b0; stroke-width: 0.8; stroke-linecap: square"/>
     </g>
     <g id="line2d_10">
      <g>
       <use xlink:href="#m70ad885956" x="337.193256" y="252" style="stroke: #000000; stroke-width: 0.8"/>
      </g>
     </g>
     <g id="text_5">
      <!-- 10 -->
      <g transform="translate(330.830756 266.598437) scale(0.1 -0.1)">
       <use xlink:href="#DejaVuSans-31"/>
       <use xlink:href="#DejaVuSans-30" x="63.623047"/>
      </g>
     </g>
    </g>
   </g>
   <g id="matplotlib.axis_2">
    <g id="ytick_1">
     <g id="line2d_11">
      <path d="M 54 252 
L 388.8 252 
" clip-path="url(#pa86cd18381)" style="fill: none; stroke: #b0b0b0; stroke-width: 0.8; stroke-linecap: square"/>
     </g>
     <g id="line2d_12">
      <defs>
       <path id="mac2d13712e" d="M 0 0 
L -3.5 0 
" style="stroke: #000000; stroke-width: 0.8"/>
      </defs>
      <g>
       <use xlink:href="#mac2d13712e" x="54" y="252" style="stroke: #000000; stroke-width: 0.8"/>
      </g>
     </g>
     <g id="text_6">
      <!-- 0 -->
      <g transform="translate(40.6375 255.799219) scale(0.1 -0.1)">
       <use xlink:href="#DejaVuSans-30"/>
      </g>
     </g>
    </g>
    <g id="ytick_2">
     <g id="line2d_13">
      <path d="M 54 210.911565 
L 388.8 210.911565 
" clip-path="url(#pa86cd18381)" style="fill: none; stroke: #b0b0b0; stroke-width: 0.8; stroke-linecap: square"/>
     </g>
     <g id="line2d_14">
      <g>
       <use xlink:href="#mac2d13712e" x="54" y="210.911565" style="stroke: #000000; stroke-width: 0.8"/>
      </g>
     </g>
     <g id="text_7">
      <!-- 1000 -->
      <g transform="translate(21.55 214.710783) scale(0.1 -0.1)">
       <use xlink:href="#DejaVuSans-31"/>
       <use xlink:href="#DejaVuSans-30" x="63.623047"/>
       <use xlink:href="#DejaVuSans-30" x="127.246094"/>
       <use xlink:href="#DejaVuSans-30" x="190.869141"/>
      </g>
     </g>
    </g>
    <g id="ytick_3">
     <g id="line2d_15">
      <path d="M 54 169.823129 
L 388.8 169.823129 
" clip-path="url(#pa86cd18381)" style="fill: none; stroke: #b0b0b0; stroke-width: 0.8; stroke-linecap: square"/>
     </g>
     <g id="line2d_16">
      <g>
       <use xlink:href="#mac2d13712e" x="54" y="169.823129" style="stroke: #000000; stroke-width: 0.8"/>
      </g>
     </g>
     <g id="text_8">
      <!-- 2000 -->
      <g transform="translate(21.55 173.622348) scale(0.1 -0.1)">
       <defs>
        <path id="DejaVuSans-32" d="M 1228 531 
L 3431 531 
L 3431 0 
L 469 0 
L 469 531 
Q 828 903 1448 1529 
Q 2069 2156 2228 2338 
Q 2531 2678 2651 2914 
Q 2772 3150 2772 3378 
Q 2772 3750 2511 3984 
Q 2250 4219 1831 4219 
Q 1534 4219 1204 4116 
Q 875 4013 500 3803 
L 500 4441 
Q 881 4594 1212 4672 
Q 1544 4750 1819 4750 
Q 2544 4750 2975 4387 
Q 3406 4025 3406 3419 
Q 3406 3131 3298 2873 
Q 3191 2616 2906 2266 
Q 2828 2175 2409 1742 
Q 1991 1309 1228 531 
z
" transform="scale(0.015625)"/>
       </defs>
       <use xlink:href="#DejaVuSans-32"/>
       <use xlink:href="#DejaVuSans-30" x="63.623047"/>
       <use xlink:href="#DejaVuSans-30" x="127.246094"/>
       <use xlink:href="#DejaVuSans-30" x="190.869141"/>
      </g>
     </g>
    </g>
    <g id="ytick_4">
     <g id="line2d_17">
      <path d="M 54 128.734694 
L 388.8 128.734694 
" clip-path="url(#pa86cd18381)" style="fill: none; stroke: #b0b0b0; stroke-width: 0.8; stroke-linecap: square"/>
     </g>
     <g id="line2d_18">
      <g>
       <use xlink:href="#mac2d13712e" x="54" y="128.734694" style="stroke: #000000; stroke-width: 0.8"/>
      </g>
     </g>
     <g id="text_9">
      <!-- 3000 -->
      <g transform="translate(21.55 132.533913) scale(0.1 -0.1)">
       <defs>
        <path id="DejaVuSans-33" d="M 2597 2516 
Q 3050 2419 3304 2112 
Q 3559 1806 3559 1356 
Q 3559 666 3084 287 
Q 2609 -91 1734 -91 
Q 1441 -91 1130 -33 
Q 819 25 488 141 
L 488 750 
Q 750 597 1062 519 
Q 1375 441 1716 441 
Q 2309 441 2620 675 
Q 2931 909 2931 1356 
Q 2931 1769 2642 2001 
Q 2353 2234 1838 2234 
L 1294 2234 
L 1294 2753 
L 1863 2753 
Q 2328 2753 2575 2939 
Q 2822 3125 2822 3475 
Q 2822 3834 2567 4026 
Q 2313 4219 1838 4219 
Q 1578 4219 1281 4162 
Q 984 4106 628 3988 
L 628 4550 
Q 988 4650 1302 4700 
Q 1616 4750 1894 4750 
Q 2613 4750 3031 4423 
Q 3450 4097 3450 3541 
Q 3450 3153 3228 2886 
Q 3006 2619 2597 2516 
z
" transform="scale(0.015625)"/>
       </defs>
       <use xlink:href="#DejaVuSans-33"/>
       <use xlink:href="#DejaVuSans-30" x="63.623047"/>
       <use xlink:href="#DejaVuSans-30" x="127.246094"/>
       <use xlink:href="#DejaVuSans-30" x="190.869141"/>
      </g>
     </g>
    </g>
    <g id="ytick_5">
     <g id="line2d_19">
      <path d="M 54 87.646259 
L 388.8 87.646259 
" clip-path="url(#pa86cd18381)" style="fill: none; stroke: #b0b0b0; stroke-width: 0.8; stroke-linecap: square"/>
     </g>
     <g id="line2d_20">
      <g>
       <use xlink:href="#mac2d13712e" x="54" y="87.646259" style="stroke: #000000; stroke-width: 0.8"/>
      </g>
     </g>
     <g id="text_10">
      <!-- 4000 -->
      <g transform="translate(21.55 91.445477) scale(0.1 -0.1)">
       <defs>
        <path id="DejaVuSans-34" d="M 2419 4116 
L 825 1625 
L 2419 1625 
L 2419 4116 
z
M 2253 4666 
L 3047 4666 
L 3047 1625 
L 3713 1625 
L 3713 1100 
L 3047 1100 
L 3047 0 
L 2419 0 
L 2419 1100 
L 313 1100 
L 313 1709 
L 2253 4666 
z
" transform="scale(0.015625)"/>
       </defs>
       <use xlink:href="#DejaVuSans-34"/>
       <use xlink:href="#DejaVuSans-30" x="63.623047"/>
       <use xlink:href="#DejaVuSans-30" x="127.246094"/>
       <use xlink:href="#DejaVuSans-30" x="190.869141"/>
      </g>
     </g>
    </g>
    <g id="ytick_6">
     <g id="line2d_21">
      <path d="M 54 46.557823 
L 388.8 46.557823 
" clip-path="url(#pa86cd18381)" style="fill: none; stroke: #b0b0b0; stroke-width: 0.8; stroke-linecap: square"/>
     </g>
     <g id="line2d_22">
      <g>
       <use xlink:href="#mac2d13712e" x="54" y="46.557823" style="stroke: #000000; stroke-width: 0.8"/>
      </g>
     </g>
     <g id="text_11">
      <!-- 5000 -->
      <g transform="translate(21.55 50.357042) scale(0.1 -0.1)">
       <use xlink:href="#DejaVuSans-35"/>
       <use xlink:href="#DejaVuSans-30" x="63.623047"/>
       <use xlink:href="#DejaVuSans-30" x="127.246094"/>
       <use xlink:href="#DejaVuSans-30" x="190.869141"/>
      </g>
     </g>
    </g>
   </g>
   <g id="line2d_23">
    <path d="M 291.230345 252 
L 291.230345 247.891156 
" clip-path="url(#pa86cd18381)" style="fill: none; stroke: #ff0000; stroke-width: 1.5; stroke-linecap: square"/>
   </g>
   <g id="patch_104">
    <path d="M 54 252 
L 54 34.56 
" style="fill: none; stroke: #000000; stroke-width: 0.8; stroke-linejoin: miter; stroke-linecap: square"/>
   </g>
   <g id="patch_105">
    <path d="M 388.8 252 
L 388.8 34.56 
" style="fill: none; stroke: #000000; stroke-width: 0.8; stroke-linejoin: miter; stroke-linecap: square"/>
   </g>
   <g id="patch_106">
    <path d="M 54 252 
L 388.8 252 
" style="fill: none; stroke: #000000; stroke-width: 0.8; stroke-linejoin: miter; stroke-linecap: square"/>
   </g>
   <g id="patch_107">
    <path d="M 54 34.56 
L 388.8 34.56 
" style="fill: none; stroke: #000000; stroke-width: 0.8; stroke-linejoin: miter; stroke-linecap: square"/>
   </g>
   <g id="text_12">
    <!-- Invesco Real Estate Income Trust Inc. (INREIT) -->
    <g transform="translate(83.402813 28.56) scale(0.12 -0.12)">
     <defs>
      <path id="DejaVuSans-49" d="M 628 4666 
L 1259 4666 
L 1259 0 
L 628 0 
L 628 4666 
z
" transform="scale(0.015625)"/>
      <path id="DejaVuSans-6e" d="M 3513 2113 
L 3513 0 
L 2938 0 
L 2938 2094 
Q 2938 2591 2744 2837 
Q 2550 3084 2163 3084 
Q 1697 3084 1428 2787 
Q 1159 2491 1159 1978 
L 1159 0 
L 581 0 
L 581 3500 
L 1159 3500 
L 1159 2956 
Q 1366 3272 1645 3428 
Q 1925 3584 2291 3584 
Q 2894 3584 3203 3211 
Q 3513 2838 3513 2113 
z
" transform="scale(0.015625)"/>
      <path id="DejaVuSans-76" d="M 191 3500 
L 800 3500 
L 1894 563 
L 2988 3500 
L 3597 3500 
L 2284 0 
L 1503 0 
L 191 3500 
z
" transform="scale(0.015625)"/>
      <path id="DejaVuSans-65" d="M 3597 1894 
L 3597 1613 
L 953 1613 
Q 991 1019 1311 708 
Q 1631 397 2203 397 
Q 2534 397 2845 478 
Q 3156 559 3463 722 
L 3463 178 
Q 3153 47 2828 -22 
Q 2503 -91 2169 -91 
Q 1331 -91 842 396 
Q 353 884 353 1716 
Q 353 2575 817 3079 
Q 1281 3584 2069 3584 
Q 2775 3584 3186 3129 
Q 3597 2675 3597 1894 
z
M 3022 2063 
Q 3016 2534 2758 2815 
Q 2500 3097 2075 3097 
Q 1594 3097 1305 2825 
Q 1016 2553 972 2059 
L 3022 2063 
z
" transform="scale(0.015625)"/>
      <path id="DejaVuSans-73" d="M 2834 3397 
L 2834 2853 
Q 2591 2978 2328 3040 
Q 2066 3103 1784 3103 
Q 1356 3103 1142 2972 
Q 928 2841 928 2578 
Q 928 2378 1081 2264 
Q 1234 2150 1697 2047 
L 1894 2003 
Q 2506 1872 2764 1633 
Q 3022 1394 3022 966 
Q 3022 478 2636 193 
Q 2250 -91 1575 -91 
Q 1294 -91 989 -36 
Q 684 19 347 128 
L 347 722 
Q 666 556 975 473 
Q 1284 391 1588 391 
Q 1994 391 2212 530 
Q 2431 669 2431 922 
Q 2431 1156 2273 1281 
Q 2116 1406 1581 1522 
L 1381 1569 
Q 847 1681 609 1914 
Q 372 2147 372 2553 
Q 372 3047 722 3315 
Q 1072 3584 1716 3584 
Q 2034 3584 2315 3537 
Q 2597 3491 2834 3397 
z
" transform="scale(0.015625)"/>
      <path id="DejaVuSans-63" d="M 3122 3366 
L 3122 2828 
Q 2878 2963 2633 3030 
Q 2388 3097 2138 3097 
Q 1578 3097 1268 2742 
Q 959 2388 959 1747 
Q 959 1106 1268 751 
Q 1578 397 2138 397 
Q 2388 397 2633 464 
Q 2878 531 3122 666 
L 3122 134 
Q 2881 22 2623 -34 
Q 2366 -91 2075 -91 
Q 1284 -91 818 406 
Q 353 903 353 1747 
Q 353 2603 823 3093 
Q 1294 3584 2113 3584 
Q 2378 3584 2631 3529 
Q 2884 3475 3122 3366 
z
" transform="scale(0.015625)"/>
      <path id="DejaVuSans-6f" d="M 1959 3097 
Q 1497 3097 1228 2736 
Q 959 2375 959 1747 
Q 959 1119 1226 758 
Q 1494 397 1959 397 
Q 2419 397 2687 759 
Q 2956 1122 2956 1747 
Q 2956 2369 2687 2733 
Q 2419 3097 1959 3097 
z
M 1959 3584 
Q 2709 3584 3137 3096 
Q 3566 2609 3566 1747 
Q 3566 888 3137 398 
Q 2709 -91 1959 -91 
Q 1206 -91 779 398 
Q 353 888 353 1747 
Q 353 2609 779 3096 
Q 1206 3584 1959 3584 
z
" transform="scale(0.015625)"/>
      <path id="DejaVuSans-20" transform="scale(0.015625)"/>
      <path id="DejaVuSans-52" d="M 2841 2188 
Q 3044 2119 3236 1894 
Q 3428 1669 3622 1275 
L 4263 0 
L 3584 0 
L 2988 1197 
Q 2756 1666 2539 1819 
Q 2322 1972 1947 1972 
L 1259 1972 
L 1259 0 
L 628 0 
L 628 4666 
L 2053 4666 
Q 2853 4666 3247 4331 
Q 3641 3997 3641 3322 
Q 3641 2881 3436 2590 
Q 3231 2300 2841 2188 
z
M 1259 4147 
L 1259 2491 
L 2053 2491 
Q 2509 2491 2742 2702 
Q 2975 2913 2975 3322 
Q 2975 3731 2742 3939 
Q 2509 4147 2053 4147 
L 1259 4147 
z
" transform="scale(0.015625)"/>
      <path id="DejaVuSans-61" d="M 2194 1759 
Q 1497 1759 1228 1600 
Q 959 1441 959 1056 
Q 959 750 1161 570 
Q 1363 391 1709 391 
Q 2188 391 2477 730 
Q 2766 1069 2766 1631 
L 2766 1759 
L 2194 1759 
z
M 3341 1997 
L 3341 0 
L 2766 0 
L 2766 531 
Q 2569 213 2275 61 
Q 1981 -91 1556 -91 
Q 1019 -91 701 211 
Q 384 513 384 1019 
Q 384 1609 779 1909 
Q 1175 2209 1959 2209 
L 2766 2209 
L 2766 2266 
Q 2766 2663 2505 2880 
Q 2244 3097 1772 3097 
Q 1472 3097 1187 3025 
Q 903 2953 641 2809 
L 641 3341 
Q 956 3463 1253 3523 
Q 1550 3584 1831 3584 
Q 2591 3584 2966 3190 
Q 3341 2797 3341 1997 
z
" transform="scale(0.015625)"/>
      <path id="DejaVuSans-6c" d="M 603 4863 
L 1178 4863 
L 1178 0 
L 603 0 
L 603 4863 
z
" transform="scale(0.015625)"/>
      <path id="DejaVuSans-45" d="M 628 4666 
L 3578 4666 
L 3578 4134 
L 1259 4134 
L 1259 2753 
L 3481 2753 
L 3481 2222 
L 1259 2222 
L 1259 531 
L 3634 531 
L 3634 0 
L 628 0 
L 628 4666 
z
" transform="scale(0.015625)"/>
      <path id="DejaVuSans-74" d="M 1172 4494 
L 1172 3500 
L 2356 3500 
L 2356 3053 
L 1172 3053 
L 1172 1153 
Q 1172 725 1289 603 
Q 1406 481 1766 481 
L 2356 481 
L 2356 0 
L 1766 0 
Q 1100 0 847 248 
Q 594 497 594 1153 
L 594 3053 
L 172 3053 
L 172 3500 
L 594 3500 
L 594 4494 
L 1172 4494 
z
" transform="scale(0.015625)"/>
      <path id="DejaVuSans-6d" d="M 3328 2828 
Q 3544 3216 3844 3400 
Q 4144 3584 4550 3584 
Q 5097 3584 5394 3201 
Q 5691 2819 5691 2113 
L 5691 0 
L 5113 0 
L 5113 2094 
Q 5113 2597 4934 2840 
Q 4756 3084 4391 3084 
Q 3944 3084 3684 2787 
Q 3425 2491 3425 1978 
L 3425 0 
L 2847 0 
L 2847 2094 
Q 2847 2600 2669 2842 
Q 2491 3084 2119 3084 
Q 1678 3084 1418 2786 
Q 1159 2488 1159 1978 
L 1159 0 
L 581 0 
L 581 3500 
L 1159 3500 
L 1159 2956 
Q 1356 3278 1631 3431 
Q 1906 3584 2284 3584 
Q 2666 3584 2933 3390 
Q 3200 3197 3328 2828 
z
" transform="scale(0.015625)"/>
      <path id="DejaVuSans-54" d="M -19 4666 
L 3928 4666 
L 3928 4134 
L 2272 4134 
L 2272 0 
L 1638 0 
L 1638 4134 
L -19 4134 
L -19 4666 
z
" transform="scale(0.015625)"/>
      <path id="DejaVuSans-72" d="M 2631 2963 
Q 2534 3019 2420 3045 
Q 2306 3072 2169 3072 
Q 1681 3072 1420 2755 
Q 1159 2438 1159 1844 
L 1159 0 
L 581 0 
L 581 3500 
L 1159 3500 
L 1159 2956 
Q 1341 3275 1631 3429 
Q 1922 3584 2338 3584 
Q 2397 3584 2469 3576 
Q 2541 3569 2628 3553 
L 2631 2963 
z
" transform="scale(0.015625)"/>
      <path id="DejaVuSans-75" d="M 544 1381 
L 544 3500 
L 1119 3500 
L 1119 1403 
Q 1119 906 1312 657 
Q 1506 409 1894 409 
Q 2359 409 2629 706 
Q 2900 1003 2900 1516 
L 2900 3500 
L 3475 3500 
L 3475 0 
L 2900 0 
L 2900 538 
Q 2691 219 2414 64 
Q 2138 -91 1772 -91 
Q 1169 -91 856 284 
Q 544 659 544 1381 
z
M 1991 3584 
L 1991 3584 
z
" transform="scale(0.015625)"/>
      <path id="DejaVuSans-2e" d="M 684 794 
L 1344 794 
L 1344 0 
L 684 0 
L 684 794 
z
" transform="scale(0.015625)"/>
      <path id="DejaVuSans-28" d="M 1984 4856 
Q 1566 4138 1362 3434 
Q 1159 2731 1159 2009 
Q 1159 1288 1364 580 
Q 1569 -128 1984 -844 
L 1484 -844 
Q 1016 -109 783 600 
Q 550 1309 550 2009 
Q 550 2706 781 3412 
Q 1013 4119 1484 4856 
L 1984 4856 
z
" transform="scale(0.015625)"/>
      <path id="DejaVuSans-4e" d="M 628 4666 
L 1478 4666 
L 3547 763 
L 3547 4666 
L 4159 4666 
L 4159 0 
L 3309 0 
L 1241 3903 
L 1241 0 
L 628 0 
L 628 4666 
z
" transform="scale(0.015625)"/>
      <path id="DejaVuSans-29" d="M 513 4856 
L 1013 4856 
Q 1481 4119 1714 3412 
Q 1947 2706 1947 2009 
Q 1947 1309 1714 600 
Q 1481 -109 1013 -844 
L 513 -844 
Q 928 -128 1133 580 
Q 1338 1288 1338 2009 
Q 1338 2731 1133 3434 
Q 928 4138 513 4856 
z
" transform="scale(0.015625)"/>
     </defs>
     <use xlink:href="#DejaVuSans-49"/>
     <use xlink:href="#DejaVuSans-6e" x="29.492188"/>
     <use xlink:href="#DejaVuSans-76" x="92.871094"/>
     <use xlink:href="#DejaVuSans-65" x="152.050781"/>
     <use xlink:href="#DejaVuSans-73" x="213.574219"/>
     <use xlink:href="#DejaVuSans-63" x="265.673828"/>
     <use xlink:href="#DejaVuSans-6f" x="320.654297"/>
     <use xlink:href="#DejaVuSans-20" x="381.835938"/>
     <use xlink:href="#DejaVuSans-52" x="413.623047"/>
     <use xlink:href="#DejaVuSans-65" x="478.605469"/>
     <use xlink:href="#DejaVuSans-61" x="540.128906"/>
     <use xlink:href="#DejaVuSans-6c" x="601.408203"/>
     <use xlink:href="#DejaVuSans-20" x="629.191406"/>
     <use xlink:href="#DejaVuSans-45" x="660.978516"/>
     <use xlink:href="#DejaVuSans-73" x="724.162109"/>
     <use xlink:href="#DejaVuSans-74" x="776.261719"/>
     <use xlink:href="#DejaVuSans-61" x="815.470703"/>
     <use xlink:href="#DejaVuSans-74" x="876.75"/>
     <use xlink:href="#DejaVuSans-65" x="915.958984"/>
     <use xlink:href="#DejaVuSans-20" x="977.482422"/>
     <use xlink:href="#DejaVuSans-49" x="1009.269531"/>
     <use xlink:href="#DejaVuSans-6e" x="1038.761719"/>
     <use xlink:href="#DejaVuSans-63" x="1102.140625"/>
     <use xlink:href="#DejaVuSans-6f" x="1157.121094"/>
     <use xlink:href="#DejaVuSans-6d" x="1218.302734"/>
     <use xlink:href="#DejaVuSans-65" x="1315.714844"/>
     <use xlink:href="#DejaVuSans-20" x="1377.238281"/>
     <use xlink:href="#DejaVuSans-54" x="1409.025391"/>
     <use xlink:href="#DejaVuSans-72" x="1455.359375"/>
     <use xlink:href="#DejaVuSans-75" x="1496.472656"/>
     <use xlink:href="#DejaVuSans-73" x="1559.851562"/>
     <use xlink:href="#DejaVuSans-74" x="1611.951172"/>
     <use xlink:href="#DejaVuSans-20" x="1651.160156"/>
     <use xlink:href="#DejaVuSans-49" x="1682.947266"/>
     <use xlink:href="#DejaVuSans-6e" x="1712.439453"/>
     <use xlink:href="#DejaVuSans-63" x="1775.818359"/>
     <use xlink:href="#DejaVuSans-2e" x="1830.798828"/>
     <use xlink:href="#DejaVuSans-20" x="1862.585938"/>
     <use xlink:href="#DejaVuSans-28" x="1894.373047"/>
     <use xlink:href="#DejaVuSans-49" x="1933.386719"/>
     <use xlink:href="#DejaVuSans-4e" x="1962.878906"/>
     <use xlink:href="#DejaVuSans-52" x="2037.683594"/>
     <use xlink:href="#DejaVuSans-45" x="2107.166016"/>
     <use xlink:href="#DejaVuSans-49" x="2170.349609"/>
     <use xlink:href="#DejaVuSans-54" x="2199.841797"/>
     <use xlink:href="#DejaVuSans-29" x="2260.925781"/>
    </g>
   </g>
   <g id="legend_1">
    <g id="patch_108">
     <path d="M 272.604688 57.238125 
L 381.8 57.238125 
Q 383.8 57.238125 383.8 55.238125 
L 383.8 41.56 
Q 383.8 39.56 381.8 39.56 
L 272.604688 39.56 
Q 270.604688 39.56 270.604688 41.56 
L 270.604688 55.238125 
Q 270.604688 57.238125 272.604688 57.238125 
z
" style="fill: #ffffff; opacity: 0.8; stroke: #cccccc; stroke-linejoin: miter"/>
    </g>
    <g id="line2d_24">
     <path d="M 274.604688 47.658437 
L 284.604688 47.658437 
L 294.604688 47.658437 
" style="fill: none; stroke: #ff0000; stroke-width: 1.5; stroke-linecap: square"/>
    </g>
    <g id="text_13">
     <!-- historical mean -->
     <g transform="translate(302.604688 51.158437) scale(0.1 -0.1)">
      <defs>
       <path id="DejaVuSans-68" d="M 3513 2113 
L 3513 0 
L 2938 0 
L 2938 2094 
Q 2938 2591 2744 2837 
Q 2550 3084 2163 3084 
Q 1697 3084 1428 2787 
Q 1159 2491 1159 1978 
L 1159 0 
L 581 0 
L 581 4863 
L 1159 4863 
L 1159 2956 
Q 1366 3272 1645 3428 
Q 1925 3584 2291 3584 
Q 2894 3584 3203 3211 
Q 3513 2838 3513 2113 
z
" transform="scale(0.015625)"/>
       <path id="DejaVuSans-69" d="M 603 3500 
L 1178 3500 
L 1178 0 
L 603 0 
L 603 3500 
z
M 603 4863 
L 1178 4863 
L 1178 4134 
L 603 4134 
L 603 4863 
z
" transform="scale(0.015625)"/>
      </defs>
      <use xlink:href="#DejaVuSans-68"/>
      <use xlink:href="#DejaVuSans-69" x="63.378906"/>
      <use xlink:href="#DejaVuSans-73" x="91.162109"/>
      <use xlink:href="#DejaVuSans-74" x="143.261719"/>
      <use xlink:href="#DejaVuSans-6f" x="182.470703"/>
      <use xlink:href="#DejaVuSans-72" x="243.652344"/>
      <use xlink:href="#DejaVuSans-69" x="284.765625"/>
      <use xlink:href="#DejaVuSans-63" x="312.548828"/>
      <use xlink:href="#DejaVuSans-61" x="367.529297"/>
      <use xlink:href="#DejaVuSans-6c" x="428.808594"/>
      <use xlink:href="#DejaVuSans-20" x="456.591797"/>
      <use xlink:href="#DejaVuSans-6d" x="488.378906"/>
      <use xlink:href="#DejaVuSans-65" x="585.791016"/>
      <use xlink:href="#DejaVuSans-61" x="647.314453"/>
      <use xlink:href="#DejaVuSans-6e" x="708.59375"/>
     </g>
    </g>
   </g>
  </g>
 </g>
 <defs>
  <clipPath id="pa86cd18381">
   <rect x="54" y="34.56" width="334.8" height="217.44"/>
  </clipPath>
 </defs>
</svg>
