<?xml version="1.0" encoding="utf-8" standalone="no"?>
<!DOCTYPE svg PUBLIC "-//W3C//DTD SVG 1.1//EN"
  "http://www.w3.org/Graphics/SVG/1.1/DTD/svg11.dtd">
<svg xmlns:xlink="http://www.w3.org/1999/xlink" width="432pt" height="288pt" viewBox="0 0 432 288" xmlns="http://www.w3.org/2000/svg" version="1.1">
 <metadata>
  <rdf:RDF xmlns:dc="http://purl.org/dc/elements/1.1/" xmlns:cc="http://creativecommons.org/ns#" xmlns:rdf="http://www.w3.org/1999/02/22-rdf-syntax-ns#">
   <cc:Work>
    <dc:type rdf:resource="http://purl.org/dc/dcmitype/StillImage"/>
    <dc:date>2024-07-25T10:06:47.664504</dc:date>
    <dc:format>image/svg+xml</dc:format>
    <dc:creator>
     <cc:Agent>
      <dc:title>Matplotlib v3.7.1, https://matplotlib.org/</dc:title>
     </cc:Agent>
    </dc:creator>
   </cc:Work>
  </rdf:RDF>
 </metadata>
 <defs>
  <style type="text/css">*{stroke-linejoin: round; stroke-linecap: butt}</style>
 </defs>
 <g id="figure_1">
  <g id="patch_1">
   <path d="M 0 288 
L 432 288 
L 432 0 
L 0 0 
z
" style="fill: #ffffff"/>
  </g>
  <g id="axes_1">
   <g id="patch_2">
    <path d="M 54 252 
L 388.8 252 
L 388.8 34.56 
L 54 34.56 
z
" style="fill: #ffffff"/>
   </g>
   <g id="patch_3">
    <path d="M 69.218182 252 
L 72.231683 252 
L 72.231683 251.705844 
L 69.218182 251.705844 
z
" clip-path="url(#p9dc5368ea9)" style="fill: #1f77b4"/>
   </g>
   <g id="patch_4">
    <path d="M 72.231683 252 
L 75.245185 252 
L 75.245185 251.705844 
L 72.231683 251.705844 
z
" clip-path="url(#p9dc5368ea9)" style="fill: #1f77b4"/>
   </g>
   <g id="patch_5">
    <path d="M 75.245185 252 
L 78.258686 252 
L 78.258686 251.705844 
L 75.245185 251.705844 
z
" clip-path="url(#p9dc5368ea9)" style="fill: #1f77b4"/>
   </g>
   <g id="patch_6">
    <path d="M 78.258686 252 
L 81.272187 252 
L 81.272187 252 
L 78.258686 252 
z
" clip-path="url(#p9dc5368ea9)" style="fill: #1f77b4"/>
   </g>
   <g id="patch_7">
    <path d="M 81.272187 252 
L 84.285689 252 
L 84.285689 252 
L 81.272187 252 
z
" clip-path="url(#p9dc5368ea9)" style="fill: #1f77b4"/>
   </g>
   <g id="patch_8">
    <path d="M 84.285689 252 
L 87.29919 252 
L 87.29919 252 
L 84.285689 252 
z
" clip-path="url(#p9dc5368ea9)" style="fill: #1f77b4"/>
   </g>
   <g id="patch_9">
    <path d="M 87.29919 252 
L 90.312691 252 
L 90.312691 251.411688 
L 87.29919 251.411688 
z
" clip-path="url(#p9dc5368ea9)" style="fill: #1f77b4"/>
   </g>
   <g id="patch_10">
    <path d="M 90.312691 252 
L 93.326193 252 
L 93.326193 251.705844 
L 90.312691 251.705844 
z
" clip-path="url(#p9dc5368ea9)" style="fill: #1f77b4"/>
   </g>
   <g id="patch_11">
    <path d="M 93.326193 252 
L 96.339694 252 
L 96.339694 251.117532 
L 93.326193 251.117532 
z
" clip-path="url(#p9dc5368ea9)" style="fill: #1f77b4"/>
   </g>
   <g id="patch_12">
    <path d="M 96.339694 252 
L 99.353195 252 
L 99.353195 250.529221 
L 96.339694 250.529221 
z
" clip-path="url(#p9dc5368ea9)" style="fill: #1f77b4"/>
   </g>
   <g id="patch_13">
    <path d="M 99.353195 252 
L 102.366697 252 
L 102.366697 250.823377 
L 99.353195 250.823377 
z
" clip-path="url(#p9dc5368ea9)" style="fill: #1f77b4"/>
   </g>
   <g id="patch_14">
    <path d="M 102.366697 252 
L 105.380198 252 
L 105.380198 250.529221 
L 102.366697 250.529221 
z
" clip-path="url(#p9dc5368ea9)" style="fill: #1f77b4"/>
   </g>
   <g id="patch_15">
    <path d="M 105.380198 252 
L 108.393699 252 
L 108.393699 250.235065 
L 105.380198 250.235065 
z
" clip-path="url(#p9dc5368ea9)" style="fill: #1f77b4"/>
   </g>
   <g id="patch_16">
    <path d="M 108.393699 252 
L 111.407201 252 
L 111.407201 249.940909 
L 108.393699 249.940909 
z
" clip-path="url(#p9dc5368ea9)" style="fill: #1f77b4"/>
   </g>
   <g id="patch_17">
    <path d="M 111.407201 252 
L 114.420702 252 
L 114.420702 249.940909 
L 111.407201 249.940909 
z
" clip-path="url(#p9dc5368ea9)" style="fill: #1f77b4"/>
   </g>
   <g id="patch_18">
    <path d="M 114.420702 252 
L 117.434203 252 
L 117.434203 247.881818 
L 114.420702 247.881818 
z
" clip-path="url(#p9dc5368ea9)" style="fill: #1f77b4"/>
   </g>
   <g id="patch_19">
    <path d="M 117.434203 252 
L 120.447705 252 
L 120.447705 247.293506 
L 117.434203 247.293506 
z
" clip-path="url(#p9dc5368ea9)" style="fill: #1f77b4"/>
   </g>
   <g id="patch_20">
    <path d="M 120.447705 252 
L 123.461206 252 
L 123.461206 244.94026 
L 120.447705 244.94026 
z
" clip-path="url(#p9dc5368ea9)" style="fill: #1f77b4"/>
   </g>
   <g id="patch_21">
    <path d="M 123.461206 252 
L 126.474707 252 
L 126.474707 246.411039 
L 123.461206 246.411039 
z
" clip-path="url(#p9dc5368ea9)" style="fill: #1f77b4"/>
   </g>
   <g id="patch_22">
    <path d="M 126.474707 252 
L 129.488209 252 
L 129.488209 244.057792 
L 126.474707 244.057792 
z
" clip-path="url(#p9dc5368ea9)" style="fill: #1f77b4"/>
   </g>
   <g id="patch_23">
    <path d="M 129.488209 252 
L 132.50171 252 
L 132.50171 239.645455 
L 129.488209 239.645455 
z
" clip-path="url(#p9dc5368ea9)" style="fill: #1f77b4"/>
   </g>
   <g id="patch_24">
    <path d="M 132.50171 252 
L 135.515212 252 
L 135.515212 239.93961 
L 132.50171 239.93961 
z
" clip-path="url(#p9dc5368ea9)" style="fill: #1f77b4"/>
   </g>
   <g id="patch_25">
    <path d="M 135.515212 252 
L 138.528713 252 
L 138.528713 233.468182 
L 135.515212 233.468182 
z
" clip-path="url(#p9dc5368ea9)" style="fill: #1f77b4"/>
   </g>
   <g id="patch_26">
    <path d="M 138.528713 252 
L 141.542214 252 
L 141.542214 232.291558 
L 138.528713 232.291558 
z
" clip-path="url(#p9dc5368ea9)" style="fill: #1f77b4"/>
   </g>
   <g id="patch_27">
    <path d="M 141.542214 252 
L 144.555716 252 
L 144.555716 230.526623 
L 141.542214 230.526623 
z
" clip-path="url(#p9dc5368ea9)" style="fill: #1f77b4"/>
   </g>
   <g id="patch_28">
    <path d="M 144.555716 252 
L 147.569217 252 
L 147.569217 221.407792 
L 144.555716 221.407792 
z
" clip-path="url(#p9dc5368ea9)" style="fill: #1f77b4"/>
   </g>
   <g id="patch_29">
    <path d="M 147.569217 252 
L 150.582718 252 
L 150.582718 229.644156 
L 147.569217 229.644156 
z
" clip-path="url(#p9dc5368ea9)" style="fill: #1f77b4"/>
   </g>
   <g id="patch_30">
    <path d="M 150.582718 252 
L 153.59622 252 
L 153.59622 221.996104 
L 150.582718 221.996104 
z
" clip-path="url(#p9dc5368ea9)" style="fill: #1f77b4"/>
   </g>
   <g id="patch_31">
    <path d="M 153.59622 252 
L 156.609721 252 
L 156.609721 223.761039 
L 153.59622 223.761039 
z
" clip-path="url(#p9dc5368ea9)" style="fill: #1f77b4"/>
   </g>
   <g id="patch_32">
    <path d="M 156.609721 252 
L 159.623222 252 
L 159.623222 206.994156 
L 156.609721 206.994156 
z
" clip-path="url(#p9dc5368ea9)" style="fill: #1f77b4"/>
   </g>
   <g id="patch_33">
    <path d="M 159.623222 252 
L 162.636724 252 
L 162.636724 199.934416 
L 159.623222 199.934416 
z
" clip-path="url(#p9dc5368ea9)" style="fill: #1f77b4"/>
   </g>
   <g id="patch_34">
    <path d="M 162.636724 252 
L 165.650225 252 
L 165.650225 205.229221 
L 162.636724 205.229221 
z
" clip-path="url(#p9dc5368ea9)" style="fill: #1f77b4"/>
   </g>
   <g id="patch_35">
    <path d="M 165.650225 252 
L 168.663726 252 
L 168.663726 190.815584 
L 165.650225 190.815584 
z
" clip-path="url(#p9dc5368ea9)" style="fill: #1f77b4"/>
   </g>
   <g id="patch_36">
    <path d="M 168.663726 252 
L 171.677228 252 
L 171.677228 188.168182 
L 168.663726 188.168182 
z
" clip-path="url(#p9dc5368ea9)" style="fill: #1f77b4"/>
   </g>
   <g id="patch_37">
    <path d="M 171.677228 252 
L 174.690729 252 
L 174.690729 171.401299 
L 171.677228 171.401299 
z
" clip-path="url(#p9dc5368ea9)" style="fill: #1f77b4"/>
   </g>
   <g id="patch_38">
    <path d="M 174.690729 252 
L 177.70423 252 
L 177.70423 169.636364 
L 174.690729 169.636364 
z
" clip-path="url(#p9dc5368ea9)" style="fill: #1f77b4"/>
   </g>
   <g id="patch_39">
    <path d="M 177.70423 252 
L 180.717732 252 
L 180.717732 166.400649 
L 177.70423 166.400649 
z
" clip-path="url(#p9dc5368ea9)" style="fill: #1f77b4"/>
   </g>
   <g id="patch_40">
    <path d="M 180.717732 252 
L 183.731233 252 
L 183.731233 152.869481 
L 180.717732 152.869481 
z
" clip-path="url(#p9dc5368ea9)" style="fill: #1f77b4"/>
   </g>
   <g id="patch_41">
    <path d="M 183.731233 252 
L 186.744734 252 
L 186.744734 146.103896 
L 183.731233 146.103896 
z
" clip-path="url(#p9dc5368ea9)" style="fill: #1f77b4"/>
   </g>
   <g id="patch_42">
    <path d="M 186.744734 252 
L 189.758236 252 
L 189.758236 126.68961 
L 186.744734 126.68961 
z
" clip-path="url(#p9dc5368ea9)" style="fill: #1f77b4"/>
   </g>
   <g id="patch_43">
    <path d="M 189.758236 252 
L 192.771737 252 
L 192.771737 108.157792 
L 189.758236 108.157792 
z
" clip-path="url(#p9dc5368ea9)" style="fill: #1f77b4"/>
   </g>
   <g id="patch_44">
    <path d="M 192.771737 252 
L 195.785239 252 
L 195.785239 97.568182 
L 192.771737 97.568182 
z
" clip-path="url(#p9dc5368ea9)" style="fill: #1f77b4"/>
   </g>
   <g id="patch_45">
    <path d="M 195.785239 252 
L 198.79874 252 
L 198.79874 111.687662 
L 195.785239 111.687662 
z
" clip-path="url(#p9dc5368ea9)" style="fill: #1f77b4"/>
   </g>
   <g id="patch_46">
    <path d="M 198.79874 252 
L 201.812241 252 
L 201.812241 83.742857 
L 198.79874 83.742857 
z
" clip-path="url(#p9dc5368ea9)" style="fill: #1f77b4"/>
   </g>
   <g id="patch_47">
    <path d="M 201.812241 252 
L 204.825743 252 
L 204.825743 76.388961 
L 201.812241 76.388961 
z
" clip-path="url(#p9dc5368ea9)" style="fill: #1f77b4"/>
   </g>
   <g id="patch_48">
    <path d="M 204.825743 252 
L 207.839244 252 
L 207.839244 71.682468 
L 204.825743 71.682468 
z
" clip-path="url(#p9dc5368ea9)" style="fill: #1f77b4"/>
   </g>
   <g id="patch_49">
    <path d="M 207.839244 252 
L 210.852745 252 
L 210.852745 65.505195 
L 207.839244 65.505195 
z
" clip-path="url(#p9dc5368ea9)" style="fill: #1f77b4"/>
   </g>
   <g id="patch_50">
    <path d="M 210.852745 252 
L 213.866247 252 
L 213.866247 56.974675 
L 210.852745 56.974675 
z
" clip-path="url(#p9dc5368ea9)" style="fill: #1f77b4"/>
   </g>
   <g id="patch_51">
    <path d="M 213.866247 252 
L 216.879748 252 
L 216.879748 79.036364 
L 213.866247 79.036364 
z
" clip-path="url(#p9dc5368ea9)" style="fill: #1f77b4"/>
   </g>
   <g id="patch_52">
    <path d="M 216.879748 252 
L 219.893249 252 
L 219.893249 60.798701 
L 216.879748 60.798701 
z
" clip-path="url(#p9dc5368ea9)" style="fill: #1f77b4"/>
   </g>
   <g id="patch_53">
    <path d="M 219.893249 252 
L 222.906751 252 
L 222.906751 44.914286 
L 219.893249 44.914286 
z
" clip-path="url(#p9dc5368ea9)" style="fill: #1f77b4"/>
   </g>
   <g id="patch_54">
    <path d="M 222.906751 252 
L 225.920252 252 
L 225.920252 58.73961 
L 222.906751 58.73961 
z
" clip-path="url(#p9dc5368ea9)" style="fill: #1f77b4"/>
   </g>
   <g id="patch_55">
    <path d="M 225.920252 252 
L 228.933753 252 
L 228.933753 70.8 
L 225.920252 70.8 
z
" clip-path="url(#p9dc5368ea9)" style="fill: #1f77b4"/>
   </g>
   <g id="patch_56">
    <path d="M 228.933753 252 
L 231.947255 252 
L 231.947255 61.681169 
L 228.933753 61.681169 
z
" clip-path="url(#p9dc5368ea9)" style="fill: #1f77b4"/>
   </g>
   <g id="patch_57">
    <path d="M 231.947255 252 
L 234.960756 252 
L 234.960756 61.975325 
L 231.947255 61.975325 
z
" clip-path="url(#p9dc5368ea9)" style="fill: #1f77b4"/>
   </g>
   <g id="patch_58">
    <path d="M 234.960756 252 
L 237.974257 252 
L 237.974257 71.682468 
L 234.960756 71.682468 
z
" clip-path="url(#p9dc5368ea9)" style="fill: #1f77b4"/>
   </g>
   <g id="patch_59">
    <path d="M 237.974257 252 
L 240.987759 252 
L 240.987759 73.153247 
L 237.974257 73.153247 
z
" clip-path="url(#p9dc5368ea9)" style="fill: #1f77b4"/>
   </g>
   <g id="patch_60">
    <path d="M 240.987759 252 
L 244.00126 252 
L 244.00126 79.330519 
L 240.987759 79.330519 
z
" clip-path="url(#p9dc5368ea9)" style="fill: #1f77b4"/>
   </g>
   <g id="patch_61">
    <path d="M 244.00126 252 
L 247.014761 252 
L 247.014761 88.449351 
L 244.00126 88.449351 
z
" clip-path="url(#p9dc5368ea9)" style="fill: #1f77b4"/>
   </g>
   <g id="patch_62">
    <path d="M 247.014761 252 
L 250.028263 252 
L 250.028263 104.333766 
L 247.014761 104.333766 
z
" clip-path="url(#p9dc5368ea9)" style="fill: #1f77b4"/>
   </g>
   <g id="patch_63">
    <path d="M 250.028263 252 
L 253.041764 252 
L 253.041764 107.863636 
L 250.028263 107.863636 
z
" clip-path="url(#p9dc5368ea9)" style="fill: #1f77b4"/>
   </g>
   <g id="patch_64">
    <path d="M 253.041764 252 
L 256.055266 252 
L 256.055266 124.924675 
L 253.041764 124.924675 
z
" clip-path="url(#p9dc5368ea9)" style="fill: #1f77b4"/>
   </g>
   <g id="patch_65">
    <path d="M 256.055266 252 
L 259.068767 252 
L 259.068767 131.69026 
L 256.055266 131.69026 
z
" clip-path="url(#p9dc5368ea9)" style="fill: #1f77b4"/>
   </g>
   <g id="patch_66">
    <path d="M 259.068767 252 
L 262.082268 252 
L 262.082268 139.338312 
L 259.068767 139.338312 
z
" clip-path="url(#p9dc5368ea9)" style="fill: #1f77b4"/>
   </g>
   <g id="patch_67">
    <path d="M 262.082268 252 
L 265.09577 252 
L 265.09577 152.575325 
L 262.082268 152.575325 
z
" clip-path="url(#p9dc5368ea9)" style="fill: #1f77b4"/>
   </g>
   <g id="patch_68">
    <path d="M 265.09577 252 
L 268.109271 252 
L 268.109271 159.046753 
L 265.09577 159.046753 
z
" clip-path="url(#p9dc5368ea9)" style="fill: #1f77b4"/>
   </g>
   <g id="patch_69">
    <path d="M 268.109271 252 
L 271.122772 252 
L 271.122772 170.224675 
L 268.109271 170.224675 
z
" clip-path="url(#p9dc5368ea9)" style="fill: #1f77b4"/>
   </g>
   <g id="patch_70">
    <path d="M 271.122772 252 
L 274.136274 252 
L 274.136274 182.579221 
L 271.122772 182.579221 
z
" clip-path="url(#p9dc5368ea9)" style="fill: #1f77b4"/>
   </g>
   <g id="patch_71">
    <path d="M 274.136274 252 
L 277.149775 252 
L 277.149775 194.933766 
L 274.136274 194.933766 
z
" clip-path="url(#p9dc5368ea9)" style="fill: #1f77b4"/>
   </g>
   <g id="patch_72">
    <path d="M 277.149775 252 
L 280.163276 252 
L 280.163276 197.875325 
L 277.149775 197.875325 
z
" clip-path="url(#p9dc5368ea9)" style="fill: #1f77b4"/>
   </g>
   <g id="patch_73">
    <path d="M 280.163276 252 
L 283.176778 252 
L 283.176778 200.228571 
L 280.163276 200.228571 
z
" clip-path="url(#p9dc5368ea9)" style="fill: #1f77b4"/>
   </g>
   <g id="patch_74">
    <path d="M 283.176778 252 
L 286.190279 252 
L 286.190279 211.406494 
L 283.176778 211.406494 
z
" clip-path="url(#p9dc5368ea9)" style="fill: #1f77b4"/>
   </g>
   <g id="patch_75">
    <path d="M 286.190279 252 
L 289.20378 252 
L 289.20378 213.171429 
L 286.190279 213.171429 
z
" clip-path="url(#p9dc5368ea9)" style="fill: #1f77b4"/>
   </g>
   <g id="patch_76">
    <path d="M 289.20378 252 
L 292.217282 252 
L 292.217282 218.172078 
L 289.20378 218.172078 
z
" clip-path="url(#p9dc5368ea9)" style="fill: #1f77b4"/>
   </g>
   <g id="patch_77">
    <path d="M 292.217282 252 
L 295.230783 252 
L 295.230783 227.290909 
L 292.217282 227.290909 
z
" clip-path="url(#p9dc5368ea9)" style="fill: #1f77b4"/>
   </g>
   <g id="patch_78">
    <path d="M 295.230783 252 
L 298.244284 252 
L 298.244284 230.820779 
L 295.230783 230.820779 
z
" clip-path="url(#p9dc5368ea9)" style="fill: #1f77b4"/>
   </g>
   <g id="patch_79">
    <path d="M 298.244284 252 
L 301.257786 252 
L 301.257786 233.468182 
L 298.244284 233.468182 
z
" clip-path="url(#p9dc5368ea9)" style="fill: #1f77b4"/>
   </g>
   <g id="patch_80">
    <path d="M 301.257786 252 
L 304.271287 252 
L 304.271287 236.703896 
L 301.257786 236.703896 
z
" clip-path="url(#p9dc5368ea9)" style="fill: #1f77b4"/>
   </g>
   <g id="patch_81">
    <path d="M 304.271287 252 
L 307.284788 252 
L 307.284788 238.762987 
L 304.271287 238.762987 
z
" clip-path="url(#p9dc5368ea9)" style="fill: #1f77b4"/>
   </g>
   <g id="patch_82">
    <path d="M 307.284788 252 
L 310.29829 252 
L 310.29829 238.468831 
L 307.284788 238.468831 
z
" clip-path="url(#p9dc5368ea9)" style="fill: #1f77b4"/>
   </g>
   <g id="patch_83">
    <path d="M 310.29829 252 
L 313.311791 252 
L 313.311791 241.116234 
L 310.29829 241.116234 
z
" clip-path="url(#p9dc5368ea9)" style="fill: #1f77b4"/>
   </g>
   <g id="patch_84">
    <path d="M 313.311791 252 
L 316.325293 252 
L 316.325293 244.646104 
L 313.311791 244.646104 
z
" clip-path="url(#p9dc5368ea9)" style="fill: #1f77b4"/>
   </g>
   <g id="patch_85">
    <path d="M 316.325293 252 
L 319.338794 252 
L 319.338794 245.528571 
L 316.325293 245.528571 
z
" clip-path="url(#p9dc5368ea9)" style="fill: #1f77b4"/>
   </g>
   <g id="patch_86">
    <path d="M 319.338794 252 
L 322.352295 252 
L 322.352295 246.411039 
L 319.338794 246.411039 
z
" clip-path="url(#p9dc5368ea9)" style="fill: #1f77b4"/>
   </g>
   <g id="patch_87">
    <path d="M 322.352295 252 
L 325.365797 252 
L 325.365797 247.881818 
L 322.352295 247.881818 
z
" clip-path="url(#p9dc5368ea9)" style="fill: #1f77b4"/>
   </g>
   <g id="patch_88">
    <path d="M 325.365797 252 
L 328.379298 252 
L 328.379298 247.881818 
L 325.365797 247.881818 
z
" clip-path="url(#p9dc5368ea9)" style="fill: #1f77b4"/>
   </g>
   <g id="patch_89">
    <path d="M 328.379298 252 
L 331.392799 252 
L 331.392799 248.47013 
L 328.379298 248.47013 
z
" clip-path="url(#p9dc5368ea9)" style="fill: #1f77b4"/>
   </g>
   <g id="patch_90">
    <path d="M 331.392799 252 
L 334.406301 252 
L 334.406301 247.587662 
L 331.392799 247.587662 
z
" clip-path="url(#p9dc5368ea9)" style="fill: #1f77b4"/>
   </g>
   <g id="patch_91">
    <path d="M 334.406301 252 
L 337.419802 252 
L 337.419802 249.940909 
L 334.406301 249.940909 
z
" clip-path="url(#p9dc5368ea9)" style="fill: #1f77b4"/>
   </g>
   <g id="patch_92">
    <path d="M 337.419802 252 
L 340.433303 252 
L 340.433303 250.235065 
L 337.419802 250.235065 
z
" clip-path="url(#p9dc5368ea9)" style="fill: #1f77b4"/>
   </g>
   <g id="patch_93">
    <path d="M 340.433303 252 
L 343.446805 252 
L 343.446805 251.117532 
L 340.433303 251.117532 
z
" clip-path="url(#p9dc5368ea9)" style="fill: #1f77b4"/>
   </g>
   <g id="patch_94">
    <path d="M 343.446805 252 
L 346.460306 252 
L 346.460306 251.117532 
L 343.446805 251.117532 
z
" clip-path="url(#p9dc5368ea9)" style="fill: #1f77b4"/>
   </g>
   <g id="patch_95">
    <path d="M 346.460306 252 
L 349.473807 252 
L 349.473807 251.117532 
L 346.460306 251.117532 
z
" clip-path="url(#p9dc5368ea9)" style="fill: #1f77b4"/>
   </g>
   <g id="patch_96">
    <path d="M 349.473807 252 
L 352.487309 252 
L 352.487309 252 
L 349.473807 252 
z
" clip-path="url(#p9dc5368ea9)" style="fill: #1f77b4"/>
   </g>
   <g id="patch_97">
    <path d="M 352.487309 252 
L 355.50081 252 
L 355.50081 251.705844 
L 352.487309 251.705844 
z
" clip-path="url(#p9dc5368ea9)" style="fill: #1f77b4"/>
   </g>
   <g id="patch_98">
    <path d="M 355.50081 252 
L 358.514311 252 
L 358.514311 252 
L 355.50081 252 
z
" clip-path="url(#p9dc5368ea9)" style="fill: #1f77b4"/>
   </g>
   <g id="patch_99">
    <path d="M 358.514311 252 
L 361.527813 252 
L 361.527813 251.705844 
L 358.514311 251.705844 
z
" clip-path="url(#p9dc5368ea9)" style="fill: #1f77b4"/>
   </g>
   <g id="patch_100">
    <path d="M 361.527813 252 
L 364.541314 252 
L 364.541314 251.411688 
L 361.527813 251.411688 
z
" clip-path="url(#p9dc5368ea9)" style="fill: #1f77b4"/>
   </g>
   <g id="patch_101">
    <path d="M 364.541314 252 
L 367.554815 252 
L 367.554815 252 
L 364.541314 252 
z
" clip-path="url(#p9dc5368ea9)" style="fill: #1f77b4"/>
   </g>
   <g id="patch_102">
    <path d="M 367.554815 252 
L 370.568317 252 
L 370.568317 252 
L 367.554815 252 
z
" clip-path="url(#p9dc5368ea9)" style="fill: #1f77b4"/>
   </g>
   <g id="patch_103">
    <path d="M 370.568317 252 
L 373.581818 252 
L 373.581818 251.705844 
L 370.568317 251.705844 
z
" clip-path="url(#p9dc5368ea9)" style="fill: #1f77b4"/>
   </g>
   <g id="matplotlib.axis_1">
    <g id="xtick_1">
     <g id="line2d_1">
      <path d="M 81.630147 252 
L 81.630147 34.56 
" clip-path="url(#p9dc5368ea9)" style="fill: none; stroke: #b0b0b0; stroke-width: 0.8; stroke-linecap: square"/>
     </g>
     <g id="line2d_2">
      <defs>
       <path id="mbb9f6c65bc" d="M 0 0 
L 0 3.5 
" style="stroke: #000000; stroke-width: 0.8"/>
      </defs>
      <g>
       <use xlink:href="#mbb9f6c65bc" x="81.630147" y="252" style="stroke: #000000; stroke-width: 0.8"/>
      </g>
     </g>
     <g id="text_1">
      <!-- 2 -->
      <g transform="translate(78.448897 266.598437) scale(0.1 -0.1)">
       <defs>
        <path id="DejaVuSans-32" d="M 1228 531 
L 3431 531 
L 3431 0 
L 469 0 
L 469 531 
Q 828 903 1448 1529 
Q 2069 2156 2228 2338 
Q 2531 2678 2651 2914 
Q 2772 3150 2772 3378 
Q 2772 3750 2511 3984 
Q 2250 4219 1831 4219 
Q 1534 4219 1204 4116 
Q 875 4013 500 3803 
L 500 4441 
Q 881 4594 1212 4672 
Q 1544 4750 1819 4750 
Q 2544 4750 2975 4387 
Q 3406 4025 3406 3419 
Q 3406 3131 3298 2873 
Q 3191 2616 2906 2266 
Q 2828 2175 2409 1742 
Q 1991 1309 1228 531 
z
" transform="scale(0.015625)"/>
       </defs>
       <use xlink:href="#DejaVuSans-32"/>
      </g>
     </g>
    </g>
    <g id="xtick_2">
     <g id="line2d_3">
      <path d="M 124.331909 252 
L 124.331909 34.56 
" clip-path="url(#p9dc5368ea9)" style="fill: none; stroke: #b0b0b0; stroke-width: 0.8; stroke-linecap: square"/>
     </g>
     <g id="line2d_4">
      <g>
       <use xlink:href="#mbb9f6c65bc" x="124.331909" y="252" style="stroke: #000000; stroke-width: 0.8"/>
      </g>
     </g>
     <g id="text_2">
      <!-- 3 -->
      <g transform="translate(121.150659 266.598437) scale(0.1 -0.1)">
       <defs>
        <path id="DejaVuSans-33" d="M 2597 2516 
Q 3050 2419 3304 2112 
Q 3559 1806 3559 1356 
Q 3559 666 3084 287 
Q 2609 -91 1734 -91 
Q 1441 -91 1130 -33 
Q 819 25 488 141 
L 488 750 
Q 750 597 1062 519 
Q 1375 441 1716 441 
Q 2309 441 2620 675 
Q 2931 909 2931 1356 
Q 2931 1769 2642 2001 
Q 2353 2234 1838 2234 
L 1294 2234 
L 1294 2753 
L 1863 2753 
Q 2328 2753 2575 2939 
Q 2822 3125 2822 3475 
Q 2822 3834 2567 4026 
Q 2313 4219 1838 4219 
Q 1578 4219 1281 4162 
Q 984 4106 628 3988 
L 628 4550 
Q 988 4650 1302 4700 
Q 1616 4750 1894 4750 
Q 2613 4750 3031 4423 
Q 3450 4097 3450 3541 
Q 3450 3153 3228 2886 
Q 3006 2619 2597 2516 
z
" transform="scale(0.015625)"/>
       </defs>
       <use xlink:href="#DejaVuSans-33"/>
      </g>
     </g>
    </g>
    <g id="xtick_3">
     <g id="line2d_5">
      <path d="M 167.03367 252 
L 167.03367 34.56 
" clip-path="url(#p9dc5368ea9)" style="fill: none; stroke: #b0b0b0; stroke-width: 0.8; stroke-linecap: square"/>
     </g>
     <g id="line2d_6">
      <g>
       <use xlink:href="#mbb9f6c65bc" x="167.03367" y="252" style="stroke: #000000; stroke-width: 0.8"/>
      </g>
     </g>
     <g id="text_3">
      <!-- 4 -->
      <g transform="translate(163.85242 266.598437) scale(0.1 -0.1)">
       <defs>
        <path id="DejaVuSans-34" d="M 2419 4116 
L 825 1625 
L 2419 1625 
L 2419 4116 
z
M 2253 4666 
L 3047 4666 
L 3047 1625 
L 3713 1625 
L 3713 1100 
L 3047 1100 
L 3047 0 
L 2419 0 
L 2419 1100 
L 313 1100 
L 313 1709 
L 2253 4666 
z
" transform="scale(0.015625)"/>
       </defs>
       <use xlink:href="#DejaVuSans-34"/>
      </g>
     </g>
    </g>
    <g id="xtick_4">
     <g id="line2d_7">
      <path d="M 209.735432 252 
L 209.735432 34.56 
" clip-path="url(#p9dc5368ea9)" style="fill: none; stroke: #b0b0b0; stroke-width: 0.8; stroke-linecap: square"/>
     </g>
     <g id="line2d_8">
      <g>
       <use xlink:href="#mbb9f6c65bc" x="209.735432" y="252" style="stroke: #000000; stroke-width: 0.8"/>
      </g>
     </g>
     <g id="text_4">
      <!-- 5 -->
      <g transform="translate(206.554182 266.598437) scale(0.1 -0.1)">
       <defs>
        <path id="DejaVuSans-35" d="M 691 4666 
L 3169 4666 
L 3169 4134 
L 1269 4134 
L 1269 2991 
Q 1406 3038 1543 3061 
Q 1681 3084 1819 3084 
Q 2600 3084 3056 2656 
Q 3513 2228 3513 1497 
Q 3513 744 3044 326 
Q 2575 -91 1722 -91 
Q 1428 -91 1123 -41 
Q 819 9 494 109 
L 494 744 
Q 775 591 1075 516 
Q 1375 441 1709 441 
Q 2250 441 2565 725 
Q 2881 1009 2881 1497 
Q 2881 1984 2565 2268 
Q 2250 2553 1709 2553 
Q 1456 2553 1204 2497 
Q 953 2441 691 2322 
L 691 4666 
z
" transform="scale(0.015625)"/>
       </defs>
       <use xlink:href="#DejaVuSans-35"/>
      </g>
     </g>
    </g>
    <g id="xtick_5">
     <g id="line2d_9">
      <path d="M 252.437194 252 
L 252.437194 34.56 
" clip-path="url(#p9dc5368ea9)" style="fill: none; stroke: #b0b0b0; stroke-width: 0.8; stroke-linecap: square"/>
     </g>
     <g id="line2d_10">
      <g>
       <use xlink:href="#mbb9f6c65bc" x="252.437194" y="252" style="stroke: #000000; stroke-width: 0.8"/>
      </g>
     </g>
     <g id="text_5">
      <!-- 6 -->
      <g transform="translate(249.255944 266.598437) scale(0.1 -0.1)">
       <defs>
        <path id="DejaVuSans-36" d="M 2113 2584 
Q 1688 2584 1439 2293 
Q 1191 2003 1191 1497 
Q 1191 994 1439 701 
Q 1688 409 2113 409 
Q 2538 409 2786 701 
Q 3034 994 3034 1497 
Q 3034 2003 2786 2293 
Q 2538 2584 2113 2584 
z
M 3366 4563 
L 3366 3988 
Q 3128 4100 2886 4159 
Q 2644 4219 2406 4219 
Q 1781 4219 1451 3797 
Q 1122 3375 1075 2522 
Q 1259 2794 1537 2939 
Q 1816 3084 2150 3084 
Q 2853 3084 3261 2657 
Q 3669 2231 3669 1497 
Q 3669 778 3244 343 
Q 2819 -91 2113 -91 
Q 1303 -91 875 529 
Q 447 1150 447 2328 
Q 447 3434 972 4092 
Q 1497 4750 2381 4750 
Q 2619 4750 2861 4703 
Q 3103 4656 3366 4563 
z
" transform="scale(0.015625)"/>
       </defs>
       <use xlink:href="#DejaVuSans-36"/>
      </g>
     </g>
    </g>
    <g id="xtick_6">
     <g id="line2d_11">
      <path d="M 295.138955 252 
L 295.138955 34.56 
" clip-path="url(#p9dc5368ea9)" style="fill: none; stroke: #b0b0b0; stroke-width: 0.8; stroke-linecap: square"/>
     </g>
     <g id="line2d_12">
      <g>
       <use xlink:href="#mbb9f6c65bc" x="295.138955" y="252" style="stroke: #000000; stroke-width: 0.8"/>
      </g>
     </g>
     <g id="text_6">
      <!-- 7 -->
      <g transform="translate(291.957705 266.598437) scale(0.1 -0.1)">
       <defs>
        <path id="DejaVuSans-37" d="M 525 4666 
L 3525 4666 
L 3525 4397 
L 1831 0 
L 1172 0 
L 2766 4134 
L 525 4134 
L 525 4666 
z
" transform="scale(0.015625)"/>
       </defs>
       <use xlink:href="#DejaVuSans-37"/>
      </g>
     </g>
    </g>
    <g id="xtick_7">
     <g id="line2d_13">
      <path d="M 337.840717 252 
L 337.840717 34.56 
" clip-path="url(#p9dc5368ea9)" style="fill: none; stroke: #b0b0b0; stroke-width: 0.8; stroke-linecap: square"/>
     </g>
     <g id="line2d_14">
      <g>
       <use xlink:href="#mbb9f6c65bc" x="337.840717" y="252" style="stroke: #000000; stroke-width: 0.8"/>
      </g>
     </g>
     <g id="text_7">
      <!-- 8 -->
      <g transform="translate(334.659467 266.598437) scale(0.1 -0.1)">
       <defs>
        <path id="DejaVuSans-38" d="M 2034 2216 
Q 1584 2216 1326 1975 
Q 1069 1734 1069 1313 
Q 1069 891 1326 650 
Q 1584 409 2034 409 
Q 2484 409 2743 651 
Q 3003 894 3003 1313 
Q 3003 1734 2745 1975 
Q 2488 2216 2034 2216 
z
M 1403 2484 
Q 997 2584 770 2862 
Q 544 3141 544 3541 
Q 544 4100 942 4425 
Q 1341 4750 2034 4750 
Q 2731 4750 3128 4425 
Q 3525 4100 3525 3541 
Q 3525 3141 3298 2862 
Q 3072 2584 2669 2484 
Q 3125 2378 3379 2068 
Q 3634 1759 3634 1313 
Q 3634 634 3220 271 
Q 2806 -91 2034 -91 
Q 1263 -91 848 271 
Q 434 634 434 1313 
Q 434 1759 690 2068 
Q 947 2378 1403 2484 
z
M 1172 3481 
Q 1172 3119 1398 2916 
Q 1625 2713 2034 2713 
Q 2441 2713 2670 2916 
Q 2900 3119 2900 3481 
Q 2900 3844 2670 4047 
Q 2441 4250 2034 4250 
Q 1625 4250 1398 4047 
Q 1172 3844 1172 3481 
z
" transform="scale(0.015625)"/>
       </defs>
       <use xlink:href="#DejaVuSans-38"/>
      </g>
     </g>
    </g>
    <g id="xtick_8">
     <g id="line2d_15">
      <path d="M 380.542478 252 
L 380.542478 34.56 
" clip-path="url(#p9dc5368ea9)" style="fill: none; stroke: #b0b0b0; stroke-width: 0.8; stroke-linecap: square"/>
     </g>
     <g id="line2d_16">
      <g>
       <use xlink:href="#mbb9f6c65bc" x="380.542478" y="252" style="stroke: #000000; stroke-width: 0.8"/>
      </g>
     </g>
     <g id="text_8">
      <!-- 9 -->
      <g transform="translate(377.361228 266.598437) scale(0.1 -0.1)">
       <defs>
        <path id="DejaVuSans-39" d="M 703 97 
L 703 672 
Q 941 559 1184 500 
Q 1428 441 1663 441 
Q 2288 441 2617 861 
Q 2947 1281 2994 2138 
Q 2813 1869 2534 1725 
Q 2256 1581 1919 1581 
Q 1219 1581 811 2004 
Q 403 2428 403 3163 
Q 403 3881 828 4315 
Q 1253 4750 1959 4750 
Q 2769 4750 3195 4129 
Q 3622 3509 3622 2328 
Q 3622 1225 3098 567 
Q 2575 -91 1691 -91 
Q 1453 -91 1209 -44 
Q 966 3 703 97 
z
M 1959 2075 
Q 2384 2075 2632 2365 
Q 2881 2656 2881 3163 
Q 2881 3666 2632 3958 
Q 2384 4250 1959 4250 
Q 1534 4250 1286 3958 
Q 1038 3666 1038 3163 
Q 1038 2656 1286 2365 
Q 1534 2075 1959 2075 
z
" transform="scale(0.015625)"/>
       </defs>
       <use xlink:href="#DejaVuSans-39"/>
      </g>
     </g>
    </g>
   </g>
   <g id="matplotlib.axis_2">
    <g id="ytick_1">
     <g id="line2d_17">
      <path d="M 54 252 
L 388.8 252 
" clip-path="url(#p9dc5368ea9)" style="fill: none; stroke: #b0b0b0; stroke-width: 0.8; stroke-linecap: square"/>
     </g>
     <g id="line2d_18">
      <defs>
       <path id="m2d09090f4a" d="M 0 0 
L -3.5 0 
" style="stroke: #000000; stroke-width: 0.8"/>
      </defs>
      <g>
       <use xlink:href="#m2d09090f4a" x="54" y="252" style="stroke: #000000; stroke-width: 0.8"/>
      </g>
     </g>
     <g id="text_9">
      <!-- 0 -->
      <g transform="translate(40.6375 255.799219) scale(0.1 -0.1)">
       <defs>
        <path id="DejaVuSans-30" d="M 2034 4250 
Q 1547 4250 1301 3770 
Q 1056 3291 1056 2328 
Q 1056 1369 1301 889 
Q 1547 409 2034 409 
Q 2525 409 2770 889 
Q 3016 1369 3016 2328 
Q 3016 3291 2770 3770 
Q 2525 4250 2034 4250 
z
M 2034 4750 
Q 2819 4750 3233 4129 
Q 3647 3509 3647 2328 
Q 3647 1150 3233 529 
Q 2819 -91 2034 -91 
Q 1250 -91 836 529 
Q 422 1150 422 2328 
Q 422 3509 836 4129 
Q 1250 4750 2034 4750 
z
" transform="scale(0.015625)"/>
       </defs>
       <use xlink:href="#DejaVuSans-30"/>
      </g>
     </g>
    </g>
    <g id="ytick_2">
     <g id="line2d_19">
      <path d="M 54 222.584416 
L 388.8 222.584416 
" clip-path="url(#p9dc5368ea9)" style="fill: none; stroke: #b0b0b0; stroke-width: 0.8; stroke-linecap: square"/>
     </g>
     <g id="line2d_20">
      <g>
       <use xlink:href="#m2d09090f4a" x="54" y="222.584416" style="stroke: #000000; stroke-width: 0.8"/>
      </g>
     </g>
     <g id="text_10">
      <!-- 100 -->
      <g transform="translate(27.9125 226.383634) scale(0.1 -0.1)">
       <defs>
        <path id="DejaVuSans-31" d="M 794 531 
L 1825 531 
L 1825 4091 
L 703 3866 
L 703 4441 
L 1819 4666 
L 2450 4666 
L 2450 531 
L 3481 531 
L 3481 0 
L 794 0 
L 794 531 
z
" transform="scale(0.015625)"/>
       </defs>
       <use xlink:href="#DejaVuSans-31"/>
       <use xlink:href="#DejaVuSans-30" x="63.623047"/>
       <use xlink:href="#DejaVuSans-30" x="127.246094"/>
      </g>
     </g>
    </g>
    <g id="ytick_3">
     <g id="line2d_21">
      <path d="M 54 193.168831 
L 388.8 193.168831 
" clip-path="url(#p9dc5368ea9)" style="fill: none; stroke: #b0b0b0; stroke-width: 0.8; stroke-linecap: square"/>
     </g>
     <g id="line2d_22">
      <g>
       <use xlink:href="#m2d09090f4a" x="54" y="193.168831" style="stroke: #000000; stroke-width: 0.8"/>
      </g>
     </g>
     <g id="text_11">
      <!-- 200 -->
      <g transform="translate(27.9125 196.96805) scale(0.1 -0.1)">
       <use xlink:href="#DejaVuSans-32"/>
       <use xlink:href="#DejaVuSans-30" x="63.623047"/>
       <use xlink:href="#DejaVuSans-30" x="127.246094"/>
      </g>
     </g>
    </g>
    <g id="ytick_4">
     <g id="line2d_23">
      <path d="M 54 163.753247 
L 388.8 163.753247 
" clip-path="url(#p9dc5368ea9)" style="fill: none; stroke: #b0b0b0; stroke-width: 0.8; stroke-linecap: square"/>
     </g>
     <g id="line2d_24">
      <g>
       <use xlink:href="#m2d09090f4a" x="54" y="163.753247" style="stroke: #000000; stroke-width: 0.8"/>
      </g>
     </g>
     <g id="text_12">
      <!-- 300 -->
      <g transform="translate(27.9125 167.552466) scale(0.1 -0.1)">
       <use xlink:href="#DejaVuSans-33"/>
       <use xlink:href="#DejaVuSans-30" x="63.623047"/>
       <use xlink:href="#DejaVuSans-30" x="127.246094"/>
      </g>
     </g>
    </g>
    <g id="ytick_5">
     <g id="line2d_25">
      <path d="M 54 134.337662 
L 388.8 134.337662 
" clip-path="url(#p9dc5368ea9)" style="fill: none; stroke: #b0b0b0; stroke-width: 0.8; stroke-linecap: square"/>
     </g>
     <g id="line2d_26">
      <g>
       <use xlink:href="#m2d09090f4a" x="54" y="134.337662" style="stroke: #000000; stroke-width: 0.8"/>
      </g>
     </g>
     <g id="text_13">
      <!-- 400 -->
      <g transform="translate(27.9125 138.136881) scale(0.1 -0.1)">
       <use xlink:href="#DejaVuSans-34"/>
       <use xlink:href="#DejaVuSans-30" x="63.623047"/>
       <use xlink:href="#DejaVuSans-30" x="127.246094"/>
      </g>
     </g>
    </g>
    <g id="ytick_6">
     <g id="line2d_27">
      <path d="M 54 104.922078 
L 388.8 104.922078 
" clip-path="url(#p9dc5368ea9)" style="fill: none; stroke: #b0b0b0; stroke-width: 0.8; stroke-linecap: square"/>
     </g>
     <g id="line2d_28">
      <g>
       <use xlink:href="#m2d09090f4a" x="54" y="104.922078" style="stroke: #000000; stroke-width: 0.8"/>
      </g>
     </g>
     <g id="text_14">
      <!-- 500 -->
      <g transform="translate(27.9125 108.721297) scale(0.1 -0.1)">
       <use xlink:href="#DejaVuSans-35"/>
       <use xlink:href="#DejaVuSans-30" x="63.623047"/>
       <use xlink:href="#DejaVuSans-30" x="127.246094"/>
      </g>
     </g>
    </g>
    <g id="ytick_7">
     <g id="line2d_29">
      <path d="M 54 75.506494 
L 388.8 75.506494 
" clip-path="url(#p9dc5368ea9)" style="fill: none; stroke: #b0b0b0; stroke-width: 0.8; stroke-linecap: square"/>
     </g>
     <g id="line2d_30">
      <g>
       <use xlink:href="#m2d09090f4a" x="54" y="75.506494" style="stroke: #000000; stroke-width: 0.8"/>
      </g>
     </g>
     <g id="text_15">
      <!-- 600 -->
      <g transform="translate(27.9125 79.305712) scale(0.1 -0.1)">
       <use xlink:href="#DejaVuSans-36"/>
       <use xlink:href="#DejaVuSans-30" x="63.623047"/>
       <use xlink:href="#DejaVuSans-30" x="127.246094"/>
      </g>
     </g>
    </g>
    <g id="ytick_8">
     <g id="line2d_31">
      <path d="M 54 46.090909 
L 388.8 46.090909 
" clip-path="url(#p9dc5368ea9)" style="fill: none; stroke: #b0b0b0; stroke-width: 0.8; stroke-linecap: square"/>
     </g>
     <g id="line2d_32">
      <g>
       <use xlink:href="#m2d09090f4a" x="54" y="46.090909" style="stroke: #000000; stroke-width: 0.8"/>
      </g>
     </g>
     <g id="text_16">
      <!-- 700 -->
      <g transform="translate(27.9125 49.890128) scale(0.1 -0.1)">
       <use xlink:href="#DejaVuSans-37"/>
       <use xlink:href="#DejaVuSans-30" x="63.623047"/>
       <use xlink:href="#DejaVuSans-30" x="127.246094"/>
      </g>
     </g>
    </g>
   </g>
   <g id="line2d_33">
    <path d="M 193.953375 252 
L 193.953375 222.584416 
" clip-path="url(#p9dc5368ea9)" style="fill: none; stroke: #ff0000; stroke-width: 1.5; stroke-linecap: square"/>
   </g>
   <g id="patch_104">
    <path d="M 54 252 
L 54 34.56 
" style="fill: none; stroke: #000000; stroke-width: 0.8; stroke-linejoin: miter; stroke-linecap: square"/>
   </g>
   <g id="patch_105">
    <path d="M 388.8 252 
L 388.8 34.56 
" style="fill: none; stroke: #000000; stroke-width: 0.8; stroke-linejoin: miter; stroke-linecap: square"/>
   </g>
   <g id="patch_106">
    <path d="M 54 252 
L 388.8 252 
" style="fill: none; stroke: #000000; stroke-width: 0.8; stroke-linejoin: miter; stroke-linecap: square"/>
   </g>
   <g id="patch_107">
    <path d="M 54 34.56 
L 388.8 34.56 
" style="fill: none; stroke: #000000; stroke-width: 0.8; stroke-linejoin: miter; stroke-linecap: square"/>
   </g>
   <g id="text_17">
    <!-- Ironwood Multi-Strategy Fund LLC -->
    <g transform="translate(120.095625 28.56) scale(0.12 -0.12)">
     <defs>
      <path id="DejaVuSans-49" d="M 628 4666 
L 1259 4666 
L 1259 0 
L 628 0 
L 628 4666 
z
" transform="scale(0.015625)"/>
      <path id="DejaVuSans-72" d="M 2631 2963 
Q 2534 3019 2420 3045 
Q 2306 3072 2169 3072 
Q 1681 3072 1420 2755 
Q 1159 2438 1159 1844 
L 1159 0 
L 581 0 
L 581 3500 
L 1159 3500 
L 1159 2956 
Q 1341 3275 1631 3429 
Q 1922 3584 2338 3584 
Q 2397 3584 2469 3576 
Q 2541 3569 2628 3553 
L 2631 2963 
z
" transform="scale(0.015625)"/>
      <path id="DejaVuSans-6f" d="M 1959 3097 
Q 1497 3097 1228 2736 
Q 959 2375 959 1747 
Q 959 1119 1226 758 
Q 1494 397 1959 397 
Q 2419 397 2687 759 
Q 2956 1122 2956 1747 
Q 2956 2369 2687 2733 
Q 2419 3097 1959 3097 
z
M 1959 3584 
Q 2709 3584 3137 3096 
Q 3566 2609 3566 1747 
Q 3566 888 3137 398 
Q 2709 -91 1959 -91 
Q 1206 -91 779 398 
Q 353 888 353 1747 
Q 353 2609 779 3096 
Q 1206 3584 1959 3584 
z
" transform="scale(0.015625)"/>
      <path id="DejaVuSans-6e" d="M 3513 2113 
L 3513 0 
L 2938 0 
L 2938 2094 
Q 2938 2591 2744 2837 
Q 2550 3084 2163 3084 
Q 1697 3084 1428 2787 
Q 1159 2491 1159 1978 
L 1159 0 
L 581 0 
L 581 3500 
L 1159 3500 
L 1159 2956 
Q 1366 3272 1645 3428 
Q 1925 3584 2291 3584 
Q 2894 3584 3203 3211 
Q 3513 2838 3513 2113 
z
" transform="scale(0.015625)"/>
      <path id="DejaVuSans-77" d="M 269 3500 
L 844 3500 
L 1563 769 
L 2278 3500 
L 2956 3500 
L 3675 769 
L 4391 3500 
L 4966 3500 
L 4050 0 
L 3372 0 
L 2619 2869 
L 1863 0 
L 1184 0 
L 269 3500 
z
" transform="scale(0.015625)"/>
      <path id="DejaVuSans-64" d="M 2906 2969 
L 2906 4863 
L 3481 4863 
L 3481 0 
L 2906 0 
L 2906 525 
Q 2725 213 2448 61 
Q 2172 -91 1784 -91 
Q 1150 -91 751 415 
Q 353 922 353 1747 
Q 353 2572 751 3078 
Q 1150 3584 1784 3584 
Q 2172 3584 2448 3432 
Q 2725 3281 2906 2969 
z
M 947 1747 
Q 947 1113 1208 752 
Q 1469 391 1925 391 
Q 2381 391 2643 752 
Q 2906 1113 2906 1747 
Q 2906 2381 2643 2742 
Q 2381 3103 1925 3103 
Q 1469 3103 1208 2742 
Q 947 2381 947 1747 
z
" transform="scale(0.015625)"/>
      <path id="DejaVuSans-20" transform="scale(0.015625)"/>
      <path id="DejaVuSans-4d" d="M 628 4666 
L 1569 4666 
L 2759 1491 
L 3956 4666 
L 4897 4666 
L 4897 0 
L 4281 0 
L 4281 4097 
L 3078 897 
L 2444 897 
L 1241 4097 
L 1241 0 
L 628 0 
L 628 4666 
z
" transform="scale(0.015625)"/>
      <path id="DejaVuSans-75" d="M 544 1381 
L 544 3500 
L 1119 3500 
L 1119 1403 
Q 1119 906 1312 657 
Q 1506 409 1894 409 
Q 2359 409 2629 706 
Q 2900 1003 2900 1516 
L 2900 3500 
L 3475 3500 
L 3475 0 
L 2900 0 
L 2900 538 
Q 2691 219 2414 64 
Q 2138 -91 1772 -91 
Q 1169 -91 856 284 
Q 544 659 544 1381 
z
M 1991 3584 
L 1991 3584 
z
" transform="scale(0.015625)"/>
      <path id="DejaVuSans-6c" d="M 603 4863 
L 1178 4863 
L 1178 0 
L 603 0 
L 603 4863 
z
" transform="scale(0.015625)"/>
      <path id="DejaVuSans-74" d="M 1172 4494 
L 1172 3500 
L 2356 3500 
L 2356 3053 
L 1172 3053 
L 1172 1153 
Q 1172 725 1289 603 
Q 1406 481 1766 481 
L 2356 481 
L 2356 0 
L 1766 0 
Q 1100 0 847 248 
Q 594 497 594 1153 
L 594 3053 
L 172 3053 
L 172 3500 
L 594 3500 
L 594 4494 
L 1172 4494 
z
" transform="scale(0.015625)"/>
      <path id="DejaVuSans-69" d="M 603 3500 
L 1178 3500 
L 1178 0 
L 603 0 
L 603 3500 
z
M 603 4863 
L 1178 4863 
L 1178 4134 
L 603 4134 
L 603 4863 
z
" transform="scale(0.015625)"/>
      <path id="DejaVuSans-2d" d="M 313 2009 
L 1997 2009 
L 1997 1497 
L 313 1497 
L 313 2009 
z
" transform="scale(0.015625)"/>
      <path id="DejaVuSans-53" d="M 3425 4513 
L 3425 3897 
Q 3066 4069 2747 4153 
Q 2428 4238 2131 4238 
Q 1616 4238 1336 4038 
Q 1056 3838 1056 3469 
Q 1056 3159 1242 3001 
Q 1428 2844 1947 2747 
L 2328 2669 
Q 3034 2534 3370 2195 
Q 3706 1856 3706 1288 
Q 3706 609 3251 259 
Q 2797 -91 1919 -91 
Q 1588 -91 1214 -16 
Q 841 59 441 206 
L 441 856 
Q 825 641 1194 531 
Q 1563 422 1919 422 
Q 2459 422 2753 634 
Q 3047 847 3047 1241 
Q 3047 1584 2836 1778 
Q 2625 1972 2144 2069 
L 1759 2144 
Q 1053 2284 737 2584 
Q 422 2884 422 3419 
Q 422 4038 858 4394 
Q 1294 4750 2059 4750 
Q 2388 4750 2728 4690 
Q 3069 4631 3425 4513 
z
" transform="scale(0.015625)"/>
      <path id="DejaVuSans-61" d="M 2194 1759 
Q 1497 1759 1228 1600 
Q 959 1441 959 1056 
Q 959 750 1161 570 
Q 1363 391 1709 391 
Q 2188 391 2477 730 
Q 2766 1069 2766 1631 
L 2766 1759 
L 2194 1759 
z
M 3341 1997 
L 3341 0 
L 2766 0 
L 2766 531 
Q 2569 213 2275 61 
Q 1981 -91 1556 -91 
Q 1019 -91 701 211 
Q 384 513 384 1019 
Q 384 1609 779 1909 
Q 1175 2209 1959 2209 
L 2766 2209 
L 2766 2266 
Q 2766 2663 2505 2880 
Q 2244 3097 1772 3097 
Q 1472 3097 1187 3025 
Q 903 2953 641 2809 
L 641 3341 
Q 956 3463 1253 3523 
Q 1550 3584 1831 3584 
Q 2591 3584 2966 3190 
Q 3341 2797 3341 1997 
z
" transform="scale(0.015625)"/>
      <path id="DejaVuSans-65" d="M 3597 1894 
L 3597 1613 
L 953 1613 
Q 991 1019 1311 708 
Q 1631 397 2203 397 
Q 2534 397 2845 478 
Q 3156 559 3463 722 
L 3463 178 
Q 3153 47 2828 -22 
Q 2503 -91 2169 -91 
Q 1331 -91 842 396 
Q 353 884 353 1716 
Q 353 2575 817 3079 
Q 1281 3584 2069 3584 
Q 2775 3584 3186 3129 
Q 3597 2675 3597 1894 
z
M 3022 2063 
Q 3016 2534 2758 2815 
Q 2500 3097 2075 3097 
Q 1594 3097 1305 2825 
Q 1016 2553 972 2059 
L 3022 2063 
z
" transform="scale(0.015625)"/>
      <path id="DejaVuSans-67" d="M 2906 1791 
Q 2906 2416 2648 2759 
Q 2391 3103 1925 3103 
Q 1463 3103 1205 2759 
Q 947 2416 947 1791 
Q 947 1169 1205 825 
Q 1463 481 1925 481 
Q 2391 481 2648 825 
Q 2906 1169 2906 1791 
z
M 3481 434 
Q 3481 -459 3084 -895 
Q 2688 -1331 1869 -1331 
Q 1566 -1331 1297 -1286 
Q 1028 -1241 775 -1147 
L 775 -588 
Q 1028 -725 1275 -790 
Q 1522 -856 1778 -856 
Q 2344 -856 2625 -561 
Q 2906 -266 2906 331 
L 2906 616 
Q 2728 306 2450 153 
Q 2172 0 1784 0 
Q 1141 0 747 490 
Q 353 981 353 1791 
Q 353 2603 747 3093 
Q 1141 3584 1784 3584 
Q 2172 3584 2450 3431 
Q 2728 3278 2906 2969 
L 2906 3500 
L 3481 3500 
L 3481 434 
z
" transform="scale(0.015625)"/>
      <path id="DejaVuSans-79" d="M 2059 -325 
Q 1816 -950 1584 -1140 
Q 1353 -1331 966 -1331 
L 506 -1331 
L 506 -850 
L 844 -850 
Q 1081 -850 1212 -737 
Q 1344 -625 1503 -206 
L 1606 56 
L 191 3500 
L 800 3500 
L 1894 763 
L 2988 3500 
L 3597 3500 
L 2059 -325 
z
" transform="scale(0.015625)"/>
      <path id="DejaVuSans-46" d="M 628 4666 
L 3309 4666 
L 3309 4134 
L 1259 4134 
L 1259 2759 
L 3109 2759 
L 3109 2228 
L 1259 2228 
L 1259 0 
L 628 0 
L 628 4666 
z
" transform="scale(0.015625)"/>
      <path id="DejaVuSans-4c" d="M 628 4666 
L 1259 4666 
L 1259 531 
L 3531 531 
L 3531 0 
L 628 0 
L 628 4666 
z
" transform="scale(0.015625)"/>
      <path id="DejaVuSans-43" d="M 4122 4306 
L 4122 3641 
Q 3803 3938 3442 4084 
Q 3081 4231 2675 4231 
Q 1875 4231 1450 3742 
Q 1025 3253 1025 2328 
Q 1025 1406 1450 917 
Q 1875 428 2675 428 
Q 3081 428 3442 575 
Q 3803 722 4122 1019 
L 4122 359 
Q 3791 134 3420 21 
Q 3050 -91 2638 -91 
Q 1578 -91 968 557 
Q 359 1206 359 2328 
Q 359 3453 968 4101 
Q 1578 4750 2638 4750 
Q 3056 4750 3426 4639 
Q 3797 4528 4122 4306 
z
" transform="scale(0.015625)"/>
     </defs>
     <use xlink:href="#DejaVuSans-49"/>
     <use xlink:href="#DejaVuSans-72" x="29.492188"/>
     <use xlink:href="#DejaVuSans-6f" x="68.355469"/>
     <use xlink:href="#DejaVuSans-6e" x="129.537109"/>
     <use xlink:href="#DejaVuSans-77" x="192.916016"/>
     <use xlink:href="#DejaVuSans-6f" x="274.703125"/>
     <use xlink:href="#DejaVuSans-6f" x="335.884766"/>
     <use xlink:href="#DejaVuSans-64" x="397.066406"/>
     <use xlink:href="#DejaVuSans-20" x="460.542969"/>
     <use xlink:href="#DejaVuSans-4d" x="492.330078"/>
     <use xlink:href="#DejaVuSans-75" x="578.609375"/>
     <use xlink:href="#DejaVuSans-6c" x="641.988281"/>
     <use xlink:href="#DejaVuSans-74" x="669.771484"/>
     <use xlink:href="#DejaVuSans-69" x="708.980469"/>
     <use xlink:href="#DejaVuSans-2d" x="736.763672"/>
     <use xlink:href="#DejaVuSans-53" x="772.847656"/>
     <use xlink:href="#DejaVuSans-74" x="836.324219"/>
     <use xlink:href="#DejaVuSans-72" x="875.533203"/>
     <use xlink:href="#DejaVuSans-61" x="916.646484"/>
     <use xlink:href="#DejaVuSans-74" x="977.925781"/>
     <use xlink:href="#DejaVuSans-65" x="1017.134766"/>
     <use xlink:href="#DejaVuSans-67" x="1078.658203"/>
     <use xlink:href="#DejaVuSans-79" x="1142.134766"/>
     <use xlink:href="#DejaVuSans-20" x="1201.314453"/>
     <use xlink:href="#DejaVuSans-46" x="1233.101562"/>
     <use xlink:href="#DejaVuSans-75" x="1285.121094"/>
     <use xlink:href="#DejaVuSans-6e" x="1348.5"/>
     <use xlink:href="#DejaVuSans-64" x="1411.878906"/>
     <use xlink:href="#DejaVuSans-20" x="1475.355469"/>
     <use xlink:href="#DejaVuSans-4c" x="1507.142578"/>
     <use xlink:href="#DejaVuSans-4c" x="1562.855469"/>
     <use xlink:href="#DejaVuSans-43" x="1618.568359"/>
    </g>
   </g>
   <g id="legend_1">
    <g id="patch_108">
     <path d="M 272.604688 57.238125 
L 381.8 57.238125 
Q 383.8 57.238125 383.8 55.238125 
L 383.8 41.56 
Q 383.8 39.56 381.8 39.56 
L 272.604688 39.56 
Q 270.604688 39.56 270.604688 41.56 
L 270.604688 55.238125 
Q 270.604688 57.238125 272.604688 57.238125 
z
" style="fill: #ffffff; opacity: 0.8; stroke: #cccccc; stroke-linejoin: miter"/>
    </g>
    <g id="line2d_34">
     <path d="M 274.604688 47.658437 
L 284.604688 47.658437 
L 294.604688 47.658437 
" style="fill: none; stroke: #ff0000; stroke-width: 1.5; stroke-linecap: square"/>
    </g>
    <g id="text_18">
     <!-- historical mean -->
     <g transform="translate(302.604688 51.158437) scale(0.1 -0.1)">
      <defs>
       <path id="DejaVuSans-68" d="M 3513 2113 
L 3513 0 
L 2938 0 
L 2938 2094 
Q 2938 2591 2744 2837 
Q 2550 3084 2163 3084 
Q 1697 3084 1428 2787 
Q 1159 2491 1159 1978 
L 1159 0 
L 581 0 
L 581 4863 
L 1159 4863 
L 1159 2956 
Q 1366 3272 1645 3428 
Q 1925 3584 2291 3584 
Q 2894 3584 3203 3211 
Q 3513 2838 3513 2113 
z
" transform="scale(0.015625)"/>
       <path id="DejaVuSans-73" d="M 2834 3397 
L 2834 2853 
Q 2591 2978 2328 3040 
Q 2066 3103 1784 3103 
Q 1356 3103 1142 2972 
Q 928 2841 928 2578 
Q 928 2378 1081 2264 
Q 1234 2150 1697 2047 
L 1894 2003 
Q 2506 1872 2764 1633 
Q 3022 1394 3022 966 
Q 3022 478 2636 193 
Q 2250 -91 1575 -91 
Q 1294 -91 989 -36 
Q 684 19 347 128 
L 347 722 
Q 666 556 975 473 
Q 1284 391 1588 391 
Q 1994 391 2212 530 
Q 2431 669 2431 922 
Q 2431 1156 2273 1281 
Q 2116 1406 1581 1522 
L 1381 1569 
Q 847 1681 609 1914 
Q 372 2147 372 2553 
Q 372 3047 722 3315 
Q 1072 3584 1716 3584 
Q 2034 3584 2315 3537 
Q 2597 3491 2834 3397 
z
" transform="scale(0.015625)"/>
       <path id="DejaVuSans-63" d="M 3122 3366 
L 3122 2828 
Q 2878 2963 2633 3030 
Q 2388 3097 2138 3097 
Q 1578 3097 1268 2742 
Q 959 2388 959 1747 
Q 959 1106 1268 751 
Q 1578 397 2138 397 
Q 2388 397 2633 464 
Q 2878 531 3122 666 
L 3122 134 
Q 2881 22 2623 -34 
Q 2366 -91 2075 -91 
Q 1284 -91 818 406 
Q 353 903 353 1747 
Q 353 2603 823 3093 
Q 1294 3584 2113 3584 
Q 2378 3584 2631 3529 
Q 2884 3475 3122 3366 
z
" transform="scale(0.015625)"/>
       <path id="DejaVuSans-6d" d="M 3328 2828 
Q 3544 3216 3844 3400 
Q 4144 3584 4550 3584 
Q 5097 3584 5394 3201 
Q 5691 2819 5691 2113 
L 5691 0 
L 5113 0 
L 5113 2094 
Q 5113 2597 4934 2840 
Q 4756 3084 4391 3084 
Q 3944 3084 3684 2787 
Q 3425 2491 3425 1978 
L 3425 0 
L 2847 0 
L 2847 2094 
Q 2847 2600 2669 2842 
Q 2491 3084 2119 3084 
Q 1678 3084 1418 2786 
Q 1159 2488 1159 1978 
L 1159 0 
L 581 0 
L 581 3500 
L 1159 3500 
L 1159 2956 
Q 1356 3278 1631 3431 
Q 1906 3584 2284 3584 
Q 2666 3584 2933 3390 
Q 3200 3197 3328 2828 
z
" transform="scale(0.015625)"/>
      </defs>
      <use xlink:href="#DejaVuSans-68"/>
      <use xlink:href="#DejaVuSans-69" x="63.378906"/>
      <use xlink:href="#DejaVuSans-73" x="91.162109"/>
      <use xlink:href="#DejaVuSans-74" x="143.261719"/>
      <use xlink:href="#DejaVuSans-6f" x="182.470703"/>
      <use xlink:href="#DejaVuSans-72" x="243.652344"/>
      <use xlink:href="#DejaVuSans-69" x="284.765625"/>
      <use xlink:href="#DejaVuSans-63" x="312.548828"/>
      <use xlink:href="#DejaVuSans-61" x="367.529297"/>
      <use xlink:href="#DejaVuSans-6c" x="428.808594"/>
      <use xlink:href="#DejaVuSans-20" x="456.591797"/>
      <use xlink:href="#DejaVuSans-6d" x="488.378906"/>
      <use xlink:href="#DejaVuSans-65" x="585.791016"/>
      <use xlink:href="#DejaVuSans-61" x="647.314453"/>
      <use xlink:href="#DejaVuSans-6e" x="708.59375"/>
     </g>
    </g>
   </g>
  </g>
 </g>
 <defs>
  <clipPath id="p9dc5368ea9">
   <rect x="54" y="34.56" width="334.8" height="217.44"/>
  </clipPath>
 </defs>
</svg>
