<?xml version="1.0" encoding="utf-8" standalone="no"?>
<!DOCTYPE svg PUBLIC "-//W3C//DTD SVG 1.1//EN"
  "http://www.w3.org/Graphics/SVG/1.1/DTD/svg11.dtd">
<svg xmlns:xlink="http://www.w3.org/1999/xlink" width="432pt" height="288pt" viewBox="0 0 432 288" xmlns="http://www.w3.org/2000/svg" version="1.1">
 <metadata>
  <rdf:RDF xmlns:dc="http://purl.org/dc/elements/1.1/" xmlns:cc="http://creativecommons.org/ns#" xmlns:rdf="http://www.w3.org/1999/02/22-rdf-syntax-ns#">
   <cc:Work>
    <dc:type rdf:resource="http://purl.org/dc/dcmitype/StillImage"/>
    <dc:date>2024-07-25T10:06:48.468281</dc:date>
    <dc:format>image/svg+xml</dc:format>
    <dc:creator>
     <cc:Agent>
      <dc:title>Matplotlib v3.7.1, https://matplotlib.org/</dc:title>
     </cc:Agent>
    </dc:creator>
   </cc:Work>
  </rdf:RDF>
 </metadata>
 <defs>
  <style type="text/css">*{stroke-linejoin: round; stroke-linecap: butt}</style>
 </defs>
 <g id="figure_1">
  <g id="patch_1">
   <path d="M 0 288 
L 432 288 
L 432 0 
L 0 0 
z
" style="fill: #ffffff"/>
  </g>
  <g id="axes_1">
   <g id="patch_2">
    <path d="M 54 252 
L 388.8 252 
L 388.8 34.56 
L 54 34.56 
z
" style="fill: #ffffff"/>
   </g>
   <g id="patch_3">
    <path d="M 69.218182 252 
L 72.231683 252 
L 72.231683 251.626199 
L 69.218182 251.626199 
z
" clip-path="url(#pa7f476ce07)" style="fill: #1f77b4"/>
   </g>
   <g id="patch_4">
    <path d="M 72.231683 252 
L 75.245185 252 
L 75.245185 252 
L 72.231683 252 
z
" clip-path="url(#pa7f476ce07)" style="fill: #1f77b4"/>
   </g>
   <g id="patch_5">
    <path d="M 75.245185 252 
L 78.258686 252 
L 78.258686 252 
L 75.245185 252 
z
" clip-path="url(#pa7f476ce07)" style="fill: #1f77b4"/>
   </g>
   <g id="patch_6">
    <path d="M 78.258686 252 
L 81.272187 252 
L 81.272187 252 
L 78.258686 252 
z
" clip-path="url(#pa7f476ce07)" style="fill: #1f77b4"/>
   </g>
   <g id="patch_7">
    <path d="M 81.272187 252 
L 84.285689 252 
L 84.285689 252 
L 81.272187 252 
z
" clip-path="url(#pa7f476ce07)" style="fill: #1f77b4"/>
   </g>
   <g id="patch_8">
    <path d="M 84.285689 252 
L 87.29919 252 
L 87.29919 251.626199 
L 84.285689 251.626199 
z
" clip-path="url(#pa7f476ce07)" style="fill: #1f77b4"/>
   </g>
   <g id="patch_9">
    <path d="M 87.29919 252 
L 90.312691 252 
L 90.312691 251.626199 
L 87.29919 251.626199 
z
" clip-path="url(#pa7f476ce07)" style="fill: #1f77b4"/>
   </g>
   <g id="patch_10">
    <path d="M 90.312691 252 
L 93.326193 252 
L 93.326193 251.626199 
L 90.312691 251.626199 
z
" clip-path="url(#pa7f476ce07)" style="fill: #1f77b4"/>
   </g>
   <g id="patch_11">
    <path d="M 93.326193 252 
L 96.339694 252 
L 96.339694 251.252398 
L 93.326193 251.252398 
z
" clip-path="url(#pa7f476ce07)" style="fill: #1f77b4"/>
   </g>
   <g id="patch_12">
    <path d="M 96.339694 252 
L 99.353195 252 
L 99.353195 250.317896 
L 96.339694 250.317896 
z
" clip-path="url(#pa7f476ce07)" style="fill: #1f77b4"/>
   </g>
   <g id="patch_13">
    <path d="M 99.353195 252 
L 102.366697 252 
L 102.366697 250.317896 
L 99.353195 250.317896 
z
" clip-path="url(#pa7f476ce07)" style="fill: #1f77b4"/>
   </g>
   <g id="patch_14">
    <path d="M 102.366697 252 
L 105.380198 252 
L 105.380198 249.196493 
L 102.366697 249.196493 
z
" clip-path="url(#pa7f476ce07)" style="fill: #1f77b4"/>
   </g>
   <g id="patch_15">
    <path d="M 105.380198 252 
L 108.393699 252 
L 108.393699 248.261991 
L 105.380198 248.261991 
z
" clip-path="url(#pa7f476ce07)" style="fill: #1f77b4"/>
   </g>
   <g id="patch_16">
    <path d="M 108.393699 252 
L 111.407201 252 
L 111.407201 243.77638 
L 108.393699 243.77638 
z
" clip-path="url(#pa7f476ce07)" style="fill: #1f77b4"/>
   </g>
   <g id="patch_17">
    <path d="M 111.407201 252 
L 114.420702 252 
L 114.420702 241.159773 
L 111.407201 241.159773 
z
" clip-path="url(#pa7f476ce07)" style="fill: #1f77b4"/>
   </g>
   <g id="patch_18">
    <path d="M 114.420702 252 
L 117.434203 252 
L 117.434203 241.159773 
L 114.420702 241.159773 
z
" clip-path="url(#pa7f476ce07)" style="fill: #1f77b4"/>
   </g>
   <g id="patch_19">
    <path d="M 117.434203 252 
L 120.447705 252 
L 120.447705 232.375451 
L 117.434203 232.375451 
z
" clip-path="url(#pa7f476ce07)" style="fill: #1f77b4"/>
   </g>
   <g id="patch_20">
    <path d="M 120.447705 252 
L 123.461206 252 
L 123.461206 226.581537 
L 120.447705 226.581537 
z
" clip-path="url(#pa7f476ce07)" style="fill: #1f77b4"/>
   </g>
   <g id="patch_21">
    <path d="M 123.461206 252 
L 126.474707 252 
L 126.474707 217.423414 
L 123.461206 217.423414 
z
" clip-path="url(#pa7f476ce07)" style="fill: #1f77b4"/>
   </g>
   <g id="patch_22">
    <path d="M 126.474707 252 
L 129.488209 252 
L 129.488209 204.153481 
L 126.474707 204.153481 
z
" clip-path="url(#pa7f476ce07)" style="fill: #1f77b4"/>
   </g>
   <g id="patch_23">
    <path d="M 129.488209 252 
L 132.50171 252 
L 132.50171 182.846828 
L 129.488209 182.846828 
z
" clip-path="url(#pa7f476ce07)" style="fill: #1f77b4"/>
   </g>
   <g id="patch_24">
    <path d="M 132.50171 252 
L 135.515212 252 
L 135.515212 167.33409 
L 132.50171 167.33409 
z
" clip-path="url(#pa7f476ce07)" style="fill: #1f77b4"/>
   </g>
   <g id="patch_25">
    <path d="M 135.515212 252 
L 138.528713 252 
L 138.528713 145.092935 
L 135.515212 145.092935 
z
" clip-path="url(#pa7f476ce07)" style="fill: #1f77b4"/>
   </g>
   <g id="patch_26">
    <path d="M 138.528713 252 
L 141.542214 252 
L 141.542214 132.383703 
L 138.528713 132.383703 
z
" clip-path="url(#pa7f476ce07)" style="fill: #1f77b4"/>
   </g>
   <g id="patch_27">
    <path d="M 141.542214 252 
L 144.555716 252 
L 144.555716 102.666529 
L 141.542214 102.666529 
z
" clip-path="url(#pa7f476ce07)" style="fill: #1f77b4"/>
   </g>
   <g id="patch_28">
    <path d="M 144.555716 252 
L 147.569217 252 
L 147.569217 80.986075 
L 144.555716 80.986075 
z
" clip-path="url(#pa7f476ce07)" style="fill: #1f77b4"/>
   </g>
   <g id="patch_29">
    <path d="M 147.569217 252 
L 150.582718 252 
L 150.582718 70.145848 
L 147.569217 70.145848 
z
" clip-path="url(#pa7f476ce07)" style="fill: #1f77b4"/>
   </g>
   <g id="patch_30">
    <path d="M 150.582718 252 
L 153.59622 252 
L 153.59622 57.436617 
L 150.582718 57.436617 
z
" clip-path="url(#pa7f476ce07)" style="fill: #1f77b4"/>
   </g>
   <g id="patch_31">
    <path d="M 153.59622 252 
L 156.609721 252 
L 156.609721 46.970191 
L 153.59622 46.970191 
z
" clip-path="url(#pa7f476ce07)" style="fill: #1f77b4"/>
   </g>
   <g id="patch_32">
    <path d="M 156.609721 252 
L 159.623222 252 
L 159.623222 44.914286 
L 156.609721 44.914286 
z
" clip-path="url(#pa7f476ce07)" style="fill: #1f77b4"/>
   </g>
   <g id="patch_33">
    <path d="M 159.623222 252 
L 162.636724 252 
L 162.636724 54.63311 
L 159.623222 54.63311 
z
" clip-path="url(#pa7f476ce07)" style="fill: #1f77b4"/>
   </g>
   <g id="patch_34">
    <path d="M 162.636724 252 
L 165.650225 252 
L 165.650225 65.286436 
L 162.636724 65.286436 
z
" clip-path="url(#pa7f476ce07)" style="fill: #1f77b4"/>
   </g>
   <g id="patch_35">
    <path d="M 165.650225 252 
L 168.663726 252 
L 168.663726 75.752862 
L 165.650225 75.752862 
z
" clip-path="url(#pa7f476ce07)" style="fill: #1f77b4"/>
   </g>
   <g id="patch_36">
    <path d="M 168.663726 252 
L 171.677228 252 
L 171.677228 80.238473 
L 168.663726 80.238473 
z
" clip-path="url(#pa7f476ce07)" style="fill: #1f77b4"/>
   </g>
   <g id="patch_37">
    <path d="M 171.677228 252 
L 174.690729 252 
L 174.690729 98.180918 
L 171.677228 98.180918 
z
" clip-path="url(#pa7f476ce07)" style="fill: #1f77b4"/>
   </g>
   <g id="patch_38">
    <path d="M 174.690729 252 
L 177.70423 252 
L 177.70423 116.123363 
L 174.690729 116.123363 
z
" clip-path="url(#pa7f476ce07)" style="fill: #1f77b4"/>
   </g>
   <g id="patch_39">
    <path d="M 177.70423 252 
L 180.717732 252 
L 180.717732 132.757504 
L 177.70423 132.757504 
z
" clip-path="url(#pa7f476ce07)" style="fill: #1f77b4"/>
   </g>
   <g id="patch_40">
    <path d="M 180.717732 252 
L 183.731233 252 
L 183.731233 149.765446 
L 180.717732 149.765446 
z
" clip-path="url(#pa7f476ce07)" style="fill: #1f77b4"/>
   </g>
   <g id="patch_41">
    <path d="M 183.731233 252 
L 186.744734 252 
L 186.744734 153.316555 
L 183.731233 153.316555 
z
" clip-path="url(#pa7f476ce07)" style="fill: #1f77b4"/>
   </g>
   <g id="patch_42">
    <path d="M 186.744734 252 
L 189.758236 252 
L 189.758236 174.623208 
L 186.744734 174.623208 
z
" clip-path="url(#pa7f476ce07)" style="fill: #1f77b4"/>
   </g>
   <g id="patch_43">
    <path d="M 189.758236 252 
L 192.771737 252 
L 192.771737 175.55771 
L 189.758236 175.55771 
z
" clip-path="url(#pa7f476ce07)" style="fill: #1f77b4"/>
   </g>
   <g id="patch_44">
    <path d="M 192.771737 252 
L 195.785239 252 
L 195.785239 186.584838 
L 192.771737 186.584838 
z
" clip-path="url(#pa7f476ce07)" style="fill: #1f77b4"/>
   </g>
   <g id="patch_45">
    <path d="M 195.785239 252 
L 198.79874 252 
L 198.79874 194.247757 
L 195.785239 194.247757 
z
" clip-path="url(#pa7f476ce07)" style="fill: #1f77b4"/>
   </g>
   <g id="patch_46">
    <path d="M 198.79874 252 
L 201.812241 252 
L 201.812241 202.097576 
L 198.79874 202.097576 
z
" clip-path="url(#pa7f476ce07)" style="fill: #1f77b4"/>
   </g>
   <g id="patch_47">
    <path d="M 201.812241 252 
L 204.825743 252 
L 204.825743 209.199794 
L 201.812241 209.199794 
z
" clip-path="url(#pa7f476ce07)" style="fill: #1f77b4"/>
   </g>
   <g id="patch_48">
    <path d="M 204.825743 252 
L 207.839244 252 
L 207.839244 215.74131 
L 204.825743 215.74131 
z
" clip-path="url(#pa7f476ce07)" style="fill: #1f77b4"/>
   </g>
   <g id="patch_49">
    <path d="M 207.839244 252 
L 210.852745 252 
L 210.852745 215.92821 
L 207.839244 215.92821 
z
" clip-path="url(#pa7f476ce07)" style="fill: #1f77b4"/>
   </g>
   <g id="patch_50">
    <path d="M 210.852745 252 
L 213.866247 252 
L 213.866247 220.974523 
L 210.852745 220.974523 
z
" clip-path="url(#pa7f476ce07)" style="fill: #1f77b4"/>
   </g>
   <g id="patch_51">
    <path d="M 213.866247 252 
L 216.879748 252 
L 216.879748 226.955338 
L 213.866247 226.955338 
z
" clip-path="url(#pa7f476ce07)" style="fill: #1f77b4"/>
   </g>
   <g id="patch_52">
    <path d="M 216.879748 252 
L 219.893249 252 
L 219.893249 232.188551 
L 216.879748 232.188551 
z
" clip-path="url(#pa7f476ce07)" style="fill: #1f77b4"/>
   </g>
   <g id="patch_53">
    <path d="M 219.893249 252 
L 222.906751 252 
L 222.906751 227.329139 
L 219.893249 227.329139 
z
" clip-path="url(#pa7f476ce07)" style="fill: #1f77b4"/>
   </g>
   <g id="patch_54">
    <path d="M 222.906751 252 
L 225.920252 252 
L 225.920252 233.309954 
L 222.906751 233.309954 
z
" clip-path="url(#pa7f476ce07)" style="fill: #1f77b4"/>
   </g>
   <g id="patch_55">
    <path d="M 225.920252 252 
L 228.933753 252 
L 228.933753 235.92656 
L 225.920252 235.92656 
z
" clip-path="url(#pa7f476ce07)" style="fill: #1f77b4"/>
   </g>
   <g id="patch_56">
    <path d="M 228.933753 252 
L 231.947255 252 
L 231.947255 237.795565 
L 228.933753 237.795565 
z
" clip-path="url(#pa7f476ce07)" style="fill: #1f77b4"/>
   </g>
   <g id="patch_57">
    <path d="M 231.947255 252 
L 234.960756 252 
L 234.960756 237.047963 
L 231.947255 237.047963 
z
" clip-path="url(#pa7f476ce07)" style="fill: #1f77b4"/>
   </g>
   <g id="patch_58">
    <path d="M 234.960756 252 
L 237.974257 252 
L 237.974257 242.841877 
L 234.960756 242.841877 
z
" clip-path="url(#pa7f476ce07)" style="fill: #1f77b4"/>
   </g>
   <g id="patch_59">
    <path d="M 237.974257 252 
L 240.987759 252 
L 240.987759 241.346674 
L 237.974257 241.346674 
z
" clip-path="url(#pa7f476ce07)" style="fill: #1f77b4"/>
   </g>
   <g id="patch_60">
    <path d="M 240.987759 252 
L 244.00126 252 
L 244.00126 241.533574 
L 240.987759 241.533574 
z
" clip-path="url(#pa7f476ce07)" style="fill: #1f77b4"/>
   </g>
   <g id="patch_61">
    <path d="M 244.00126 252 
L 247.014761 252 
L 247.014761 243.96328 
L 244.00126 243.96328 
z
" clip-path="url(#pa7f476ce07)" style="fill: #1f77b4"/>
   </g>
   <g id="patch_62">
    <path d="M 247.014761 252 
L 250.028263 252 
L 250.028263 243.215678 
L 247.014761 243.215678 
z
" clip-path="url(#pa7f476ce07)" style="fill: #1f77b4"/>
   </g>
   <g id="patch_63">
    <path d="M 250.028263 252 
L 253.041764 252 
L 253.041764 244.710882 
L 250.028263 244.710882 
z
" clip-path="url(#pa7f476ce07)" style="fill: #1f77b4"/>
   </g>
   <g id="patch_64">
    <path d="M 253.041764 252 
L 256.055266 252 
L 256.055266 243.402579 
L 253.041764 243.402579 
z
" clip-path="url(#pa7f476ce07)" style="fill: #1f77b4"/>
   </g>
   <g id="patch_65">
    <path d="M 256.055266 252 
L 259.068767 252 
L 259.068767 246.019185 
L 256.055266 246.019185 
z
" clip-path="url(#pa7f476ce07)" style="fill: #1f77b4"/>
   </g>
   <g id="patch_66">
    <path d="M 259.068767 252 
L 262.082268 252 
L 262.082268 245.458484 
L 259.068767 245.458484 
z
" clip-path="url(#pa7f476ce07)" style="fill: #1f77b4"/>
   </g>
   <g id="patch_67">
    <path d="M 262.082268 252 
L 265.09577 252 
L 265.09577 247.140588 
L 262.082268 247.140588 
z
" clip-path="url(#pa7f476ce07)" style="fill: #1f77b4"/>
   </g>
   <g id="patch_68">
    <path d="M 265.09577 252 
L 268.109271 252 
L 268.109271 247.140588 
L 265.09577 247.140588 
z
" clip-path="url(#pa7f476ce07)" style="fill: #1f77b4"/>
   </g>
   <g id="patch_69">
    <path d="M 268.109271 252 
L 271.122772 252 
L 271.122772 248.261991 
L 268.109271 248.261991 
z
" clip-path="url(#pa7f476ce07)" style="fill: #1f77b4"/>
   </g>
   <g id="patch_70">
    <path d="M 271.122772 252 
L 274.136274 252 
L 274.136274 247.327488 
L 271.122772 247.327488 
z
" clip-path="url(#pa7f476ce07)" style="fill: #1f77b4"/>
   </g>
   <g id="patch_71">
    <path d="M 274.136274 252 
L 277.149775 252 
L 277.149775 247.88819 
L 274.136274 247.88819 
z
" clip-path="url(#pa7f476ce07)" style="fill: #1f77b4"/>
   </g>
   <g id="patch_72">
    <path d="M 277.149775 252 
L 280.163276 252 
L 280.163276 246.766787 
L 277.149775 246.766787 
z
" clip-path="url(#pa7f476ce07)" style="fill: #1f77b4"/>
   </g>
   <g id="patch_73">
    <path d="M 280.163276 252 
L 283.176778 252 
L 283.176778 249.196493 
L 280.163276 249.196493 
z
" clip-path="url(#pa7f476ce07)" style="fill: #1f77b4"/>
   </g>
   <g id="patch_74">
    <path d="M 283.176778 252 
L 286.190279 252 
L 286.190279 249.196493 
L 283.176778 249.196493 
z
" clip-path="url(#pa7f476ce07)" style="fill: #1f77b4"/>
   </g>
   <g id="patch_75">
    <path d="M 286.190279 252 
L 289.20378 252 
L 289.20378 248.822692 
L 286.190279 248.822692 
z
" clip-path="url(#pa7f476ce07)" style="fill: #1f77b4"/>
   </g>
   <g id="patch_76">
    <path d="M 289.20378 252 
L 292.217282 252 
L 292.217282 249.757194 
L 289.20378 249.757194 
z
" clip-path="url(#pa7f476ce07)" style="fill: #1f77b4"/>
   </g>
   <g id="patch_77">
    <path d="M 292.217282 252 
L 295.230783 252 
L 295.230783 249.383394 
L 292.217282 249.383394 
z
" clip-path="url(#pa7f476ce07)" style="fill: #1f77b4"/>
   </g>
   <g id="patch_78">
    <path d="M 295.230783 252 
L 298.244284 252 
L 298.244284 250.691697 
L 295.230783 250.691697 
z
" clip-path="url(#pa7f476ce07)" style="fill: #1f77b4"/>
   </g>
   <g id="patch_79">
    <path d="M 298.244284 252 
L 301.257786 252 
L 301.257786 250.691697 
L 298.244284 250.691697 
z
" clip-path="url(#pa7f476ce07)" style="fill: #1f77b4"/>
   </g>
   <g id="patch_80">
    <path d="M 301.257786 252 
L 304.271287 252 
L 304.271287 250.130995 
L 301.257786 250.130995 
z
" clip-path="url(#pa7f476ce07)" style="fill: #1f77b4"/>
   </g>
   <g id="patch_81">
    <path d="M 304.271287 252 
L 307.284788 252 
L 307.284788 250.878597 
L 304.271287 250.878597 
z
" clip-path="url(#pa7f476ce07)" style="fill: #1f77b4"/>
   </g>
   <g id="patch_82">
    <path d="M 307.284788 252 
L 310.29829 252 
L 310.29829 251.252398 
L 307.284788 251.252398 
z
" clip-path="url(#pa7f476ce07)" style="fill: #1f77b4"/>
   </g>
   <g id="patch_83">
    <path d="M 310.29829 252 
L 313.311791 252 
L 313.311791 250.878597 
L 310.29829 250.878597 
z
" clip-path="url(#pa7f476ce07)" style="fill: #1f77b4"/>
   </g>
   <g id="patch_84">
    <path d="M 313.311791 252 
L 316.325293 252 
L 316.325293 251.439299 
L 313.311791 251.439299 
z
" clip-path="url(#pa7f476ce07)" style="fill: #1f77b4"/>
   </g>
   <g id="patch_85">
    <path d="M 316.325293 252 
L 319.338794 252 
L 319.338794 250.878597 
L 316.325293 250.878597 
z
" clip-path="url(#pa7f476ce07)" style="fill: #1f77b4"/>
   </g>
   <g id="patch_86">
    <path d="M 319.338794 252 
L 322.352295 252 
L 322.352295 251.065498 
L 319.338794 251.065498 
z
" clip-path="url(#pa7f476ce07)" style="fill: #1f77b4"/>
   </g>
   <g id="patch_87">
    <path d="M 322.352295 252 
L 325.365797 252 
L 325.365797 251.8131 
L 322.352295 251.8131 
z
" clip-path="url(#pa7f476ce07)" style="fill: #1f77b4"/>
   </g>
   <g id="patch_88">
    <path d="M 325.365797 252 
L 328.379298 252 
L 328.379298 251.065498 
L 325.365797 251.065498 
z
" clip-path="url(#pa7f476ce07)" style="fill: #1f77b4"/>
   </g>
   <g id="patch_89">
    <path d="M 328.379298 252 
L 331.392799 252 
L 331.392799 251.8131 
L 328.379298 251.8131 
z
" clip-path="url(#pa7f476ce07)" style="fill: #1f77b4"/>
   </g>
   <g id="patch_90">
    <path d="M 331.392799 252 
L 334.406301 252 
L 334.406301 251.252398 
L 331.392799 251.252398 
z
" clip-path="url(#pa7f476ce07)" style="fill: #1f77b4"/>
   </g>
   <g id="patch_91">
    <path d="M 334.406301 252 
L 337.419802 252 
L 337.419802 251.626199 
L 334.406301 251.626199 
z
" clip-path="url(#pa7f476ce07)" style="fill: #1f77b4"/>
   </g>
   <g id="patch_92">
    <path d="M 337.419802 252 
L 340.433303 252 
L 340.433303 251.439299 
L 337.419802 251.439299 
z
" clip-path="url(#pa7f476ce07)" style="fill: #1f77b4"/>
   </g>
   <g id="patch_93">
    <path d="M 340.433303 252 
L 343.446805 252 
L 343.446805 251.626199 
L 340.433303 251.626199 
z
" clip-path="url(#pa7f476ce07)" style="fill: #1f77b4"/>
   </g>
   <g id="patch_94">
    <path d="M 343.446805 252 
L 346.460306 252 
L 346.460306 252 
L 343.446805 252 
z
" clip-path="url(#pa7f476ce07)" style="fill: #1f77b4"/>
   </g>
   <g id="patch_95">
    <path d="M 346.460306 252 
L 349.473807 252 
L 349.473807 251.8131 
L 346.460306 251.8131 
z
" clip-path="url(#pa7f476ce07)" style="fill: #1f77b4"/>
   </g>
   <g id="patch_96">
    <path d="M 349.473807 252 
L 352.487309 252 
L 352.487309 252 
L 349.473807 252 
z
" clip-path="url(#pa7f476ce07)" style="fill: #1f77b4"/>
   </g>
   <g id="patch_97">
    <path d="M 352.487309 252 
L 355.50081 252 
L 355.50081 252 
L 352.487309 252 
z
" clip-path="url(#pa7f476ce07)" style="fill: #1f77b4"/>
   </g>
   <g id="patch_98">
    <path d="M 355.50081 252 
L 358.514311 252 
L 358.514311 251.8131 
L 355.50081 251.8131 
z
" clip-path="url(#pa7f476ce07)" style="fill: #1f77b4"/>
   </g>
   <g id="patch_99">
    <path d="M 358.514311 252 
L 361.527813 252 
L 361.527813 251.8131 
L 358.514311 251.8131 
z
" clip-path="url(#pa7f476ce07)" style="fill: #1f77b4"/>
   </g>
   <g id="patch_100">
    <path d="M 361.527813 252 
L 364.541314 252 
L 364.541314 252 
L 361.527813 252 
z
" clip-path="url(#pa7f476ce07)" style="fill: #1f77b4"/>
   </g>
   <g id="patch_101">
    <path d="M 364.541314 252 
L 367.554815 252 
L 367.554815 252 
L 364.541314 252 
z
" clip-path="url(#pa7f476ce07)" style="fill: #1f77b4"/>
   </g>
   <g id="patch_102">
    <path d="M 367.554815 252 
L 370.568317 252 
L 370.568317 251.8131 
L 367.554815 251.8131 
z
" clip-path="url(#pa7f476ce07)" style="fill: #1f77b4"/>
   </g>
   <g id="patch_103">
    <path d="M 370.568317 252 
L 373.581818 252 
L 373.581818 251.8131 
L 370.568317 251.8131 
z
" clip-path="url(#pa7f476ce07)" style="fill: #1f77b4"/>
   </g>
   <g id="matplotlib.axis_1">
    <g id="xtick_1">
     <g id="line2d_1">
      <path d="M 83.363581 252 
L 83.363581 34.56 
" clip-path="url(#pa7f476ce07)" style="fill: none; stroke: #b0b0b0; stroke-width: 0.8; stroke-linecap: square"/>
     </g>
     <g id="line2d_2">
      <defs>
       <path id="mf507912e59" d="M 0 0 
L 0 3.5 
" style="stroke: #000000; stroke-width: 0.8"/>
      </defs>
      <g>
       <use xlink:href="#mf507912e59" x="83.363581" y="252" style="stroke: #000000; stroke-width: 0.8"/>
      </g>
     </g>
     <g id="text_1">
      <!-- −2 -->
      <g transform="translate(75.992487 266.598437) scale(0.1 -0.1)">
       <defs>
        <path id="DejaVuSans-2212" d="M 678 2272 
L 4684 2272 
L 4684 1741 
L 678 1741 
L 678 2272 
z
" transform="scale(0.015625)"/>
        <path id="DejaVuSans-32" d="M 1228 531 
L 3431 531 
L 3431 0 
L 469 0 
L 469 531 
Q 828 903 1448 1529 
Q 2069 2156 2228 2338 
Q 2531 2678 2651 2914 
Q 2772 3150 2772 3378 
Q 2772 3750 2511 3984 
Q 2250 4219 1831 4219 
Q 1534 4219 1204 4116 
Q 875 4013 500 3803 
L 500 4441 
Q 881 4594 1212 4672 
Q 1544 4750 1819 4750 
Q 2544 4750 2975 4387 
Q 3406 4025 3406 3419 
Q 3406 3131 3298 2873 
Q 3191 2616 2906 2266 
Q 2828 2175 2409 1742 
Q 1991 1309 1228 531 
z
" transform="scale(0.015625)"/>
       </defs>
       <use xlink:href="#DejaVuSans-2212"/>
       <use xlink:href="#DejaVuSans-32" x="83.789062"/>
      </g>
     </g>
    </g>
    <g id="xtick_2">
     <g id="line2d_3">
      <path d="M 125.446315 252 
L 125.446315 34.56 
" clip-path="url(#pa7f476ce07)" style="fill: none; stroke: #b0b0b0; stroke-width: 0.8; stroke-linecap: square"/>
     </g>
     <g id="line2d_4">
      <g>
       <use xlink:href="#mf507912e59" x="125.446315" y="252" style="stroke: #000000; stroke-width: 0.8"/>
      </g>
     </g>
     <g id="text_2">
      <!-- 0 -->
      <g transform="translate(122.265065 266.598437) scale(0.1 -0.1)">
       <defs>
        <path id="DejaVuSans-30" d="M 2034 4250 
Q 1547 4250 1301 3770 
Q 1056 3291 1056 2328 
Q 1056 1369 1301 889 
Q 1547 409 2034 409 
Q 2525 409 2770 889 
Q 3016 1369 3016 2328 
Q 3016 3291 2770 3770 
Q 2525 4250 2034 4250 
z
M 2034 4750 
Q 2819 4750 3233 4129 
Q 3647 3509 3647 2328 
Q 3647 1150 3233 529 
Q 2819 -91 2034 -91 
Q 1250 -91 836 529 
Q 422 1150 422 2328 
Q 422 3509 836 4129 
Q 1250 4750 2034 4750 
z
" transform="scale(0.015625)"/>
       </defs>
       <use xlink:href="#DejaVuSans-30"/>
      </g>
     </g>
    </g>
    <g id="xtick_3">
     <g id="line2d_5">
      <path d="M 167.529049 252 
L 167.529049 34.56 
" clip-path="url(#pa7f476ce07)" style="fill: none; stroke: #b0b0b0; stroke-width: 0.8; stroke-linecap: square"/>
     </g>
     <g id="line2d_6">
      <g>
       <use xlink:href="#mf507912e59" x="167.529049" y="252" style="stroke: #000000; stroke-width: 0.8"/>
      </g>
     </g>
     <g id="text_3">
      <!-- 2 -->
      <g transform="translate(164.347799 266.598437) scale(0.1 -0.1)">
       <use xlink:href="#DejaVuSans-32"/>
      </g>
     </g>
    </g>
    <g id="xtick_4">
     <g id="line2d_7">
      <path d="M 209.611784 252 
L 209.611784 34.56 
" clip-path="url(#pa7f476ce07)" style="fill: none; stroke: #b0b0b0; stroke-width: 0.8; stroke-linecap: square"/>
     </g>
     <g id="line2d_8">
      <g>
       <use xlink:href="#mf507912e59" x="209.611784" y="252" style="stroke: #000000; stroke-width: 0.8"/>
      </g>
     </g>
     <g id="text_4">
      <!-- 4 -->
      <g transform="translate(206.430534 266.598437) scale(0.1 -0.1)">
       <defs>
        <path id="DejaVuSans-34" d="M 2419 4116 
L 825 1625 
L 2419 1625 
L 2419 4116 
z
M 2253 4666 
L 3047 4666 
L 3047 1625 
L 3713 1625 
L 3713 1100 
L 3047 1100 
L 3047 0 
L 2419 0 
L 2419 1100 
L 313 1100 
L 313 1709 
L 2253 4666 
z
" transform="scale(0.015625)"/>
       </defs>
       <use xlink:href="#DejaVuSans-34"/>
      </g>
     </g>
    </g>
    <g id="xtick_5">
     <g id="line2d_9">
      <path d="M 251.694518 252 
L 251.694518 34.56 
" clip-path="url(#pa7f476ce07)" style="fill: none; stroke: #b0b0b0; stroke-width: 0.8; stroke-linecap: square"/>
     </g>
     <g id="line2d_10">
      <g>
       <use xlink:href="#mf507912e59" x="251.694518" y="252" style="stroke: #000000; stroke-width: 0.8"/>
      </g>
     </g>
     <g id="text_5">
      <!-- 6 -->
      <g transform="translate(248.513268 266.598437) scale(0.1 -0.1)">
       <defs>
        <path id="DejaVuSans-36" d="M 2113 2584 
Q 1688 2584 1439 2293 
Q 1191 2003 1191 1497 
Q 1191 994 1439 701 
Q 1688 409 2113 409 
Q 2538 409 2786 701 
Q 3034 994 3034 1497 
Q 3034 2003 2786 2293 
Q 2538 2584 2113 2584 
z
M 3366 4563 
L 3366 3988 
Q 3128 4100 2886 4159 
Q 2644 4219 2406 4219 
Q 1781 4219 1451 3797 
Q 1122 3375 1075 2522 
Q 1259 2794 1537 2939 
Q 1816 3084 2150 3084 
Q 2853 3084 3261 2657 
Q 3669 2231 3669 1497 
Q 3669 778 3244 343 
Q 2819 -91 2113 -91 
Q 1303 -91 875 529 
Q 447 1150 447 2328 
Q 447 3434 972 4092 
Q 1497 4750 2381 4750 
Q 2619 4750 2861 4703 
Q 3103 4656 3366 4563 
z
" transform="scale(0.015625)"/>
       </defs>
       <use xlink:href="#DejaVuSans-36"/>
      </g>
     </g>
    </g>
    <g id="xtick_6">
     <g id="line2d_11">
      <path d="M 293.777253 252 
L 293.777253 34.56 
" clip-path="url(#pa7f476ce07)" style="fill: none; stroke: #b0b0b0; stroke-width: 0.8; stroke-linecap: square"/>
     </g>
     <g id="line2d_12">
      <g>
       <use xlink:href="#mf507912e59" x="293.777253" y="252" style="stroke: #000000; stroke-width: 0.8"/>
      </g>
     </g>
     <g id="text_6">
      <!-- 8 -->
      <g transform="translate(290.596003 266.598437) scale(0.1 -0.1)">
       <defs>
        <path id="DejaVuSans-38" d="M 2034 2216 
Q 1584 2216 1326 1975 
Q 1069 1734 1069 1313 
Q 1069 891 1326 650 
Q 1584 409 2034 409 
Q 2484 409 2743 651 
Q 3003 894 3003 1313 
Q 3003 1734 2745 1975 
Q 2488 2216 2034 2216 
z
M 1403 2484 
Q 997 2584 770 2862 
Q 544 3141 544 3541 
Q 544 4100 942 4425 
Q 1341 4750 2034 4750 
Q 2731 4750 3128 4425 
Q 3525 4100 3525 3541 
Q 3525 3141 3298 2862 
Q 3072 2584 2669 2484 
Q 3125 2378 3379 2068 
Q 3634 1759 3634 1313 
Q 3634 634 3220 271 
Q 2806 -91 2034 -91 
Q 1263 -91 848 271 
Q 434 634 434 1313 
Q 434 1759 690 2068 
Q 947 2378 1403 2484 
z
M 1172 3481 
Q 1172 3119 1398 2916 
Q 1625 2713 2034 2713 
Q 2441 2713 2670 2916 
Q 2900 3119 2900 3481 
Q 2900 3844 2670 4047 
Q 2441 4250 2034 4250 
Q 1625 4250 1398 4047 
Q 1172 3844 1172 3481 
z
" transform="scale(0.015625)"/>
       </defs>
       <use xlink:href="#DejaVuSans-38"/>
      </g>
     </g>
    </g>
    <g id="xtick_7">
     <g id="line2d_13">
      <path d="M 335.859987 252 
L 335.859987 34.56 
" clip-path="url(#pa7f476ce07)" style="fill: none; stroke: #b0b0b0; stroke-width: 0.8; stroke-linecap: square"/>
     </g>
     <g id="line2d_14">
      <g>
       <use xlink:href="#mf507912e59" x="335.859987" y="252" style="stroke: #000000; stroke-width: 0.8"/>
      </g>
     </g>
     <g id="text_7">
      <!-- 10 -->
      <g transform="translate(329.497487 266.598437) scale(0.1 -0.1)">
       <defs>
        <path id="DejaVuSans-31" d="M 794 531 
L 1825 531 
L 1825 4091 
L 703 3866 
L 703 4441 
L 1819 4666 
L 2450 4666 
L 2450 531 
L 3481 531 
L 3481 0 
L 794 0 
L 794 531 
z
" transform="scale(0.015625)"/>
       </defs>
       <use xlink:href="#DejaVuSans-31"/>
       <use xlink:href="#DejaVuSans-30" x="63.623047"/>
      </g>
     </g>
    </g>
    <g id="xtick_8">
     <g id="line2d_15">
      <path d="M 377.942721 252 
L 377.942721 34.56 
" clip-path="url(#pa7f476ce07)" style="fill: none; stroke: #b0b0b0; stroke-width: 0.8; stroke-linecap: square"/>
     </g>
     <g id="line2d_16">
      <g>
       <use xlink:href="#mf507912e59" x="377.942721" y="252" style="stroke: #000000; stroke-width: 0.8"/>
      </g>
     </g>
     <g id="text_8">
      <!-- 12 -->
      <g transform="translate(371.580221 266.598437) scale(0.1 -0.1)">
       <use xlink:href="#DejaVuSans-31"/>
       <use xlink:href="#DejaVuSans-32" x="63.623047"/>
      </g>
     </g>
    </g>
   </g>
   <g id="matplotlib.axis_2">
    <g id="ytick_1">
     <g id="line2d_17">
      <path d="M 54 252 
L 388.8 252 
" clip-path="url(#pa7f476ce07)" style="fill: none; stroke: #b0b0b0; stroke-width: 0.8; stroke-linecap: square"/>
     </g>
     <g id="line2d_18">
      <defs>
       <path id="m87febf66e2" d="M 0 0 
L -3.5 0 
" style="stroke: #000000; stroke-width: 0.8"/>
      </defs>
      <g>
       <use xlink:href="#m87febf66e2" x="54" y="252" style="stroke: #000000; stroke-width: 0.8"/>
      </g>
     </g>
     <g id="text_9">
      <!-- 0 -->
      <g transform="translate(40.6375 255.799219) scale(0.1 -0.1)">
       <use xlink:href="#DejaVuSans-30"/>
      </g>
     </g>
    </g>
    <g id="ytick_2">
     <g id="line2d_19">
      <path d="M 54 214.619907 
L 388.8 214.619907 
" clip-path="url(#pa7f476ce07)" style="fill: none; stroke: #b0b0b0; stroke-width: 0.8; stroke-linecap: square"/>
     </g>
     <g id="line2d_20">
      <g>
       <use xlink:href="#m87febf66e2" x="54" y="214.619907" style="stroke: #000000; stroke-width: 0.8"/>
      </g>
     </g>
     <g id="text_10">
      <!-- 200 -->
      <g transform="translate(27.9125 218.419126) scale(0.1 -0.1)">
       <use xlink:href="#DejaVuSans-32"/>
       <use xlink:href="#DejaVuSans-30" x="63.623047"/>
       <use xlink:href="#DejaVuSans-30" x="127.246094"/>
      </g>
     </g>
    </g>
    <g id="ytick_3">
     <g id="line2d_21">
      <path d="M 54 177.239814 
L 388.8 177.239814 
" clip-path="url(#pa7f476ce07)" style="fill: none; stroke: #b0b0b0; stroke-width: 0.8; stroke-linecap: square"/>
     </g>
     <g id="line2d_22">
      <g>
       <use xlink:href="#m87febf66e2" x="54" y="177.239814" style="stroke: #000000; stroke-width: 0.8"/>
      </g>
     </g>
     <g id="text_11">
      <!-- 400 -->
      <g transform="translate(27.9125 181.039033) scale(0.1 -0.1)">
       <use xlink:href="#DejaVuSans-34"/>
       <use xlink:href="#DejaVuSans-30" x="63.623047"/>
       <use xlink:href="#DejaVuSans-30" x="127.246094"/>
      </g>
     </g>
    </g>
    <g id="ytick_4">
     <g id="line2d_23">
      <path d="M 54 139.859722 
L 388.8 139.859722 
" clip-path="url(#pa7f476ce07)" style="fill: none; stroke: #b0b0b0; stroke-width: 0.8; stroke-linecap: square"/>
     </g>
     <g id="line2d_24">
      <g>
       <use xlink:href="#m87febf66e2" x="54" y="139.859722" style="stroke: #000000; stroke-width: 0.8"/>
      </g>
     </g>
     <g id="text_12">
      <!-- 600 -->
      <g transform="translate(27.9125 143.65894) scale(0.1 -0.1)">
       <use xlink:href="#DejaVuSans-36"/>
       <use xlink:href="#DejaVuSans-30" x="63.623047"/>
       <use xlink:href="#DejaVuSans-30" x="127.246094"/>
      </g>
     </g>
    </g>
    <g id="ytick_5">
     <g id="line2d_25">
      <path d="M 54 102.479629 
L 388.8 102.479629 
" clip-path="url(#pa7f476ce07)" style="fill: none; stroke: #b0b0b0; stroke-width: 0.8; stroke-linecap: square"/>
     </g>
     <g id="line2d_26">
      <g>
       <use xlink:href="#m87febf66e2" x="54" y="102.479629" style="stroke: #000000; stroke-width: 0.8"/>
      </g>
     </g>
     <g id="text_13">
      <!-- 800 -->
      <g transform="translate(27.9125 106.278847) scale(0.1 -0.1)">
       <use xlink:href="#DejaVuSans-38"/>
       <use xlink:href="#DejaVuSans-30" x="63.623047"/>
       <use xlink:href="#DejaVuSans-30" x="127.246094"/>
      </g>
     </g>
    </g>
    <g id="ytick_6">
     <g id="line2d_27">
      <path d="M 54 65.099536 
L 388.8 65.099536 
" clip-path="url(#pa7f476ce07)" style="fill: none; stroke: #b0b0b0; stroke-width: 0.8; stroke-linecap: square"/>
     </g>
     <g id="line2d_28">
      <g>
       <use xlink:href="#m87febf66e2" x="54" y="65.099536" style="stroke: #000000; stroke-width: 0.8"/>
      </g>
     </g>
     <g id="text_14">
      <!-- 1000 -->
      <g transform="translate(21.55 68.898755) scale(0.1 -0.1)">
       <use xlink:href="#DejaVuSans-31"/>
       <use xlink:href="#DejaVuSans-30" x="63.623047"/>
       <use xlink:href="#DejaVuSans-30" x="127.246094"/>
       <use xlink:href="#DejaVuSans-30" x="190.869141"/>
      </g>
     </g>
    </g>
   </g>
   <g id="line2d_29">
    <path d="M 292.952926 252 
L 292.952926 233.309954 
" clip-path="url(#pa7f476ce07)" style="fill: none; stroke: #ff0000; stroke-width: 1.5; stroke-linecap: square"/>
   </g>
   <g id="patch_104">
    <path d="M 54 252 
L 54 34.56 
" style="fill: none; stroke: #000000; stroke-width: 0.8; stroke-linejoin: miter; stroke-linecap: square"/>
   </g>
   <g id="patch_105">
    <path d="M 388.8 252 
L 388.8 34.56 
" style="fill: none; stroke: #000000; stroke-width: 0.8; stroke-linejoin: miter; stroke-linecap: square"/>
   </g>
   <g id="patch_106">
    <path d="M 54 252 
L 388.8 252 
" style="fill: none; stroke: #000000; stroke-width: 0.8; stroke-linejoin: miter; stroke-linecap: square"/>
   </g>
   <g id="patch_107">
    <path d="M 54 34.56 
L 388.8 34.56 
" style="fill: none; stroke: #000000; stroke-width: 0.8; stroke-linejoin: miter; stroke-linecap: square"/>
   </g>
   <g id="text_15">
    <!-- Nuveen Global Cities REIT, Inc. -->
    <g transform="translate(128.830312 28.56) scale(0.12 -0.12)">
     <defs>
      <path id="DejaVuSans-4e" d="M 628 4666 
L 1478 4666 
L 3547 763 
L 3547 4666 
L 4159 4666 
L 4159 0 
L 3309 0 
L 1241 3903 
L 1241 0 
L 628 0 
L 628 4666 
z
" transform="scale(0.015625)"/>
      <path id="DejaVuSans-75" d="M 544 1381 
L 544 3500 
L 1119 3500 
L 1119 1403 
Q 1119 906 1312 657 
Q 1506 409 1894 409 
Q 2359 409 2629 706 
Q 2900 1003 2900 1516 
L 2900 3500 
L 3475 3500 
L 3475 0 
L 2900 0 
L 2900 538 
Q 2691 219 2414 64 
Q 2138 -91 1772 -91 
Q 1169 -91 856 284 
Q 544 659 544 1381 
z
M 1991 3584 
L 1991 3584 
z
" transform="scale(0.015625)"/>
      <path id="DejaVuSans-76" d="M 191 3500 
L 800 3500 
L 1894 563 
L 2988 3500 
L 3597 3500 
L 2284 0 
L 1503 0 
L 191 3500 
z
" transform="scale(0.015625)"/>
      <path id="DejaVuSans-65" d="M 3597 1894 
L 3597 1613 
L 953 1613 
Q 991 1019 1311 708 
Q 1631 397 2203 397 
Q 2534 397 2845 478 
Q 3156 559 3463 722 
L 3463 178 
Q 3153 47 2828 -22 
Q 2503 -91 2169 -91 
Q 1331 -91 842 396 
Q 353 884 353 1716 
Q 353 2575 817 3079 
Q 1281 3584 2069 3584 
Q 2775 3584 3186 3129 
Q 3597 2675 3597 1894 
z
M 3022 2063 
Q 3016 2534 2758 2815 
Q 2500 3097 2075 3097 
Q 1594 3097 1305 2825 
Q 1016 2553 972 2059 
L 3022 2063 
z
" transform="scale(0.015625)"/>
      <path id="DejaVuSans-6e" d="M 3513 2113 
L 3513 0 
L 2938 0 
L 2938 2094 
Q 2938 2591 2744 2837 
Q 2550 3084 2163 3084 
Q 1697 3084 1428 2787 
Q 1159 2491 1159 1978 
L 1159 0 
L 581 0 
L 581 3500 
L 1159 3500 
L 1159 2956 
Q 1366 3272 1645 3428 
Q 1925 3584 2291 3584 
Q 2894 3584 3203 3211 
Q 3513 2838 3513 2113 
z
" transform="scale(0.015625)"/>
      <path id="DejaVuSans-20" transform="scale(0.015625)"/>
      <path id="DejaVuSans-47" d="M 3809 666 
L 3809 1919 
L 2778 1919 
L 2778 2438 
L 4434 2438 
L 4434 434 
Q 4069 175 3628 42 
Q 3188 -91 2688 -91 
Q 1594 -91 976 548 
Q 359 1188 359 2328 
Q 359 3472 976 4111 
Q 1594 4750 2688 4750 
Q 3144 4750 3555 4637 
Q 3966 4525 4313 4306 
L 4313 3634 
Q 3963 3931 3569 4081 
Q 3175 4231 2741 4231 
Q 1884 4231 1454 3753 
Q 1025 3275 1025 2328 
Q 1025 1384 1454 906 
Q 1884 428 2741 428 
Q 3075 428 3337 486 
Q 3600 544 3809 666 
z
" transform="scale(0.015625)"/>
      <path id="DejaVuSans-6c" d="M 603 4863 
L 1178 4863 
L 1178 0 
L 603 0 
L 603 4863 
z
" transform="scale(0.015625)"/>
      <path id="DejaVuSans-6f" d="M 1959 3097 
Q 1497 3097 1228 2736 
Q 959 2375 959 1747 
Q 959 1119 1226 758 
Q 1494 397 1959 397 
Q 2419 397 2687 759 
Q 2956 1122 2956 1747 
Q 2956 2369 2687 2733 
Q 2419 3097 1959 3097 
z
M 1959 3584 
Q 2709 3584 3137 3096 
Q 3566 2609 3566 1747 
Q 3566 888 3137 398 
Q 2709 -91 1959 -91 
Q 1206 -91 779 398 
Q 353 888 353 1747 
Q 353 2609 779 3096 
Q 1206 3584 1959 3584 
z
" transform="scale(0.015625)"/>
      <path id="DejaVuSans-62" d="M 3116 1747 
Q 3116 2381 2855 2742 
Q 2594 3103 2138 3103 
Q 1681 3103 1420 2742 
Q 1159 2381 1159 1747 
Q 1159 1113 1420 752 
Q 1681 391 2138 391 
Q 2594 391 2855 752 
Q 3116 1113 3116 1747 
z
M 1159 2969 
Q 1341 3281 1617 3432 
Q 1894 3584 2278 3584 
Q 2916 3584 3314 3078 
Q 3713 2572 3713 1747 
Q 3713 922 3314 415 
Q 2916 -91 2278 -91 
Q 1894 -91 1617 61 
Q 1341 213 1159 525 
L 1159 0 
L 581 0 
L 581 4863 
L 1159 4863 
L 1159 2969 
z
" transform="scale(0.015625)"/>
      <path id="DejaVuSans-61" d="M 2194 1759 
Q 1497 1759 1228 1600 
Q 959 1441 959 1056 
Q 959 750 1161 570 
Q 1363 391 1709 391 
Q 2188 391 2477 730 
Q 2766 1069 2766 1631 
L 2766 1759 
L 2194 1759 
z
M 3341 1997 
L 3341 0 
L 2766 0 
L 2766 531 
Q 2569 213 2275 61 
Q 1981 -91 1556 -91 
Q 1019 -91 701 211 
Q 384 513 384 1019 
Q 384 1609 779 1909 
Q 1175 2209 1959 2209 
L 2766 2209 
L 2766 2266 
Q 2766 2663 2505 2880 
Q 2244 3097 1772 3097 
Q 1472 3097 1187 3025 
Q 903 2953 641 2809 
L 641 3341 
Q 956 3463 1253 3523 
Q 1550 3584 1831 3584 
Q 2591 3584 2966 3190 
Q 3341 2797 3341 1997 
z
" transform="scale(0.015625)"/>
      <path id="DejaVuSans-43" d="M 4122 4306 
L 4122 3641 
Q 3803 3938 3442 4084 
Q 3081 4231 2675 4231 
Q 1875 4231 1450 3742 
Q 1025 3253 1025 2328 
Q 1025 1406 1450 917 
Q 1875 428 2675 428 
Q 3081 428 3442 575 
Q 3803 722 4122 1019 
L 4122 359 
Q 3791 134 3420 21 
Q 3050 -91 2638 -91 
Q 1578 -91 968 557 
Q 359 1206 359 2328 
Q 359 3453 968 4101 
Q 1578 4750 2638 4750 
Q 3056 4750 3426 4639 
Q 3797 4528 4122 4306 
z
" transform="scale(0.015625)"/>
      <path id="DejaVuSans-69" d="M 603 3500 
L 1178 3500 
L 1178 0 
L 603 0 
L 603 3500 
z
M 603 4863 
L 1178 4863 
L 1178 4134 
L 603 4134 
L 603 4863 
z
" transform="scale(0.015625)"/>
      <path id="DejaVuSans-74" d="M 1172 4494 
L 1172 3500 
L 2356 3500 
L 2356 3053 
L 1172 3053 
L 1172 1153 
Q 1172 725 1289 603 
Q 1406 481 1766 481 
L 2356 481 
L 2356 0 
L 1766 0 
Q 1100 0 847 248 
Q 594 497 594 1153 
L 594 3053 
L 172 3053 
L 172 3500 
L 594 3500 
L 594 4494 
L 1172 4494 
z
" transform="scale(0.015625)"/>
      <path id="DejaVuSans-73" d="M 2834 3397 
L 2834 2853 
Q 2591 2978 2328 3040 
Q 2066 3103 1784 3103 
Q 1356 3103 1142 2972 
Q 928 2841 928 2578 
Q 928 2378 1081 2264 
Q 1234 2150 1697 2047 
L 1894 2003 
Q 2506 1872 2764 1633 
Q 3022 1394 3022 966 
Q 3022 478 2636 193 
Q 2250 -91 1575 -91 
Q 1294 -91 989 -36 
Q 684 19 347 128 
L 347 722 
Q 666 556 975 473 
Q 1284 391 1588 391 
Q 1994 391 2212 530 
Q 2431 669 2431 922 
Q 2431 1156 2273 1281 
Q 2116 1406 1581 1522 
L 1381 1569 
Q 847 1681 609 1914 
Q 372 2147 372 2553 
Q 372 3047 722 3315 
Q 1072 3584 1716 3584 
Q 2034 3584 2315 3537 
Q 2597 3491 2834 3397 
z
" transform="scale(0.015625)"/>
      <path id="DejaVuSans-52" d="M 2841 2188 
Q 3044 2119 3236 1894 
Q 3428 1669 3622 1275 
L 4263 0 
L 3584 0 
L 2988 1197 
Q 2756 1666 2539 1819 
Q 2322 1972 1947 1972 
L 1259 1972 
L 1259 0 
L 628 0 
L 628 4666 
L 2053 4666 
Q 2853 4666 3247 4331 
Q 3641 3997 3641 3322 
Q 3641 2881 3436 2590 
Q 3231 2300 2841 2188 
z
M 1259 4147 
L 1259 2491 
L 2053 2491 
Q 2509 2491 2742 2702 
Q 2975 2913 2975 3322 
Q 2975 3731 2742 3939 
Q 2509 4147 2053 4147 
L 1259 4147 
z
" transform="scale(0.015625)"/>
      <path id="DejaVuSans-45" d="M 628 4666 
L 3578 4666 
L 3578 4134 
L 1259 4134 
L 1259 2753 
L 3481 2753 
L 3481 2222 
L 1259 2222 
L 1259 531 
L 3634 531 
L 3634 0 
L 628 0 
L 628 4666 
z
" transform="scale(0.015625)"/>
      <path id="DejaVuSans-49" d="M 628 4666 
L 1259 4666 
L 1259 0 
L 628 0 
L 628 4666 
z
" transform="scale(0.015625)"/>
      <path id="DejaVuSans-54" d="M -19 4666 
L 3928 4666 
L 3928 4134 
L 2272 4134 
L 2272 0 
L 1638 0 
L 1638 4134 
L -19 4134 
L -19 4666 
z
" transform="scale(0.015625)"/>
      <path id="DejaVuSans-2c" d="M 750 794 
L 1409 794 
L 1409 256 
L 897 -744 
L 494 -744 
L 750 256 
L 750 794 
z
" transform="scale(0.015625)"/>
      <path id="DejaVuSans-63" d="M 3122 3366 
L 3122 2828 
Q 2878 2963 2633 3030 
Q 2388 3097 2138 3097 
Q 1578 3097 1268 2742 
Q 959 2388 959 1747 
Q 959 1106 1268 751 
Q 1578 397 2138 397 
Q 2388 397 2633 464 
Q 2878 531 3122 666 
L 3122 134 
Q 2881 22 2623 -34 
Q 2366 -91 2075 -91 
Q 1284 -91 818 406 
Q 353 903 353 1747 
Q 353 2603 823 3093 
Q 1294 3584 2113 3584 
Q 2378 3584 2631 3529 
Q 2884 3475 3122 3366 
z
" transform="scale(0.015625)"/>
      <path id="DejaVuSans-2e" d="M 684 794 
L 1344 794 
L 1344 0 
L 684 0 
L 684 794 
z
" transform="scale(0.015625)"/>
     </defs>
     <use xlink:href="#DejaVuSans-4e"/>
     <use xlink:href="#DejaVuSans-75" x="74.804688"/>
     <use xlink:href="#DejaVuSans-76" x="138.183594"/>
     <use xlink:href="#DejaVuSans-65" x="197.363281"/>
     <use xlink:href="#DejaVuSans-65" x="258.886719"/>
     <use xlink:href="#DejaVuSans-6e" x="320.410156"/>
     <use xlink:href="#DejaVuSans-20" x="383.789062"/>
     <use xlink:href="#DejaVuSans-47" x="415.576172"/>
     <use xlink:href="#DejaVuSans-6c" x="493.066406"/>
     <use xlink:href="#DejaVuSans-6f" x="520.849609"/>
     <use xlink:href="#DejaVuSans-62" x="582.03125"/>
     <use xlink:href="#DejaVuSans-61" x="645.507812"/>
     <use xlink:href="#DejaVuSans-6c" x="706.787109"/>
     <use xlink:href="#DejaVuSans-20" x="734.570312"/>
     <use xlink:href="#DejaVuSans-43" x="766.357422"/>
     <use xlink:href="#DejaVuSans-69" x="836.181641"/>
     <use xlink:href="#DejaVuSans-74" x="863.964844"/>
     <use xlink:href="#DejaVuSans-69" x="903.173828"/>
     <use xlink:href="#DejaVuSans-65" x="930.957031"/>
     <use xlink:href="#DejaVuSans-73" x="992.480469"/>
     <use xlink:href="#DejaVuSans-20" x="1044.580078"/>
     <use xlink:href="#DejaVuSans-52" x="1076.367188"/>
     <use xlink:href="#DejaVuSans-45" x="1145.849609"/>
     <use xlink:href="#DejaVuSans-49" x="1209.033203"/>
     <use xlink:href="#DejaVuSans-54" x="1238.525391"/>
     <use xlink:href="#DejaVuSans-2c" x="1299.609375"/>
     <use xlink:href="#DejaVuSans-20" x="1331.396484"/>
     <use xlink:href="#DejaVuSans-49" x="1363.183594"/>
     <use xlink:href="#DejaVuSans-6e" x="1392.675781"/>
     <use xlink:href="#DejaVuSans-63" x="1456.054688"/>
     <use xlink:href="#DejaVuSans-2e" x="1511.035156"/>
    </g>
   </g>
   <g id="legend_1">
    <g id="patch_108">
     <path d="M 272.604688 57.238125 
L 381.8 57.238125 
Q 383.8 57.238125 383.8 55.238125 
L 383.8 41.56 
Q 383.8 39.56 381.8 39.56 
L 272.604688 39.56 
Q 270.604688 39.56 270.604688 41.56 
L 270.604688 55.238125 
Q 270.604688 57.238125 272.604688 57.238125 
z
" style="fill: #ffffff; opacity: 0.8; stroke: #cccccc; stroke-linejoin: miter"/>
    </g>
    <g id="line2d_30">
     <path d="M 274.604688 47.658437 
L 284.604688 47.658437 
L 294.604688 47.658437 
" style="fill: none; stroke: #ff0000; stroke-width: 1.5; stroke-linecap: square"/>
    </g>
    <g id="text_16">
     <!-- historical mean -->
     <g transform="translate(302.604688 51.158437) scale(0.1 -0.1)">
      <defs>
       <path id="DejaVuSans-68" d="M 3513 2113 
L 3513 0 
L 2938 0 
L 2938 2094 
Q 2938 2591 2744 2837 
Q 2550 3084 2163 3084 
Q 1697 3084 1428 2787 
Q 1159 2491 1159 1978 
L 1159 0 
L 581 0 
L 581 4863 
L 1159 4863 
L 1159 2956 
Q 1366 3272 1645 3428 
Q 1925 3584 2291 3584 
Q 2894 3584 3203 3211 
Q 3513 2838 3513 2113 
z
" transform="scale(0.015625)"/>
       <path id="DejaVuSans-72" d="M 2631 2963 
Q 2534 3019 2420 3045 
Q 2306 3072 2169 3072 
Q 1681 3072 1420 2755 
Q 1159 2438 1159 1844 
L 1159 0 
L 581 0 
L 581 3500 
L 1159 3500 
L 1159 2956 
Q 1341 3275 1631 3429 
Q 1922 3584 2338 3584 
Q 2397 3584 2469 3576 
Q 2541 3569 2628 3553 
L 2631 2963 
z
" transform="scale(0.015625)"/>
       <path id="DejaVuSans-6d" d="M 3328 2828 
Q 3544 3216 3844 3400 
Q 4144 3584 4550 3584 
Q 5097 3584 5394 3201 
Q 5691 2819 5691 2113 
L 5691 0 
L 5113 0 
L 5113 2094 
Q 5113 2597 4934 2840 
Q 4756 3084 4391 3084 
Q 3944 3084 3684 2787 
Q 3425 2491 3425 1978 
L 3425 0 
L 2847 0 
L 2847 2094 
Q 2847 2600 2669 2842 
Q 2491 3084 2119 3084 
Q 1678 3084 1418 2786 
Q 1159 2488 1159 1978 
L 1159 0 
L 581 0 
L 581 3500 
L 1159 3500 
L 1159 2956 
Q 1356 3278 1631 3431 
Q 1906 3584 2284 3584 
Q 2666 3584 2933 3390 
Q 3200 3197 3328 2828 
z
" transform="scale(0.015625)"/>
      </defs>
      <use xlink:href="#DejaVuSans-68"/>
      <use xlink:href="#DejaVuSans-69" x="63.378906"/>
      <use xlink:href="#DejaVuSans-73" x="91.162109"/>
      <use xlink:href="#DejaVuSans-74" x="143.261719"/>
      <use xlink:href="#DejaVuSans-6f" x="182.470703"/>
      <use xlink:href="#DejaVuSans-72" x="243.652344"/>
      <use xlink:href="#DejaVuSans-69" x="284.765625"/>
      <use xlink:href="#DejaVuSans-63" x="312.548828"/>
      <use xlink:href="#DejaVuSans-61" x="367.529297"/>
      <use xlink:href="#DejaVuSans-6c" x="428.808594"/>
      <use xlink:href="#DejaVuSans-20" x="456.591797"/>
      <use xlink:href="#DejaVuSans-6d" x="488.378906"/>
      <use xlink:href="#DejaVuSans-65" x="585.791016"/>
      <use xlink:href="#DejaVuSans-61" x="647.314453"/>
      <use xlink:href="#DejaVuSans-6e" x="708.59375"/>
     </g>
    </g>
   </g>
  </g>
 </g>
 <defs>
  <clipPath id="pa7f476ce07">
   <rect x="54" y="34.56" width="334.8" height="217.44"/>
  </clipPath>
 </defs>
</svg>
